<?xml version="1.0" encoding="UTF-8" standalone="no"?><svg xmlns="http://www.w3.org/2000/svg" xmlns:xlink="http://www.w3.org/1999/xlink" clip-rule="evenodd" stroke-miterlimit="10" viewBox="0 0 1024 768"><desc>SVG generated by Keynote</desc><defs></defs><g transform="matrix(1.00, 0.00, -0.00, -1.00, 0.0, 768.0)"><g><clipPath id="clip0x6000058acde0"><path d="M 0.0 768.0 L 1024.0 768.0 L 1024.0 0.0 L 0.0 0.0 Z M 0.0 768.0 "></path></clipPath><g clip-path="url(#clip0x6000058acde0)"><image xlink:href="../../62A57402-F52E-4D18-8FC0-8772A6409873/assets/5A8C990C4A4597A5304AC9F14CDA7C87.jpeg" width="2048.00" height="1536.00" transform="matrix(0.50, 0.00, -0.00, -0.50, 0.0, 768.0)"></image></g></g><g opacity="0.30"><g><clipPath id="clip0x608005ca94e0"><path d="M 39.0 595.0 L 986.0 595.0 L 986.0 599.0 L 39.0 599.0 Z M 39.0 595.0 "></path></clipPath><g clip-path="url(#clip0x608005ca94e0)"><path d="M 0.0 0.5 L 944.7 0.5 L 944.7 0.5 L 0.0 0.5 Z M 0.0 0.0 " fill="none" stroke="#434343" stroke-width="1.00" transform="matrix(1.00, 0.00, 0.00, -1.00, 40.0, 597.0)"></path></g></g></g><g opacity="0.30"><g><clipPath id="clip0x6080058b3b60"><path d="M 39.0 716.0 L 986.0 716.0 L 986.0 720.0 L 39.0 720.0 Z M 39.0 716.0 "></path></clipPath><g clip-path="url(#clip0x6080058b3b60)"><path d="M 0.0 0.5 L 944.7 0.5 L 944.7 0.5 L 0.0 0.5 Z M 0.0 0.0 " fill="none" stroke="#434343" stroke-width="1.00" transform="matrix(1.00, 0.00, 0.00, -1.00, 40.0, 718.0)"></path></g></g></g><text xml:space="preserve" font-family="AvenirNext-Regular,Avenir Next" font-size="64.4" fill="#D93D2A" transform="matrix(1.00, 0.00, -0.00, -1.00, 366.7, 636.6)">P</text><text xml:space="preserve" font-family="AvenirNext-Regular,Avenir Next" font-size="64.4" fill="#D93D2A" transform="matrix(1.00, 0.00, -0.00, -1.00, 399.5, 636.6)">e</text><text xml:space="preserve" font-family="AvenirNext-Regular,Avenir Next" font-size="64.4" fill="#D93D2A" transform="matrix(1.00, 0.00, -0.00, -1.00, 436.3, 636.6)">r</text><text xml:space="preserve" font-family="AvenirNext-Regular,Avenir Next" font-size="64.4" fill="#D93D2A" transform="matrix(1.00, 0.00, -0.00, -1.00, 458.3, 636.6)">g</text><text xml:space="preserve" font-family="AvenirNext-Regular,Avenir Next" font-size="64.4" fill="#D93D2A" transform="matrix(1.00, 0.00, -0.00, -1.00, 499.0, 636.6)">u</text><text xml:space="preserve" font-family="AvenirNext-Regular,Avenir Next" font-size="64.4" fill="#D93D2A" transform="matrix(1.00, 0.00, -0.00, -1.00, 536.4, 636.6)">n</text><text xml:space="preserve" font-family="AvenirNext-Regular,Avenir Next" font-size="64.4" fill="#D93D2A" transform="matrix(1.00, 0.00, -0.00, -1.00, 573.9, 636.6)">t</text><text xml:space="preserve" font-family="AvenirNext-Regular,Avenir Next" font-size="64.4" fill="#D93D2A" transform="matrix(1.00, 0.00, -0.00, -1.00, 594.3, 636.6)">a</text><text xml:space="preserve" font-family="AvenirNext-Regular,Avenir Next" font-size="64.4" fill="#D93D2A" transform="matrix(1.00, 0.00, -0.00, -1.00, 628.7, 636.6)">s</text><text xml:space="preserve" font-family="ZapfDingbatsITC,Zapf Dingbats" font-size="21.6" fill="#919191" transform="matrix(1.00, 0.00, -0.00, -1.00, 44.0, 422.3)">❖</text><text xml:space="preserve" font-family="AvenirNext-Regular,Avenir Next" font-size="36.0" fill="#404040" transform="matrix(1.00, 0.00, -0.00, -1.00, 81.0, 419.2)">Q</text><text xml:space="preserve" font-family="AvenirNext-Regular,Avenir Next" font-size="36.0" fill="#404040" transform="matrix(1.00, 0.00, -0.00, -1.00, 111.3, 419.2)">u</text><text xml:space="preserve" font-family="AvenirNext-Regular,Avenir Next" font-size="36.0" fill="#404040" transform="matrix(1.00, 0.00, -0.00, -1.00, 132.3, 419.2)">a</text><text xml:space="preserve" font-family="AvenirNext-Regular,Avenir Next" font-size="36.0" fill="#404040" transform="matrix(1.00, 0.00, -0.00, -1.00, 151.5, 419.2)">l</text><text xml:space="preserve" font-family="AvenirNext-Regular,Avenir Next" font-size="36.0" fill="#404040" transform="matrix(1.00, 0.00, -0.00, -1.00, 160.6, 419.2)"> </text><text xml:space="preserve" font-family="AvenirNext-Regular,Avenir Next" font-size="36.0" fill="#404040" transform="matrix(1.00, 0.00, -0.00, -1.00, 169.6, 419.2)">a</text><text xml:space="preserve" font-family="AvenirNext-Regular,Avenir Next" font-size="36.0" fill="#404040" transform="matrix(1.00, 0.00, -0.00, -1.00, 188.8, 419.2)"> </text><text xml:space="preserve" font-family="AvenirNext-DemiBold,Avenir Next" font-weight="bold" font-size="36.0" fill="#404040" transform="matrix(1.00, 0.00, -0.00, -1.00, 197.8, 419.2)">r</text><text xml:space="preserve" font-family="AvenirNext-DemiBold,Avenir Next" font-weight="bold" font-size="36.0" fill="#404040" transform="matrix(1.00, 0.00, -0.00, -1.00, 210.2, 419.2)">e</text><text xml:space="preserve" font-family="AvenirNext-DemiBold,Avenir Next" font-weight="bold" font-size="36.0" fill="#404040" transform="matrix(1.00, 0.00, -0.00, -1.00, 230.9, 419.2)">d</text><text xml:space="preserve" font-family="AvenirNext-DemiBold,Avenir Next" font-weight="bold" font-size="36.0" fill="#404040" transform="matrix(1.00, 0.00, -0.00, -1.00, 253.7, 419.2)">u</text><text xml:space="preserve" font-family="AvenirNext-DemiBold,Avenir Next" font-weight="bold" font-size="36.0" fill="#404040" transform="matrix(1.00, 0.00, -0.00, -1.00, 274.7, 419.2)">ç</text><text xml:space="preserve" font-family="AvenirNext-DemiBold,Avenir Next" font-weight="bold" font-size="36.0" fill="#404040" transform="matrix(1.00, 0.00, -0.00, -1.00, 292.2, 419.2)">ã</text><text xml:space="preserve" font-family="AvenirNext-DemiBold,Avenir Next" font-weight="bold" font-size="36.0" fill="#404040" transform="matrix(1.00, 0.00, -0.00, -1.00, 312.0, 419.2)">o</text><text xml:space="preserve" font-family="AvenirNext-Regular,Avenir Next" font-size="36.0" fill="#404040" transform="matrix(1.00, 0.00, -0.00, -1.00, 334.0, 419.2)"> </text><text xml:space="preserve" font-family="AvenirNext-Regular,Avenir Next" font-size="36.0" fill="#404040" transform="matrix(1.00, 0.00, -0.00, -1.00, 343.0, 419.2)">n</text><text xml:space="preserve" font-family="AvenirNext-Regular,Avenir Next" font-size="36.0" fill="#404040" transform="matrix(1.00, 0.00, -0.00, -1.00, 363.9, 419.2)">a</text><text xml:space="preserve" font-family="AvenirNext-Regular,Avenir Next" font-size="36.0" fill="#404040" transform="matrix(1.00, 0.00, -0.00, -1.00, 383.1, 419.2)"> </text><text xml:space="preserve" font-family="AvenirNext-Regular,Avenir Next" font-size="36.0" fill="#404040" transform="matrix(1.00, 0.00, -0.00, -1.00, 392.1, 419.2)">c</text><text xml:space="preserve" font-family="AvenirNext-Regular,Avenir Next" font-size="36.0" fill="#404040" transform="matrix(1.00, 0.00, -0.00, -1.00, 410.1, 419.2)">o</text><text xml:space="preserve" font-family="AvenirNext-Regular,Avenir Next" font-size="36.0" fill="#404040" transform="matrix(1.00, 0.00, -0.00, -1.00, 432.1, 419.2)">m</text><text xml:space="preserve" font-family="AvenirNext-Regular,Avenir Next" font-size="36.0" fill="#404040" transform="matrix(1.00, 0.00, -0.00, -1.00, 463.9, 419.2)">p</text><text xml:space="preserve" font-family="AvenirNext-Regular,Avenir Next" font-size="36.0" fill="#404040" transform="matrix(1.00, 0.00, -0.00, -1.00, 486.8, 419.2)">l</text><text xml:space="preserve" font-family="AvenirNext-Regular,Avenir Next" font-size="36.0" fill="#404040" transform="matrix(1.00, 0.00, -0.00, -1.00, 495.9, 419.2)">e</text><text xml:space="preserve" font-family="AvenirNext-Regular,Avenir Next" font-size="36.0" fill="#404040" transform="matrix(1.00, 0.00, -0.00, -1.00, 516.2, 419.2)">x</text><text xml:space="preserve" font-family="AvenirNext-Regular,Avenir Next" font-size="36.0" fill="#404040" transform="matrix(1.00, 0.00, -0.00, -1.00, 533.7, 419.2)">i</text><text xml:space="preserve" font-family="AvenirNext-Regular,Avenir Next" font-size="36.0" fill="#404040" transform="matrix(1.00, 0.00, -0.00, -1.00, 542.7, 419.2)">d</text><text xml:space="preserve" font-family="AvenirNext-Regular,Avenir Next" font-size="36.0" fill="#404040" transform="matrix(1.00, 0.00, -0.00, -1.00, 565.6, 419.2)">a</text><text xml:space="preserve" font-family="AvenirNext-Regular,Avenir Next" font-size="36.0" fill="#404040" transform="matrix(1.00, 0.00, -0.00, -1.00, 584.8, 419.2)">d</text><text xml:space="preserve" font-family="AvenirNext-Regular,Avenir Next" font-size="36.0" fill="#404040" transform="matrix(1.00, 0.00, -0.00, -1.00, 607.8, 419.2)">e</text><text xml:space="preserve" font-family="AvenirNext-Regular,Avenir Next" font-size="36.0" fill="#404040" transform="matrix(1.00, 0.00, -0.00, -1.00, 628.3, 419.2)"> </text><text xml:space="preserve" font-family="AvenirNext-Regular,Avenir Next" font-size="36.0" fill="#404040" transform="matrix(1.00, 0.00, -0.00, -1.00, 637.3, 419.2)">c</text><text xml:space="preserve" font-family="AvenirNext-Regular,Avenir Next" font-size="36.0" fill="#404040" transform="matrix(1.00, 0.00, -0.00, -1.00, 655.3, 419.2)">o</text><text xml:space="preserve" font-family="AvenirNext-Regular,Avenir Next" font-size="36.0" fill="#404040" transform="matrix(1.00, 0.00, -0.00, -1.00, 677.3, 419.2)">m</text><text xml:space="preserve" font-family="AvenirNext-Regular,Avenir Next" font-size="36.0" fill="#404040" transform="matrix(1.00, 0.00, -0.00, -1.00, 709.1, 419.2)">p</text><text xml:space="preserve" font-family="AvenirNext-Regular,Avenir Next" font-size="36.0" fill="#404040" transform="matrix(1.00, 0.00, -0.00, -1.00, 732.0, 419.2)">u</text><text xml:space="preserve" font-family="AvenirNext-Regular,Avenir Next" font-size="36.0" fill="#404040" transform="matrix(1.00, 0.00, -0.00, -1.00, 752.9, 419.2)">t</text><text xml:space="preserve" font-family="AvenirNext-Regular,Avenir Next" font-size="36.0" fill="#404040" transform="matrix(1.00, 0.00, -0.00, -1.00, 764.3, 419.2)">a</text><text xml:space="preserve" font-family="AvenirNext-Regular,Avenir Next" font-size="36.0" fill="#404040" transform="matrix(1.00, 0.00, -0.00, -1.00, 783.5, 419.2)">c</text><text xml:space="preserve" font-family="AvenirNext-Regular,Avenir Next" font-size="36.0" fill="#404040" transform="matrix(1.00, 0.00, -0.00, -1.00, 801.5, 419.2)">i</text><text xml:space="preserve" font-family="AvenirNext-Regular,Avenir Next" font-size="36.0" fill="#404040" transform="matrix(1.00, 0.00, -0.00, -1.00, 810.5, 419.2)">o</text><text xml:space="preserve" font-family="AvenirNext-Regular,Avenir Next" font-size="36.0" fill="#404040" transform="matrix(1.00, 0.00, -0.00, -1.00, 832.5, 419.2)">n</text><text xml:space="preserve" font-family="AvenirNext-Regular,Avenir Next" font-size="36.0" fill="#404040" transform="matrix(1.00, 0.00, -0.00, -1.00, 853.5, 419.2)">a</text><text xml:space="preserve" font-family="AvenirNext-Regular,Avenir Next" font-size="36.0" fill="#404040" transform="matrix(1.00, 0.00, -0.00, -1.00, 872.7, 419.2)">l</text><text xml:space="preserve" font-family="AvenirNext-Regular,Avenir Next" font-size="36.0" fill="#404040" transform="matrix(1.00, 0.00, -0.00, -1.00, 881.7, 419.2)"> </text><text xml:space="preserve" font-family="AvenirNext-Regular,Avenir Next" font-size="36.0" fill="#404040" transform="matrix(1.00, 0.00, -0.00, -1.00, 890.7, 419.2)">q</text><text xml:space="preserve" font-family="AvenirNext-Regular,Avenir Next" font-size="36.0" fill="#404040" transform="matrix(1.00, 0.00, -0.00, -1.00, 913.6, 419.2)">u</text><text xml:space="preserve" font-family="AvenirNext-Regular,Avenir Next" font-size="36.0" fill="#404040" transform="matrix(1.00, 0.00, -0.00, -1.00, 934.5, 419.2)">e</text><text xml:space="preserve" font-family="AvenirNext-Regular,Avenir Next" font-size="36.0" fill="#404040" transform="matrix(1.00, 0.00, -0.00, -1.00, 955.1, 419.2)"> </text><text xml:space="preserve" font-family="AvenirNext-Regular,Avenir Next" font-size="36.0" fill="#404040" transform="matrix(1.00, 0.00, -0.00, -1.00, 81.0, 370.2)">s</text><text xml:space="preserve" font-family="AvenirNext-Regular,Avenir Next" font-size="36.0" fill="#404040" transform="matrix(1.00, 0.00, -0.00, -1.00, 97.0, 370.2)">e</text><text xml:space="preserve" font-family="AvenirNext-Regular,Avenir Next" font-size="36.0" fill="#404040" transform="matrix(1.00, 0.00, -0.00, -1.00, 117.6, 370.2)"> </text><text xml:space="preserve" font-family="AvenirNext-Regular,Avenir Next" font-size="36.0" fill="#404040" transform="matrix(1.00, 0.00, -0.00, -1.00, 126.6, 370.2)">c</text><text xml:space="preserve" font-family="AvenirNext-Regular,Avenir Next" font-size="36.0" fill="#404040" transform="matrix(1.00, 0.00, -0.00, -1.00, 144.6, 370.2)">o</text><text xml:space="preserve" font-family="AvenirNext-Regular,Avenir Next" font-size="36.0" fill="#404040" transform="matrix(1.00, 0.00, -0.00, -1.00, 166.6, 370.2)">n</text><text xml:space="preserve" font-family="AvenirNext-Regular,Avenir Next" font-size="36.0" fill="#404040" transform="matrix(1.00, 0.00, -0.00, -1.00, 187.5, 370.2)">s</text><text xml:space="preserve" font-family="AvenirNext-Regular,Avenir Next" font-size="36.0" fill="#404040" transform="matrix(1.00, 0.00, -0.00, -1.00, 203.5, 370.2)">e</text><text xml:space="preserve" font-family="AvenirNext-Regular,Avenir Next" font-size="36.0" fill="#404040" transform="matrix(1.00, 0.00, -0.00, -1.00, 224.1, 370.2)">g</text><text xml:space="preserve" font-family="AvenirNext-Regular,Avenir Next" font-size="36.0" fill="#404040" transform="matrix(1.00, 0.00, -0.00, -1.00, 246.8, 370.2)">u</text><text xml:space="preserve" font-family="AvenirNext-Regular,Avenir Next" font-size="36.0" fill="#404040" transform="matrix(1.00, 0.00, -0.00, -1.00, 267.7, 370.2)">e</text><text xml:space="preserve" font-family="AvenirNext-Regular,Avenir Next" font-size="36.0" fill="#404040" transform="matrix(1.00, 0.00, -0.00, -1.00, 288.3, 370.2)"> </text><text xml:space="preserve" font-family="AvenirNext-Regular,Avenir Next" font-size="36.0" fill="#404040" transform="matrix(1.00, 0.00, -0.00, -1.00, 297.3, 370.2)">a</text><text xml:space="preserve" font-family="AvenirNext-Regular,Avenir Next" font-size="36.0" fill="#404040" transform="matrix(1.00, 0.00, -0.00, -1.00, 316.5, 370.2)">o</text><text xml:space="preserve" font-family="AvenirNext-Regular,Avenir Next" font-size="36.0" fill="#404040" transform="matrix(1.00, 0.00, -0.00, -1.00, 338.5, 370.2)"> </text><text xml:space="preserve" font-family="AvenirNext-Regular,Avenir Next" font-size="36.0" fill="#404040" transform="matrix(1.00, 0.00, -0.00, -1.00, 347.5, 370.2)">s</text><text xml:space="preserve" font-family="AvenirNext-Regular,Avenir Next" font-size="36.0" fill="#404040" transform="matrix(1.00, 0.00, -0.00, -1.00, 363.5, 370.2)">e</text><text xml:space="preserve" font-family="AvenirNext-Regular,Avenir Next" font-size="36.0" fill="#404040" transform="matrix(1.00, 0.00, -0.00, -1.00, 384.1, 370.2)"> </text><text xml:space="preserve" font-family="AvenirNext-Regular,Avenir Next" font-size="36.0" fill="#404040" transform="matrix(1.00, 0.00, -0.00, -1.00, 393.1, 370.2)">i</text><text xml:space="preserve" font-family="AvenirNext-Regular,Avenir Next" font-size="36.0" fill="#404040" transform="matrix(1.00, 0.00, -0.00, -1.00, 402.1, 370.2)">m</text><text xml:space="preserve" font-family="AvenirNext-Regular,Avenir Next" font-size="36.0" fill="#404040" transform="matrix(1.00, 0.00, -0.00, -1.00, 433.9, 370.2)">p</text><text xml:space="preserve" font-family="AvenirNext-Regular,Avenir Next" font-size="36.0" fill="#404040" transform="matrix(1.00, 0.00, -0.00, -1.00, 456.8, 370.2)">l</text><text xml:space="preserve" font-family="AvenirNext-Regular,Avenir Next" font-size="36.0" fill="#404040" transform="matrix(1.00, 0.00, -0.00, -1.00, 465.8, 370.2)">e</text><text xml:space="preserve" font-family="AvenirNext-Regular,Avenir Next" font-size="36.0" fill="#404040" transform="matrix(1.00, 0.00, -0.00, -1.00, 486.4, 370.2)">m</text><text xml:space="preserve" font-family="AvenirNext-Regular,Avenir Next" font-size="36.0" fill="#404040" transform="matrix(1.00, 0.00, -0.00, -1.00, 518.2, 370.2)">e</text><text xml:space="preserve" font-family="AvenirNext-Regular,Avenir Next" font-size="36.0" fill="#404040" transform="matrix(1.00, 0.00, -0.00, -1.00, 538.8, 370.2)">n</text><text xml:space="preserve" font-family="AvenirNext-Regular,Avenir Next" font-size="36.0" fill="#404040" transform="matrix(1.00, 0.00, -0.00, -1.00, 559.7, 370.2)">t</text><text xml:space="preserve" font-family="AvenirNext-Regular,Avenir Next" font-size="36.0" fill="#404040" transform="matrix(1.00, 0.00, -0.00, -1.00, 571.1, 370.2)">a</text><text xml:space="preserve" font-family="AvenirNext-Regular,Avenir Next" font-size="36.0" fill="#404040" transform="matrix(1.00, 0.00, -0.00, -1.00, 590.4, 370.2)">r</text><text xml:space="preserve" font-family="AvenirNext-Regular,Avenir Next" font-size="36.0" fill="#404040" transform="matrix(1.00, 0.00, -0.00, -1.00, 603.3, 370.2)"> </text><text xml:space="preserve" font-family="AvenirNext-Regular,Avenir Next" font-size="36.0" fill="#404040" transform="matrix(1.00, 0.00, -0.00, -1.00, 612.3, 370.2)">e</text><text xml:space="preserve" font-family="AvenirNext-Regular,Avenir Next" font-size="36.0" fill="#404040" transform="matrix(1.00, 0.00, -0.00, -1.00, 632.9, 370.2)">s</text><text xml:space="preserve" font-family="AvenirNext-Regular,Avenir Next" font-size="36.0" fill="#404040" transform="matrix(1.00, 0.00, -0.00, -1.00, 648.9, 370.2)">s</text><text xml:space="preserve" font-family="AvenirNext-Regular,Avenir Next" font-size="36.0" fill="#404040" transform="matrix(1.00, 0.00, -0.00, -1.00, 664.9, 370.2)">e</text><text xml:space="preserve" font-family="AvenirNext-Regular,Avenir Next" font-size="36.0" fill="#404040" transform="matrix(1.00, 0.00, -0.00, -1.00, 685.5, 370.2)"> </text><text xml:space="preserve" font-family="AvenirNext-DemiBold,Avenir Next" font-weight="bold" font-size="36.0" fill="#404040" transform="matrix(1.00, 0.00, -0.00, -1.00, 694.5, 370.2)">c</text><text xml:space="preserve" font-family="AvenirNext-DemiBold,Avenir Next" font-weight="bold" font-size="36.0" fill="#404040" transform="matrix(1.00, 0.00, -0.00, -1.00, 712.0, 370.2)">o</text><text xml:space="preserve" font-family="AvenirNext-DemiBold,Avenir Next" font-weight="bold" font-size="36.0" fill="#404040" transform="matrix(1.00, 0.00, -0.00, -1.00, 734.0, 370.2)">n</text><text xml:space="preserve" font-family="AvenirNext-DemiBold,Avenir Next" font-weight="bold" font-size="36.0" fill="#404040" transform="matrix(1.00, 0.00, -0.00, -1.00, 755.0, 370.2)">j</text><text xml:space="preserve" font-family="AvenirNext-DemiBold,Avenir Next" font-weight="bold" font-size="36.0" fill="#404040" transform="matrix(1.00, 0.00, -0.00, -1.00, 764.6, 370.2)">u</text><text xml:space="preserve" font-family="AvenirNext-DemiBold,Avenir Next" font-weight="bold" font-size="36.0" fill="#404040" transform="matrix(1.00, 0.00, -0.00, -1.00, 785.6, 370.2)">n</text><text xml:space="preserve" font-family="AvenirNext-DemiBold,Avenir Next" font-weight="bold" font-size="36.0" fill="#404040" transform="matrix(1.00, 0.00, -0.00, -1.00, 806.5, 370.2)">t</text><text xml:space="preserve" font-family="AvenirNext-DemiBold,Avenir Next" font-weight="bold" font-size="36.0" fill="#404040" transform="matrix(1.00, 0.00, -0.00, -1.00, 818.7, 370.2)">o</text><text xml:space="preserve" font-family="AvenirNext-DemiBold,Avenir Next" font-weight="bold" font-size="36.0" fill="#404040" transform="matrix(1.00, 0.00, -0.00, -1.00, 840.7, 370.2)"> </text><text xml:space="preserve" font-family="AvenirNext-DemiBold,Avenir Next" font-weight="bold" font-size="36.0" fill="#404040" transform="matrix(1.00, 0.00, -0.00, -1.00, 849.7, 370.2)">d</text><text xml:space="preserve" font-family="AvenirNext-DemiBold,Avenir Next" font-weight="bold" font-size="36.0" fill="#404040" transform="matrix(1.00, 0.00, -0.00, -1.00, 872.5, 370.2)">e</text><text xml:space="preserve" font-family="AvenirNext-DemiBold,Avenir Next" font-weight="bold" font-size="36.0" fill="#404040" transform="matrix(1.00, 0.00, -0.00, -1.00, 893.2, 370.2)"> </text><text xml:space="preserve" font-family="AvenirNext-DemiBold,Avenir Next" font-weight="bold" font-size="36.0" fill="#404040" transform="matrix(1.00, 0.00, -0.00, -1.00, 81.0, 321.2)">t</text><text xml:space="preserve" font-family="AvenirNext-DemiBold,Avenir Next" font-weight="bold" font-size="36.0" fill="#404040" transform="matrix(1.00, 0.00, -0.00, -1.00, 93.2, 321.2)">é</text><text xml:space="preserve" font-family="AvenirNext-DemiBold,Avenir Next" font-weight="bold" font-size="36.0" fill="#404040" transform="matrix(1.00, 0.00, -0.00, -1.00, 113.9, 321.2)">c</text><text xml:space="preserve" font-family="AvenirNext-DemiBold,Avenir Next" font-weight="bold" font-size="36.0" fill="#404040" transform="matrix(1.00, 0.00, -0.00, -1.00, 131.5, 321.2)">n</text><text xml:space="preserve" font-family="AvenirNext-DemiBold,Avenir Next" font-weight="bold" font-size="36.0" fill="#404040" transform="matrix(1.00, 0.00, -0.00, -1.00, 152.4, 321.2)">i</text><text xml:space="preserve" font-family="AvenirNext-DemiBold,Avenir Next" font-weight="bold" font-size="36.0" fill="#404040" transform="matrix(1.00, 0.00, -0.00, -1.00, 162.1, 321.2)">c</text><text xml:space="preserve" font-family="AvenirNext-DemiBold,Avenir Next" font-weight="bold" font-size="36.0" fill="#404040" transform="matrix(1.00, 0.00, -0.00, -1.00, 179.6, 321.2)">a</text><text xml:space="preserve" font-family="AvenirNext-DemiBold,Avenir Next" font-weight="bold" font-size="36.0" fill="#404040" transform="matrix(1.00, 0.00, -0.00, -1.00, 199.4, 321.2)">s</text><text xml:space="preserve" font-family="AvenirNext-Regular,Avenir Next" font-size="36.0" fill="#404040" transform="matrix(1.00, 0.00, -0.00, -1.00, 215.4, 321.2)"> </text><text xml:space="preserve" font-family="AvenirNext-Regular,Avenir Next" font-size="36.0" fill="#404040" transform="matrix(1.00, 0.00, -0.00, -1.00, 224.4, 321.2)">e</text><text xml:space="preserve" font-family="AvenirNext-Regular,Avenir Next" font-size="36.0" fill="#404040" transform="matrix(1.00, 0.00, -0.00, -1.00, 245.0, 321.2)">m</text><text xml:space="preserve" font-family="AvenirNext-Regular,Avenir Next" font-size="36.0" fill="#404040" transform="matrix(1.00, 0.00, -0.00, -1.00, 276.8, 321.2)"> </text><text xml:space="preserve" font-family="AvenirNext-Regular,Avenir Next" font-size="36.0" fill="#404040" transform="matrix(1.00, 0.00, -0.00, -1.00, 285.8, 321.2)">u</text><text xml:space="preserve" font-family="AvenirNext-Regular,Avenir Next" font-size="36.0" fill="#404040" transform="matrix(1.00, 0.00, -0.00, -1.00, 306.7, 321.2)">m</text><text xml:space="preserve" font-family="AvenirNext-Regular,Avenir Next" font-size="36.0" fill="#404040" transform="matrix(1.00, 0.00, -0.00, -1.00, 338.5, 321.2)"> </text><text xml:space="preserve" font-family="AvenirNext-DemiBold,Avenir Next" font-weight="bold" font-size="36.0" fill="#404040" transform="matrix(1.00, 0.00, -0.00, -1.00, 347.5, 321.2)">c</text><text xml:space="preserve" font-family="AvenirNext-DemiBold,Avenir Next" font-weight="bold" font-size="36.0" fill="#404040" transform="matrix(1.00, 0.00, -0.00, -1.00, 365.1, 321.2)">l</text><text xml:space="preserve" font-family="AvenirNext-DemiBold,Avenir Next" font-weight="bold" font-size="36.0" fill="#404040" transform="matrix(1.00, 0.00, -0.00, -1.00, 374.7, 321.2)">a</text><text xml:space="preserve" font-family="AvenirNext-DemiBold,Avenir Next" font-weight="bold" font-size="36.0" fill="#404040" transform="matrix(1.00, 0.00, -0.00, -1.00, 394.5, 321.2)">s</text><text xml:space="preserve" font-family="AvenirNext-DemiBold,Avenir Next" font-weight="bold" font-size="36.0" fill="#404040" transform="matrix(1.00, 0.00, -0.00, -1.00, 410.5, 321.2)">s</text><text xml:space="preserve" font-family="AvenirNext-DemiBold,Avenir Next" font-weight="bold" font-size="36.0" fill="#404040" transform="matrix(1.00, 0.00, -0.00, -1.00, 426.5, 321.2)">i</text><text xml:space="preserve" font-family="AvenirNext-DemiBold,Avenir Next" font-weight="bold" font-size="36.0" fill="#404040" transform="matrix(1.00, 0.00, -0.00, -1.00, 436.1, 321.2)">ﬁ</text><text xml:space="preserve" font-family="AvenirNext-DemiBold,Avenir Next" font-weight="bold" font-size="36.0" fill="#404040" transform="matrix(1.00, 0.00, -0.00, -1.00, 457.5, 321.2)">c</text><text xml:space="preserve" font-family="AvenirNext-DemiBold,Avenir Next" font-weight="bold" font-size="36.0" fill="#404040" transform="matrix(1.00, 0.00, -0.00, -1.00, 475.1, 321.2)">a</text><text xml:space="preserve" font-family="AvenirNext-DemiBold,Avenir Next" font-weight="bold" font-size="36.0" fill="#404040" transform="matrix(1.00, 0.00, -0.00, -1.00, 494.9, 321.2)">d</text><text xml:space="preserve" font-family="AvenirNext-DemiBold,Avenir Next" font-weight="bold" font-size="36.0" fill="#404040" transform="matrix(1.00, 0.00, -0.00, -1.00, 517.7, 321.2)">o</text><text xml:space="preserve" font-family="AvenirNext-DemiBold,Avenir Next" font-weight="bold" font-size="36.0" fill="#404040" transform="matrix(1.00, 0.00, -0.00, -1.00, 539.6, 321.2)">r</text><text xml:space="preserve" font-family="AvenirNext-DemiBold,Avenir Next" font-weight="bold" font-size="36.0" fill="#404040" transform="matrix(1.00, 0.00, -0.00, -1.00, 552.7, 321.2)"> </text><text xml:space="preserve" font-family="AvenirNext-DemiBold,Avenir Next" font-weight="bold" font-size="36.0" fill="#404040" transform="matrix(1.00, 0.00, -0.00, -1.00, 561.7, 321.2)">d</text><text xml:space="preserve" font-family="AvenirNext-DemiBold,Avenir Next" font-weight="bold" font-size="36.0" fill="#404040" transform="matrix(1.00, 0.00, -0.00, -1.00, 584.6, 321.2)">o</text><text xml:space="preserve" font-family="AvenirNext-DemiBold,Avenir Next" font-weight="bold" font-size="36.0" fill="#404040" transform="matrix(1.00, 0.00, -0.00, -1.00, 606.5, 321.2)"> </text><text xml:space="preserve" font-family="AvenirNext-DemiBold,Avenir Next" font-weight="bold" font-size="36.0" fill="#404040" transform="matrix(1.00, 0.00, -0.00, -1.00, 615.5, 321.2)">e</text><text xml:space="preserve" font-family="AvenirNext-DemiBold,Avenir Next" font-weight="bold" font-size="36.0" fill="#404040" transform="matrix(1.00, 0.00, -0.00, -1.00, 636.2, 321.2)">s</text><text xml:space="preserve" font-family="AvenirNext-DemiBold,Avenir Next" font-weight="bold" font-size="36.0" fill="#404040" transform="matrix(1.00, 0.00, -0.00, -1.00, 652.2, 321.2)">t</text><text xml:space="preserve" font-family="AvenirNext-DemiBold,Avenir Next" font-weight="bold" font-size="36.0" fill="#404040" transform="matrix(1.00, 0.00, -0.00, -1.00, 664.4, 321.2)">a</text><text xml:space="preserve" font-family="AvenirNext-DemiBold,Avenir Next" font-weight="bold" font-size="36.0" fill="#404040" transform="matrix(1.00, 0.00, -0.00, -1.00, 684.2, 321.2)">d</text><text xml:space="preserve" font-family="AvenirNext-DemiBold,Avenir Next" font-weight="bold" font-size="36.0" fill="#404040" transform="matrix(1.00, 0.00, -0.00, -1.00, 707.0, 321.2)">o</text><text xml:space="preserve" font-family="AvenirNext-DemiBold,Avenir Next" font-weight="bold" font-size="36.0" fill="#404040" transform="matrix(1.00, 0.00, -0.00, -1.00, 729.0, 321.2)"> </text><text xml:space="preserve" font-family="AvenirNext-DemiBold,Avenir Next" font-weight="bold" font-size="36.0" fill="#404040" transform="matrix(1.00, 0.00, -0.00, -1.00, 738.0, 321.2)">d</text><text xml:space="preserve" font-family="AvenirNext-DemiBold,Avenir Next" font-weight="bold" font-size="36.0" fill="#404040" transform="matrix(1.00, 0.00, -0.00, -1.00, 760.8, 321.2)">a</text><text xml:space="preserve" font-family="AvenirNext-DemiBold,Avenir Next" font-weight="bold" font-size="36.0" fill="#404040" transform="matrix(1.00, 0.00, -0.00, -1.00, 780.6, 321.2)"> </text><text xml:space="preserve" font-family="AvenirNext-DemiBold,Avenir Next" font-weight="bold" font-size="36.0" fill="#404040" transform="matrix(1.00, 0.00, -0.00, -1.00, 789.6, 321.2)">a</text><text xml:space="preserve" font-family="AvenirNext-DemiBold,Avenir Next" font-weight="bold" font-size="36.0" fill="#404040" transform="matrix(1.00, 0.00, -0.00, -1.00, 809.4, 321.2)">r</text><text xml:space="preserve" font-family="AvenirNext-DemiBold,Avenir Next" font-weight="bold" font-size="36.0" fill="#404040" transform="matrix(1.00, 0.00, -0.00, -1.00, 822.1, 321.2)">t</text><text xml:space="preserve" font-family="AvenirNext-DemiBold,Avenir Next" font-weight="bold" font-size="36.0" fill="#404040" transform="matrix(1.00, 0.00, -0.00, -1.00, 834.3, 321.2)">e</text><text xml:space="preserve" font-family="AvenirNext-Regular,Avenir Next" font-size="36.0" fill="#404040" transform="matrix(1.00, 0.00, -0.00, -1.00, 855.0, 321.2)">?</text><text xml:space="preserve" font-family="AvenirNext-Regular,Avenir Next" font-size="36.0" fill="#404040" transform="matrix(1.00, 0.00, -0.00, -1.00, 872.4, 321.2)"> </text><text xml:space="preserve" font-family="ZapfDingbatsITC,Zapf Dingbats" font-size="21.6" fill="#919191" transform="matrix(1.00, 0.00, -0.00, -1.00, 44.0, 251.3)">❖</text><text xml:space="preserve" font-family="AvenirNext-Regular,Avenir Next" font-size="36.0" fill="#404040" transform="matrix(1.00, 0.00, -0.00, -1.00, 81.0, 248.2)">Q</text><text xml:space="preserve" font-family="AvenirNext-Regular,Avenir Next" font-size="36.0" fill="#404040" transform="matrix(1.00, 0.00, -0.00, -1.00, 111.3, 248.2)">u</text><text xml:space="preserve" font-family="AvenirNext-Regular,Avenir Next" font-size="36.0" fill="#404040" transform="matrix(1.00, 0.00, -0.00, -1.00, 132.3, 248.2)">a</text><text xml:space="preserve" font-family="AvenirNext-Regular,Avenir Next" font-size="36.0" fill="#404040" transform="matrix(1.00, 0.00, -0.00, -1.00, 151.5, 248.2)">l</text><text xml:space="preserve" font-family="AvenirNext-Regular,Avenir Next" font-size="36.0" fill="#404040" transform="matrix(1.00, 0.00, -0.00, -1.00, 160.6, 248.2)"> </text><text xml:space="preserve" font-family="AvenirNext-Regular,Avenir Next" font-size="36.0" fill="#404040" transform="matrix(1.00, 0.00, -0.00, -1.00, 169.6, 248.2)">a</text><text xml:space="preserve" font-family="AvenirNext-Regular,Avenir Next" font-size="36.0" fill="#404040" transform="matrix(1.00, 0.00, -0.00, -1.00, 188.8, 248.2)"> </text><text xml:space="preserve" font-family="AvenirNext-Regular,Avenir Next" font-size="36.0" fill="#404040" transform="matrix(1.00, 0.00, -0.00, -1.00, 197.8, 248.2)">r</text><text xml:space="preserve" font-family="AvenirNext-Regular,Avenir Next" font-size="36.0" fill="#404040" transform="matrix(1.00, 0.00, -0.00, -1.00, 210.1, 248.2)">e</text><text xml:space="preserve" font-family="AvenirNext-Regular,Avenir Next" font-size="36.0" fill="#404040" transform="matrix(1.00, 0.00, -0.00, -1.00, 230.7, 248.2)">l</text><text xml:space="preserve" font-family="AvenirNext-Regular,Avenir Next" font-size="36.0" fill="#404040" transform="matrix(1.00, 0.00, -0.00, -1.00, 239.8, 248.2)">a</text><text xml:space="preserve" font-family="AvenirNext-Regular,Avenir Next" font-size="36.0" fill="#404040" transform="matrix(1.00, 0.00, -0.00, -1.00, 259.0, 248.2)">ç</text><text xml:space="preserve" font-family="AvenirNext-Regular,Avenir Next" font-size="36.0" fill="#404040" transform="matrix(1.00, 0.00, -0.00, -1.00, 277.0, 248.2)">ã</text><text xml:space="preserve" font-family="AvenirNext-Regular,Avenir Next" font-size="36.0" fill="#404040" transform="matrix(1.00, 0.00, -0.00, -1.00, 296.2, 248.2)">o</text><text xml:space="preserve" font-family="AvenirNext-Regular,Avenir Next" font-size="36.0" fill="#404040" transform="matrix(1.00, 0.00, -0.00, -1.00, 318.2, 248.2)"> </text><text xml:space="preserve" font-family="AvenirNext-Regular,Avenir Next" font-size="36.0" fill="#404040" transform="matrix(1.00, 0.00, -0.00, -1.00, 327.2, 248.2)">e</text><text xml:space="preserve" font-family="AvenirNext-Regular,Avenir Next" font-size="36.0" fill="#404040" transform="matrix(1.00, 0.00, -0.00, -1.00, 347.8, 248.2)">n</text><text xml:space="preserve" font-family="AvenirNext-Regular,Avenir Next" font-size="36.0" fill="#404040" transform="matrix(1.00, 0.00, -0.00, -1.00, 368.7, 248.2)">t</text><text xml:space="preserve" font-family="AvenirNext-Regular,Avenir Next" font-size="36.0" fill="#404040" transform="matrix(1.00, 0.00, -0.00, -1.00, 380.1, 248.2)">r</text><text xml:space="preserve" font-family="AvenirNext-Regular,Avenir Next" font-size="36.0" fill="#404040" transform="matrix(1.00, 0.00, -0.00, -1.00, 392.4, 248.2)">e</text><text xml:space="preserve" font-family="AvenirNext-Regular,Avenir Next" font-size="36.0" fill="#404040" transform="matrix(1.00, 0.00, -0.00, -1.00, 413.0, 248.2)"> </text><text xml:space="preserve" font-family="AvenirNext-Regular,Avenir Next" font-size="36.0" fill="#404040" transform="matrix(1.00, 0.00, -0.00, -1.00, 422.0, 248.2)">a</text><text xml:space="preserve" font-family="AvenirNext-Regular,Avenir Next" font-size="36.0" fill="#404040" transform="matrix(1.00, 0.00, -0.00, -1.00, 441.3, 248.2)"> </text><text xml:space="preserve" font-family="AvenirNext-Regular,Avenir Next" font-size="36.0" fill="#404040" transform="matrix(1.00, 0.00, -0.00, -1.00, 450.3, 248.2)">r</text><text xml:space="preserve" font-family="AvenirNext-Regular,Avenir Next" font-size="36.0" fill="#404040" transform="matrix(1.00, 0.00, -0.00, -1.00, 462.6, 248.2)">e</text><text xml:space="preserve" font-family="AvenirNext-Regular,Avenir Next" font-size="36.0" fill="#404040" transform="matrix(1.00, 0.00, -0.00, -1.00, 483.2, 248.2)">d</text><text xml:space="preserve" font-family="AvenirNext-Regular,Avenir Next" font-size="36.0" fill="#404040" transform="matrix(1.00, 0.00, -0.00, -1.00, 506.1, 248.2)">u</text><text xml:space="preserve" font-family="AvenirNext-Regular,Avenir Next" font-size="36.0" fill="#404040" transform="matrix(1.00, 0.00, -0.00, -1.00, 527.0, 248.2)">ç</text><text xml:space="preserve" font-family="AvenirNext-Regular,Avenir Next" font-size="36.0" fill="#404040" transform="matrix(1.00, 0.00, -0.00, -1.00, 545.0, 248.2)">ã</text><text xml:space="preserve" font-family="AvenirNext-Regular,Avenir Next" font-size="36.0" fill="#404040" transform="matrix(1.00, 0.00, -0.00, -1.00, 564.2, 248.2)">o</text><text xml:space="preserve" font-family="AvenirNext-Regular,Avenir Next" font-size="36.0" fill="#404040" transform="matrix(1.00, 0.00, -0.00, -1.00, 586.2, 248.2)"> </text><text xml:space="preserve" font-family="AvenirNext-Regular,Avenir Next" font-size="36.0" fill="#404040" transform="matrix(1.00, 0.00, -0.00, -1.00, 595.2, 248.2)">d</text><text xml:space="preserve" font-family="AvenirNext-Regular,Avenir Next" font-size="36.0" fill="#404040" transform="matrix(1.00, 0.00, -0.00, -1.00, 618.2, 248.2)">e</text><text xml:space="preserve" font-family="AvenirNext-Regular,Avenir Next" font-size="36.0" fill="#404040" transform="matrix(1.00, 0.00, -0.00, -1.00, 638.7, 248.2)"> </text><text xml:space="preserve" font-family="AvenirNext-Regular,Avenir Next" font-size="36.0" fill="#404040" transform="matrix(1.00, 0.00, -0.00, -1.00, 647.7, 248.2)">c</text><text xml:space="preserve" font-family="AvenirNext-Regular,Avenir Next" font-size="36.0" fill="#404040" transform="matrix(1.00, 0.00, -0.00, -1.00, 665.7, 248.2)">o</text><text xml:space="preserve" font-family="AvenirNext-Regular,Avenir Next" font-size="36.0" fill="#404040" transform="matrix(1.00, 0.00, -0.00, -1.00, 687.7, 248.2)">m</text><text xml:space="preserve" font-family="AvenirNext-Regular,Avenir Next" font-size="36.0" fill="#404040" transform="matrix(1.00, 0.00, -0.00, -1.00, 719.5, 248.2)">p</text><text xml:space="preserve" font-family="AvenirNext-Regular,Avenir Next" font-size="36.0" fill="#404040" transform="matrix(1.00, 0.00, -0.00, -1.00, 742.4, 248.2)">l</text><text xml:space="preserve" font-family="AvenirNext-Regular,Avenir Next" font-size="36.0" fill="#404040" transform="matrix(1.00, 0.00, -0.00, -1.00, 751.5, 248.2)">e</text><text xml:space="preserve" font-family="AvenirNext-Regular,Avenir Next" font-size="36.0" fill="#404040" transform="matrix(1.00, 0.00, -0.00, -1.00, 771.8, 248.2)">x</text><text xml:space="preserve" font-family="AvenirNext-Regular,Avenir Next" font-size="36.0" fill="#404040" transform="matrix(1.00, 0.00, -0.00, -1.00, 789.3, 248.2)">i</text><text xml:space="preserve" font-family="AvenirNext-Regular,Avenir Next" font-size="36.0" fill="#404040" transform="matrix(1.00, 0.00, -0.00, -1.00, 798.3, 248.2)">d</text><text xml:space="preserve" font-family="AvenirNext-Regular,Avenir Next" font-size="36.0" fill="#404040" transform="matrix(1.00, 0.00, -0.00, -1.00, 821.2, 248.2)">a</text><text xml:space="preserve" font-family="AvenirNext-Regular,Avenir Next" font-size="36.0" fill="#404040" transform="matrix(1.00, 0.00, -0.00, -1.00, 840.4, 248.2)">d</text><text xml:space="preserve" font-family="AvenirNext-Regular,Avenir Next" font-size="36.0" fill="#404040" transform="matrix(1.00, 0.00, -0.00, -1.00, 863.4, 248.2)">e</text><text xml:space="preserve" font-family="AvenirNext-Regular,Avenir Next" font-size="36.0" fill="#404040" transform="matrix(1.00, 0.00, -0.00, -1.00, 883.9, 248.2)"> </text><text xml:space="preserve" font-family="AvenirNext-Regular,Avenir Next" font-size="36.0" fill="#404040" transform="matrix(1.00, 0.00, -0.00, -1.00, 892.9, 248.2)">e</text><text xml:space="preserve" font-family="AvenirNext-Regular,Avenir Next" font-size="36.0" fill="#404040" transform="matrix(1.00, 0.00, -0.00, -1.00, 913.5, 248.2)"> </text><text xml:space="preserve" font-family="AvenirNext-Regular,Avenir Next" font-size="36.0" fill="#404040" transform="matrix(1.00, 0.00, -0.00, -1.00, 922.5, 248.2)">a</text><text xml:space="preserve" font-family="AvenirNext-Regular,Avenir Next" font-size="36.0" fill="#404040" transform="matrix(1.00, 0.00, -0.00, -1.00, 941.8, 248.2)"> </text><text xml:space="preserve" font-family="AvenirNext-Regular,Avenir Next" font-size="36.0" fill="#404040" transform="matrix(1.00, 0.00, -0.00, -1.00, 81.0, 199.2)">p</text><text xml:space="preserve" font-family="AvenirNext-Regular,Avenir Next" font-size="36.0" fill="#404040" transform="matrix(1.00, 0.00, -0.00, -1.00, 103.9, 199.2)">e</text><text xml:space="preserve" font-family="AvenirNext-Regular,Avenir Next" font-size="36.0" fill="#404040" transform="matrix(1.00, 0.00, -0.00, -1.00, 124.5, 199.2)">r</text><text xml:space="preserve" font-family="AvenirNext-Regular,Avenir Next" font-size="36.0" fill="#404040" transform="matrix(1.00, 0.00, -0.00, -1.00, 136.8, 199.2)">d</text><text xml:space="preserve" font-family="AvenirNext-Regular,Avenir Next" font-size="36.0" fill="#404040" transform="matrix(1.00, 0.00, -0.00, -1.00, 159.7, 199.2)">a</text><text xml:space="preserve" font-family="AvenirNext-Regular,Avenir Next" font-size="36.0" fill="#404040" transform="matrix(1.00, 0.00, -0.00, -1.00, 178.9, 199.2)"> </text><text xml:space="preserve" font-family="AvenirNext-Regular,Avenir Next" font-size="36.0" fill="#404040" transform="matrix(1.00, 0.00, -0.00, -1.00, 187.9, 199.2)">d</text><text xml:space="preserve" font-family="AvenirNext-Regular,Avenir Next" font-size="36.0" fill="#404040" transform="matrix(1.00, 0.00, -0.00, -1.00, 210.9, 199.2)">e</text><text xml:space="preserve" font-family="AvenirNext-Regular,Avenir Next" font-size="36.0" fill="#404040" transform="matrix(1.00, 0.00, -0.00, -1.00, 231.4, 199.2)"> </text><text xml:space="preserve" font-family="AvenirNext-Regular,Avenir Next" font-size="36.0" fill="#404040" transform="matrix(1.00, 0.00, -0.00, -1.00, 240.4, 199.2)">a</text><text xml:space="preserve" font-family="AvenirNext-Regular,Avenir Next" font-size="36.0" fill="#404040" transform="matrix(1.00, 0.00, -0.00, -1.00, 259.7, 199.2)">c</text><text xml:space="preserve" font-family="AvenirNext-Regular,Avenir Next" font-size="36.0" fill="#404040" transform="matrix(1.00, 0.00, -0.00, -1.00, 277.7, 199.2)">u</text><text xml:space="preserve" font-family="AvenirNext-Regular,Avenir Next" font-size="36.0" fill="#404040" transform="matrix(1.00, 0.00, -0.00, -1.00, 298.6, 199.2)">r</text><text xml:space="preserve" font-family="AvenirNext-Regular,Avenir Next" font-size="36.0" fill="#404040" transform="matrix(1.00, 0.00, -0.00, -1.00, 311.1, 199.2)">á</text><text xml:space="preserve" font-family="AvenirNext-Regular,Avenir Next" font-size="36.0" fill="#404040" transform="matrix(1.00, 0.00, -0.00, -1.00, 330.3, 199.2)">c</text><text xml:space="preserve" font-family="AvenirNext-Regular,Avenir Next" font-size="36.0" fill="#404040" transform="matrix(1.00, 0.00, -0.00, -1.00, 348.3, 199.2)">i</text><text xml:space="preserve" font-family="AvenirNext-Regular,Avenir Next" font-size="36.0" fill="#404040" transform="matrix(1.00, 0.00, -0.00, -1.00, 357.3, 199.2)">a</text><text xml:space="preserve" font-family="AvenirNext-Regular,Avenir Next" font-size="36.0" fill="#404040" transform="matrix(1.00, 0.00, -0.00, -1.00, 376.6, 199.2)"> </text><text xml:space="preserve" font-family="AvenirNext-Regular,Avenir Next" font-size="36.0" fill="#404040" transform="matrix(1.00, 0.00, -0.00, -1.00, 385.6, 199.2)">d</text><text xml:space="preserve" font-family="AvenirNext-Regular,Avenir Next" font-size="36.0" fill="#404040" transform="matrix(1.00, 0.00, -0.00, -1.00, 408.5, 199.2)">o</text><text xml:space="preserve" font-family="AvenirNext-Regular,Avenir Next" font-size="36.0" fill="#404040" transform="matrix(1.00, 0.00, -0.00, -1.00, 430.5, 199.2)">s</text><text xml:space="preserve" font-family="AvenirNext-Regular,Avenir Next" font-size="36.0" fill="#404040" transform="matrix(1.00, 0.00, -0.00, -1.00, 446.5, 199.2)"> </text><text xml:space="preserve" font-family="AvenirNext-Regular,Avenir Next" font-size="36.0" fill="#404040" transform="matrix(1.00, 0.00, -0.00, -1.00, 455.5, 199.2)">m</text><text xml:space="preserve" font-family="AvenirNext-Regular,Avenir Next" font-size="36.0" fill="#404040" transform="matrix(1.00, 0.00, -0.00, -1.00, 487.3, 199.2)">o</text><text xml:space="preserve" font-family="AvenirNext-Regular,Avenir Next" font-size="36.0" fill="#404040" transform="matrix(1.00, 0.00, -0.00, -1.00, 509.3, 199.2)">d</text><text xml:space="preserve" font-family="AvenirNext-Regular,Avenir Next" font-size="36.0" fill="#404040" transform="matrix(1.00, 0.00, -0.00, -1.00, 532.2, 199.2)">e</text><text xml:space="preserve" font-family="AvenirNext-Regular,Avenir Next" font-size="36.0" fill="#404040" transform="matrix(1.00, 0.00, -0.00, -1.00, 552.8, 199.2)">l</text><text xml:space="preserve" font-family="AvenirNext-Regular,Avenir Next" font-size="36.0" fill="#404040" transform="matrix(1.00, 0.00, -0.00, -1.00, 561.9, 199.2)">o</text><text xml:space="preserve" font-family="AvenirNext-Regular,Avenir Next" font-size="36.0" fill="#404040" transform="matrix(1.00, 0.00, -0.00, -1.00, 583.8, 199.2)">s</text><text xml:space="preserve" font-family="AvenirNext-Regular,Avenir Next" font-size="36.0" fill="#404040" transform="matrix(1.00, 0.00, -0.00, -1.00, 599.8, 199.2)"> </text><text xml:space="preserve" font-family="AvenirNext-Regular,Avenir Next" font-size="36.0" fill="#404040" transform="matrix(1.00, 0.00, -0.00, -1.00, 608.8, 199.2)">g</text><text xml:space="preserve" font-family="AvenirNext-Regular,Avenir Next" font-size="36.0" fill="#404040" transform="matrix(1.00, 0.00, -0.00, -1.00, 631.6, 199.2)">e</text><text xml:space="preserve" font-family="AvenirNext-Regular,Avenir Next" font-size="36.0" fill="#404040" transform="matrix(1.00, 0.00, -0.00, -1.00, 652.2, 199.2)">r</text><text xml:space="preserve" font-family="AvenirNext-Regular,Avenir Next" font-size="36.0" fill="#404040" transform="matrix(1.00, 0.00, -0.00, -1.00, 664.7, 199.2)">a</text><text xml:space="preserve" font-family="AvenirNext-Regular,Avenir Next" font-size="36.0" fill="#404040" transform="matrix(1.00, 0.00, -0.00, -1.00, 683.9, 199.2)">d</text><text xml:space="preserve" font-family="AvenirNext-Regular,Avenir Next" font-size="36.0" fill="#404040" transform="matrix(1.00, 0.00, -0.00, -1.00, 706.9, 199.2)">o</text><text xml:space="preserve" font-family="AvenirNext-Regular,Avenir Next" font-size="36.0" fill="#404040" transform="matrix(1.00, 0.00, -0.00, -1.00, 728.9, 199.2)">s</text><text xml:space="preserve" font-family="AvenirNext-Regular,Avenir Next" font-size="36.0" fill="#404040" transform="matrix(1.00, 0.00, -0.00, -1.00, 744.8, 199.2)">?</text></g></svg>