<?xml version="1.0" encoding="UTF-8" standalone="no"?><svg xmlns="http://www.w3.org/2000/svg" xmlns:xlink="http://www.w3.org/1999/xlink" clip-rule="evenodd" stroke-miterlimit="10" viewBox="0 0 1024 768"><desc>SVG generated by Keynote</desc><defs></defs><g transform="matrix(1.00, 0.00, -0.00, -1.00, 0.0, 768.0)"><g><clipPath id="clip0x600005ab4520"><path d="M 0.0 768.0 L 1024.0 768.0 L 1024.0 0.0 L 0.0 0.0 Z M 0.0 768.0 "></path></clipPath><g clip-path="url(#clip0x600005ab4520)"><image xlink:href="../../62A57402-F52E-4D18-8FC0-8772A6409873/assets/5A8C990C4A4597A5304AC9F14CDA7C87.jpeg" width="2048.00" height="1536.00" transform="matrix(0.50, 0.00, -0.00, -0.50, 0.0, 768.0)"></image></g></g><g opacity="0.30"><g><clipPath id="clip0x608005eb22a0"><path d="M 39.0 595.0 L 986.0 595.0 L 986.0 599.0 L 39.0 599.0 Z M 39.0 595.0 "></path></clipPath><g clip-path="url(#clip0x608005eb22a0)"><path d="M 0.0 0.5 L 944.7 0.5 L 944.7 0.5 L 0.0 0.5 Z M 0.0 0.0 " fill="none" stroke="#434343" stroke-width="1.00" transform="matrix(1.00, 0.00, 0.00, -1.00, 40.0, 597.0)"></path></g></g></g><g opacity="0.30"><g><clipPath id="clip0x608005eb28a0"><path d="M 39.0 716.0 L 986.0 716.0 L 986.0 720.0 L 39.0 720.0 Z M 39.0 716.0 "></path></clipPath><g clip-path="url(#clip0x608005eb28a0)"><path d="M 0.0 0.5 L 944.7 0.5 L 944.7 0.5 L 0.0 0.5 Z M 0.0 0.0 " fill="none" stroke="#434343" stroke-width="1.00" transform="matrix(1.00, 0.00, 0.00, -1.00, 40.0, 718.0)"></path></g></g></g><text xml:space="preserve" font-family="AvenirNext-Regular,Avenir Next" font-size="61.6" fill="#D93D2A" transform="matrix(1.00, 0.00, -0.00, -1.00, 44.9, 363.5)">A</text><text xml:space="preserve" font-family="AvenirNext-Regular,Avenir Next" font-size="61.6" fill="#D93D2A" transform="matrix(1.00, 0.00, -0.00, -1.00, 88.1, 363.5)">n</text><text xml:space="preserve" font-family="AvenirNext-Regular,Avenir Next" font-size="61.6" fill="#D93D2A" transform="matrix(1.00, 0.00, -0.00, -1.00, 123.9, 363.5)">á</text><text xml:space="preserve" font-family="AvenirNext-Regular,Avenir Next" font-size="61.6" fill="#D93D2A" transform="matrix(1.00, 0.00, -0.00, -1.00, 156.8, 363.5)">l</text><text xml:space="preserve" font-family="AvenirNext-Regular,Avenir Next" font-size="61.6" fill="#D93D2A" transform="matrix(1.00, 0.00, -0.00, -1.00, 172.3, 363.5)">i</text><text xml:space="preserve" font-family="AvenirNext-Regular,Avenir Next" font-size="61.6" fill="#D93D2A" transform="matrix(1.00, 0.00, -0.00, -1.00, 187.7, 363.5)">s</text><text xml:space="preserve" font-family="AvenirNext-Regular,Avenir Next" font-size="61.6" fill="#D93D2A" transform="matrix(1.00, 0.00, -0.00, -1.00, 215.0, 363.5)">e</text><text xml:space="preserve" font-family="AvenirNext-Regular,Avenir Next" font-size="61.6" fill="#D93D2A" transform="matrix(1.00, 0.00, -0.00, -1.00, 250.3, 363.5)"> </text><text xml:space="preserve" font-family="AvenirNext-Regular,Avenir Next" font-size="61.6" fill="#D93D2A" transform="matrix(1.00, 0.00, -0.00, -1.00, 265.7, 363.5)">d</text><text xml:space="preserve" font-family="AvenirNext-Regular,Avenir Next" font-size="61.6" fill="#D93D2A" transform="matrix(1.00, 0.00, -0.00, -1.00, 304.9, 363.5)">o</text><text xml:space="preserve" font-family="AvenirNext-Regular,Avenir Next" font-size="61.6" fill="#D93D2A" transform="matrix(1.00, 0.00, -0.00, -1.00, 342.5, 363.5)"> </text><text xml:space="preserve" font-family="AvenirNext-Regular,Avenir Next" font-size="61.6" fill="#D93D2A" transform="matrix(1.00, 0.00, -0.00, -1.00, 357.9, 363.5)">C</text><text xml:space="preserve" font-family="AvenirNext-Regular,Avenir Next" font-size="61.6" fill="#D93D2A" transform="matrix(1.00, 0.00, -0.00, -1.00, 402.3, 363.5)">l</text><text xml:space="preserve" font-family="AvenirNext-Regular,Avenir Next" font-size="61.6" fill="#D93D2A" transform="matrix(1.00, 0.00, -0.00, -1.00, 417.8, 363.5)">a</text><text xml:space="preserve" font-family="AvenirNext-Regular,Avenir Next" font-size="61.6" fill="#D93D2A" transform="matrix(1.00, 0.00, -0.00, -1.00, 450.7, 363.5)">s</text><text xml:space="preserve" font-family="AvenirNext-Regular,Avenir Next" font-size="61.6" fill="#D93D2A" transform="matrix(1.00, 0.00, -0.00, -1.00, 478.1, 363.5)">s</text><text xml:space="preserve" font-family="AvenirNext-Regular,Avenir Next" font-size="61.6" fill="#D93D2A" transform="matrix(1.00, 0.00, -0.00, -1.00, 505.4, 363.5)">i</text><text xml:space="preserve" font-family="AvenirNext-Regular,Avenir Next" font-size="61.6" fill="#D93D2A" transform="matrix(1.00, 0.00, -0.00, -1.00, 520.8, 363.5)">ﬁ</text><text xml:space="preserve" font-family="AvenirNext-Regular,Avenir Next" font-size="61.6" fill="#D93D2A" transform="matrix(1.00, 0.00, -0.00, -1.00, 554.3, 363.5)">c</text><text xml:space="preserve" font-family="AvenirNext-Regular,Avenir Next" font-size="61.6" fill="#D93D2A" transform="matrix(1.00, 0.00, -0.00, -1.00, 585.1, 363.5)">a</text><text xml:space="preserve" font-family="AvenirNext-Regular,Avenir Next" font-size="61.6" fill="#D93D2A" transform="matrix(1.00, 0.00, -0.00, -1.00, 618.0, 363.5)">d</text><text xml:space="preserve" font-family="AvenirNext-Regular,Avenir Next" font-size="61.6" fill="#D93D2A" transform="matrix(1.00, 0.00, -0.00, -1.00, 657.3, 363.5)">o</text><text xml:space="preserve" font-family="AvenirNext-Regular,Avenir Next" font-size="61.6" fill="#D93D2A" transform="matrix(1.00, 0.00, -0.00, -1.00, 694.9, 363.5)">r</text><text xml:space="preserve" font-family="AvenirNext-Regular,Avenir Next" font-size="61.6" fill="#D93D2A" transform="matrix(1.00, 0.00, -0.00, -1.00, 717.1, 363.5)"> </text><text xml:space="preserve" font-family="AvenirNext-Regular,Avenir Next" font-size="61.6" fill="#D93D2A" transform="matrix(1.00, 0.00, -0.00, -1.00, 732.5, 363.5)">U</text><text xml:space="preserve" font-family="AvenirNext-Regular,Avenir Next" font-size="61.6" fill="#D93D2A" transform="matrix(1.00, 0.00, -0.00, -1.00, 776.2, 363.5)">t</text><text xml:space="preserve" font-family="AvenirNext-Regular,Avenir Next" font-size="61.6" fill="#D93D2A" transform="matrix(1.00, 0.00, -0.00, -1.00, 795.7, 363.5)">i</text><text xml:space="preserve" font-family="AvenirNext-Regular,Avenir Next" font-size="61.6" fill="#D93D2A" transform="matrix(1.00, 0.00, -0.00, -1.00, 811.1, 363.5)">l</text><text xml:space="preserve" font-family="AvenirNext-Regular,Avenir Next" font-size="61.6" fill="#D93D2A" transform="matrix(1.00, 0.00, -0.00, -1.00, 826.7, 363.5)">i</text><text xml:space="preserve" font-family="AvenirNext-Regular,Avenir Next" font-size="61.6" fill="#D93D2A" transform="matrix(1.00, 0.00, -0.00, -1.00, 842.1, 363.5)">z</text><text xml:space="preserve" font-family="AvenirNext-Regular,Avenir Next" font-size="61.6" fill="#D93D2A" transform="matrix(1.00, 0.00, -0.00, -1.00, 869.3, 363.5)">a</text><text xml:space="preserve" font-family="AvenirNext-Regular,Avenir Next" font-size="61.6" fill="#D93D2A" transform="matrix(1.00, 0.00, -0.00, -1.00, 902.2, 363.5)">d</text><text xml:space="preserve" font-family="AvenirNext-Regular,Avenir Next" font-size="61.6" fill="#D93D2A" transform="matrix(1.00, 0.00, -0.00, -1.00, 941.4, 363.5)">o</text></g></svg>