<?xml version="1.0" encoding="UTF-8" standalone="no"?><svg xmlns="http://www.w3.org/2000/svg" xmlns:xlink="http://www.w3.org/1999/xlink" clip-rule="evenodd" stroke-miterlimit="10" viewBox="0 0 1024 768"><desc>SVG generated by Keynote</desc><defs></defs><g transform="matrix(1.00, 0.00, -0.00, -1.00, 0.0, 768.0)"><g><clipPath id="clip0x6080064b87e0"><path d="M 0.0 768.0 L 1024.0 768.0 L 1024.0 0.0 L 0.0 0.0 Z M 0.0 768.0 "></path></clipPath><g clip-path="url(#clip0x6080064b87e0)"><image xlink:href="../../62A57402-F52E-4D18-8FC0-8772A6409873/assets/5A8C990C4A4597A5304AC9F14CDA7C87.jpeg" width="2048.00" height="1536.00" transform="matrix(0.50, 0.00, -0.00, -0.50, 0.0, 768.0)"></image></g></g><g opacity="0.30"><g><clipPath id="clip0x6000062b3260"><path d="M 39.0 595.0 L 986.0 595.0 L 986.0 599.0 L 39.0 599.0 Z M 39.0 595.0 "></path></clipPath><g clip-path="url(#clip0x6000062b3260)"><path d="M 0.0 0.5 L 944.7 0.5 L 944.7 0.5 L 0.0 0.5 Z M 0.0 0.0 " fill="none" stroke="#434343" stroke-width="1.00" transform="matrix(1.00, 0.00, 0.00, -1.00, 40.0, 597.0)"></path></g></g></g><g opacity="0.30"><g><clipPath id="clip0x6000062b34a0"><path d="M 39.0 716.0 L 986.0 716.0 L 986.0 720.0 L 39.0 720.0 Z M 39.0 716.0 "></path></clipPath><g clip-path="url(#clip0x6000062b34a0)"><path d="M 0.0 0.5 L 944.7 0.5 L 944.7 0.5 L 0.0 0.5 Z M 0.0 0.0 " fill="none" stroke="#434343" stroke-width="1.00" transform="matrix(1.00, 0.00, 0.00, -1.00, 40.0, 718.0)"></path></g></g></g><text xml:space="preserve" font-family="AvenirNext-Regular,Avenir Next" font-size="64.4" fill="#D93D2A" transform="matrix(1.00, 0.00, -0.00, -1.00, 105.2, 636.6)">A</text><text xml:space="preserve" font-family="AvenirNext-Regular,Avenir Next" font-size="64.4" fill="#D93D2A" transform="matrix(1.00, 0.00, -0.00, -1.00, 149.9, 636.6)">v</text><text xml:space="preserve" font-family="AvenirNext-Regular,Avenir Next" font-size="64.4" fill="#D93D2A" transform="matrix(1.00, 0.00, -0.00, -1.00, 181.3, 636.6)">a</text><text xml:space="preserve" font-family="AvenirNext-Regular,Avenir Next" font-size="64.4" fill="#D93D2A" transform="matrix(1.00, 0.00, -0.00, -1.00, 215.7, 636.6)">l</text><text xml:space="preserve" font-family="AvenirNext-Regular,Avenir Next" font-size="64.4" fill="#D93D2A" transform="matrix(1.00, 0.00, -0.00, -1.00, 231.9, 636.6)">i</text><text xml:space="preserve" font-family="AvenirNext-Regular,Avenir Next" font-size="64.4" fill="#D93D2A" transform="matrix(1.00, 0.00, -0.00, -1.00, 248.0, 636.6)">a</text><text xml:space="preserve" font-family="AvenirNext-Regular,Avenir Next" font-size="64.4" fill="#D93D2A" transform="matrix(1.00, 0.00, -0.00, -1.00, 282.4, 636.6)">ç</text><text xml:space="preserve" font-family="AvenirNext-Regular,Avenir Next" font-size="64.4" fill="#D93D2A" transform="matrix(1.00, 0.00, -0.00, -1.00, 314.6, 636.6)">ã</text><text xml:space="preserve" font-family="AvenirNext-Regular,Avenir Next" font-size="64.4" fill="#D93D2A" transform="matrix(1.00, 0.00, -0.00, -1.00, 349.0, 636.6)">o</text><text xml:space="preserve" font-family="AvenirNext-Regular,Avenir Next" font-size="64.4" fill="#D93D2A" transform="matrix(1.00, 0.00, -0.00, -1.00, 388.4, 636.6)"> </text><text xml:space="preserve" font-family="AvenirNext-Regular,Avenir Next" font-size="64.4" fill="#D93D2A" transform="matrix(1.00, 0.00, -0.00, -1.00, 404.5, 636.6)">M</text><text xml:space="preserve" font-family="AvenirNext-Regular,Avenir Next" font-size="64.4" fill="#D93D2A" transform="matrix(1.00, 0.00, -0.00, -1.00, 461.5, 636.6)">é</text><text xml:space="preserve" font-family="AvenirNext-Regular,Avenir Next" font-size="64.4" fill="#D93D2A" transform="matrix(1.00, 0.00, -0.00, -1.00, 498.3, 636.6)">t</text><text xml:space="preserve" font-family="AvenirNext-Regular,Avenir Next" font-size="64.4" fill="#D93D2A" transform="matrix(1.00, 0.00, -0.00, -1.00, 518.8, 636.6)">o</text><text xml:space="preserve" font-family="AvenirNext-Regular,Avenir Next" font-size="64.4" fill="#D93D2A" transform="matrix(1.00, 0.00, -0.00, -1.00, 558.1, 636.6)">d</text><text xml:space="preserve" font-family="AvenirNext-Regular,Avenir Next" font-size="64.4" fill="#D93D2A" transform="matrix(1.00, 0.00, -0.00, -1.00, 599.1, 636.6)">o</text><text xml:space="preserve" font-family="AvenirNext-Regular,Avenir Next" font-size="64.4" fill="#D93D2A" transform="matrix(1.00, 0.00, -0.00, -1.00, 638.5, 636.6)"> </text><text xml:space="preserve" font-family="AvenirNext-Regular,Avenir Next" font-size="64.4" fill="#D93D2A" transform="matrix(1.00, 0.00, -0.00, -1.00, 654.6, 636.6)">P</text><text xml:space="preserve" font-family="AvenirNext-Regular,Avenir Next" font-size="64.4" fill="#D93D2A" transform="matrix(1.00, 0.00, -0.00, -1.00, 688.8, 636.6)">r</text><text xml:space="preserve" font-family="AvenirNext-Regular,Avenir Next" font-size="64.4" fill="#D93D2A" transform="matrix(1.00, 0.00, -0.00, -1.00, 710.9, 636.6)">o</text><text xml:space="preserve" font-family="AvenirNext-Regular,Avenir Next" font-size="64.4" fill="#D93D2A" transform="matrix(1.00, 0.00, -0.00, -1.00, 750.2, 636.6)">p</text><text xml:space="preserve" font-family="AvenirNext-Regular,Avenir Next" font-size="64.4" fill="#D93D2A" transform="matrix(1.00, 0.00, -0.00, -1.00, 791.1, 636.6)">o</text><text xml:space="preserve" font-family="AvenirNext-Regular,Avenir Next" font-size="64.4" fill="#D93D2A" transform="matrix(1.00, 0.00, -0.00, -1.00, 830.5, 636.6)">s</text><text xml:space="preserve" font-family="AvenirNext-Regular,Avenir Next" font-size="64.4" fill="#D93D2A" transform="matrix(1.00, 0.00, -0.00, -1.00, 859.1, 636.6)">t</text><text xml:space="preserve" font-family="AvenirNext-Regular,Avenir Next" font-size="64.4" fill="#D93D2A" transform="matrix(1.00, 0.00, -0.00, -1.00, 879.5, 636.6)">o</text><text xml:space="preserve" font-family="ZapfDingbatsITC,Zapf Dingbats" font-size="21.6" fill="#919191" transform="matrix(1.00, 0.00, -0.00, -1.00, 44.0, 398.3)">❖</text><text xml:space="preserve" font-family="AvenirNext-Regular,Avenir Next" font-size="36.0" fill="#404040" transform="matrix(1.00, 0.00, -0.00, -1.00, 81.0, 395.2)">V</text><text xml:space="preserve" font-family="AvenirNext-Regular,Avenir Next" font-size="36.0" fill="#404040" transform="matrix(1.00, 0.00, -0.00, -1.00, 101.9, 395.2)">a</text><text xml:space="preserve" font-family="AvenirNext-Regular,Avenir Next" font-size="36.0" fill="#404040" transform="matrix(1.00, 0.00, -0.00, -1.00, 121.1, 395.2)">r</text><text xml:space="preserve" font-family="AvenirNext-Regular,Avenir Next" font-size="36.0" fill="#404040" transform="matrix(1.00, 0.00, -0.00, -1.00, 134.1, 395.2)">i</text><text xml:space="preserve" font-family="AvenirNext-Regular,Avenir Next" font-size="36.0" fill="#404040" transform="matrix(1.00, 0.00, -0.00, -1.00, 143.1, 395.2)">a</text><text xml:space="preserve" font-family="AvenirNext-Regular,Avenir Next" font-size="36.0" fill="#404040" transform="matrix(1.00, 0.00, -0.00, -1.00, 162.3, 395.2)">b</text><text xml:space="preserve" font-family="AvenirNext-Regular,Avenir Next" font-size="36.0" fill="#404040" transform="matrix(1.00, 0.00, -0.00, -1.00, 185.3, 395.2)">i</text><text xml:space="preserve" font-family="AvenirNext-Regular,Avenir Next" font-size="36.0" fill="#404040" transform="matrix(1.00, 0.00, -0.00, -1.00, 194.3, 395.2)">l</text><text xml:space="preserve" font-family="AvenirNext-Regular,Avenir Next" font-size="36.0" fill="#404040" transform="matrix(1.00, 0.00, -0.00, -1.00, 203.3, 395.2)">i</text><text xml:space="preserve" font-family="AvenirNext-Regular,Avenir Next" font-size="36.0" fill="#404040" transform="matrix(1.00, 0.00, -0.00, -1.00, 212.3, 395.2)">d</text><text xml:space="preserve" font-family="AvenirNext-Regular,Avenir Next" font-size="36.0" fill="#404040" transform="matrix(1.00, 0.00, -0.00, -1.00, 235.3, 395.2)">a</text><text xml:space="preserve" font-family="AvenirNext-Regular,Avenir Next" font-size="36.0" fill="#404040" transform="matrix(1.00, 0.00, -0.00, -1.00, 254.5, 395.2)">d</text><text xml:space="preserve" font-family="AvenirNext-Regular,Avenir Next" font-size="36.0" fill="#404040" transform="matrix(1.00, 0.00, -0.00, -1.00, 277.4, 395.2)">e</text><text xml:space="preserve" font-family="AvenirNext-Regular,Avenir Next" font-size="36.0" fill="#404040" transform="matrix(1.00, 0.00, -0.00, -1.00, 298.0, 395.2)"> </text><text xml:space="preserve" font-family="AvenirNext-Regular,Avenir Next" font-size="36.0" fill="#404040" transform="matrix(1.00, 0.00, -0.00, -1.00, 307.0, 395.2)">d</text><text xml:space="preserve" font-family="AvenirNext-Regular,Avenir Next" font-size="36.0" fill="#404040" transform="matrix(1.00, 0.00, -0.00, -1.00, 329.9, 395.2)">o</text><text xml:space="preserve" font-family="AvenirNext-Regular,Avenir Next" font-size="36.0" fill="#404040" transform="matrix(1.00, 0.00, -0.00, -1.00, 351.9, 395.2)">s</text><text xml:space="preserve" font-family="AvenirNext-Regular,Avenir Next" font-size="36.0" fill="#404040" transform="matrix(1.00, 0.00, -0.00, -1.00, 367.9, 395.2)"> </text><text xml:space="preserve" font-family="AvenirNext-Regular,Avenir Next" font-size="36.0" fill="#404040" transform="matrix(1.00, 0.00, -0.00, -1.00, 376.9, 395.2)">r</text><text xml:space="preserve" font-family="AvenirNext-Regular,Avenir Next" font-size="36.0" fill="#404040" transform="matrix(1.00, 0.00, -0.00, -1.00, 389.2, 395.2)">e</text><text xml:space="preserve" font-family="AvenirNext-Regular,Avenir Next" font-size="36.0" fill="#404040" transform="matrix(1.00, 0.00, -0.00, -1.00, 409.8, 395.2)">s</text><text xml:space="preserve" font-family="AvenirNext-Regular,Avenir Next" font-size="36.0" fill="#404040" transform="matrix(1.00, 0.00, -0.00, -1.00, 425.8, 395.2)">u</text><text xml:space="preserve" font-family="AvenirNext-Regular,Avenir Next" font-size="36.0" fill="#404040" transform="matrix(1.00, 0.00, -0.00, -1.00, 446.7, 395.2)">l</text><text xml:space="preserve" font-family="AvenirNext-Regular,Avenir Next" font-size="36.0" fill="#404040" transform="matrix(1.00, 0.00, -0.00, -1.00, 455.8, 395.2)">t</text><text xml:space="preserve" font-family="AvenirNext-Regular,Avenir Next" font-size="36.0" fill="#404040" transform="matrix(1.00, 0.00, -0.00, -1.00, 467.2, 395.2)">a</text><text xml:space="preserve" font-family="AvenirNext-Regular,Avenir Next" font-size="36.0" fill="#404040" transform="matrix(1.00, 0.00, -0.00, -1.00, 486.4, 395.2)">d</text><text xml:space="preserve" font-family="AvenirNext-Regular,Avenir Next" font-size="36.0" fill="#404040" transform="matrix(1.00, 0.00, -0.00, -1.00, 509.4, 395.2)">o</text><text xml:space="preserve" font-family="AvenirNext-Regular,Avenir Next" font-size="36.0" fill="#404040" transform="matrix(1.00, 0.00, -0.00, -1.00, 531.4, 395.2)">s</text><text xml:space="preserve" font-family="AvenirNext-Regular,Avenir Next" font-size="36.0" fill="#404040" transform="matrix(1.00, 0.00, -0.00, -1.00, 547.3, 395.2)"> </text><text xml:space="preserve" font-family="ZapfDingbatsITC,Zapf Dingbats" font-size="21.6" fill="#919191" transform="matrix(1.00, 0.00, -0.00, -1.00, 81.0, 325.3)">❖</text><text xml:space="preserve" font-family="AvenirNext-Regular,Avenir Next" font-size="36.0" fill="#404040" transform="matrix(1.00, 0.00, -0.00, -1.00, 118.0, 322.2)">U</text><text xml:space="preserve" font-family="AvenirNext-Regular,Avenir Next" font-size="36.0" fill="#404040" transform="matrix(1.00, 0.00, -0.00, -1.00, 143.6, 322.2)">s</text><text xml:space="preserve" font-family="AvenirNext-Regular,Avenir Next" font-size="36.0" fill="#404040" transform="matrix(1.00, 0.00, -0.00, -1.00, 159.5, 322.2)">a</text><text xml:space="preserve" font-family="AvenirNext-Regular,Avenir Next" font-size="36.0" fill="#404040" transform="matrix(1.00, 0.00, -0.00, -1.00, 178.8, 322.2)">r</text><text xml:space="preserve" font-family="AvenirNext-Regular,Avenir Next" font-size="36.0" fill="#404040" transform="matrix(1.00, 0.00, -0.00, -1.00, 191.7, 322.2)"> </text><text xml:space="preserve" font-family="AvenirNext-Regular,Avenir Next" font-size="36.0" fill="#404040" transform="matrix(1.00, 0.00, -0.00, -1.00, 200.7, 322.2)">m</text><text xml:space="preserve" font-family="AvenirNext-Regular,Avenir Next" font-size="36.0" fill="#404040" transform="matrix(1.00, 0.00, -0.00, -1.00, 232.5, 322.2)">é</text><text xml:space="preserve" font-family="AvenirNext-Regular,Avenir Next" font-size="36.0" fill="#404040" transform="matrix(1.00, 0.00, -0.00, -1.00, 253.1, 322.2)">d</text><text xml:space="preserve" font-family="AvenirNext-Regular,Avenir Next" font-size="36.0" fill="#404040" transform="matrix(1.00, 0.00, -0.00, -1.00, 276.0, 322.2)">i</text><text xml:space="preserve" font-family="AvenirNext-Regular,Avenir Next" font-size="36.0" fill="#404040" transform="matrix(1.00, 0.00, -0.00, -1.00, 285.0, 322.2)">a</text><text xml:space="preserve" font-family="AvenirNext-Regular,Avenir Next" font-size="36.0" fill="#404040" transform="matrix(1.00, 0.00, -0.00, -1.00, 304.3, 322.2)"> </text><text xml:space="preserve" font-family="AvenirNext-Regular,Avenir Next" font-size="36.0" fill="#404040" transform="matrix(1.00, 0.00, -0.00, -1.00, 313.3, 322.2)">d</text><text xml:space="preserve" font-family="AvenirNext-Regular,Avenir Next" font-size="36.0" fill="#404040" transform="matrix(1.00, 0.00, -0.00, -1.00, 336.2, 322.2)">e</text><text xml:space="preserve" font-family="AvenirNext-Regular,Avenir Next" font-size="36.0" fill="#404040" transform="matrix(1.00, 0.00, -0.00, -1.00, 356.8, 322.2)"> </text><text xml:space="preserve" font-family="AvenirNext-Regular,Avenir Next" font-size="36.0" fill="#404040" transform="matrix(1.00, 0.00, -0.00, -1.00, 365.8, 322.2)">1</text><text xml:space="preserve" font-family="AvenirNext-Regular,Avenir Next" font-size="36.0" fill="#404040" transform="matrix(1.00, 0.00, -0.00, -1.00, 386.7, 322.2)">0</text><text xml:space="preserve" font-family="AvenirNext-Regular,Avenir Next" font-size="36.0" fill="#404040" transform="matrix(1.00, 0.00, -0.00, -1.00, 407.5, 322.2)"> </text><text xml:space="preserve" font-family="AvenirNext-Regular,Avenir Next" font-size="36.0" fill="#404040" transform="matrix(1.00, 0.00, -0.00, -1.00, 416.5, 322.2)">r</text><text xml:space="preserve" font-family="AvenirNext-Regular,Avenir Next" font-size="36.0" fill="#404040" transform="matrix(1.00, 0.00, -0.00, -1.00, 428.9, 322.2)">e</text><text xml:space="preserve" font-family="AvenirNext-Regular,Avenir Next" font-size="36.0" fill="#404040" transform="matrix(1.00, 0.00, -0.00, -1.00, 449.5, 322.2)">p</text><text xml:space="preserve" font-family="AvenirNext-Regular,Avenir Next" font-size="36.0" fill="#404040" transform="matrix(1.00, 0.00, -0.00, -1.00, 472.3, 322.2)">e</text><text xml:space="preserve" font-family="AvenirNext-Regular,Avenir Next" font-size="36.0" fill="#404040" transform="matrix(1.00, 0.00, -0.00, -1.00, 492.9, 322.2)">t</text><text xml:space="preserve" font-family="AvenirNext-Regular,Avenir Next" font-size="36.0" fill="#404040" transform="matrix(1.00, 0.00, -0.00, -1.00, 504.3, 322.2)">i</text><text xml:space="preserve" font-family="AvenirNext-Regular,Avenir Next" font-size="36.0" fill="#404040" transform="matrix(1.00, 0.00, -0.00, -1.00, 513.3, 322.2)">ç</text><text xml:space="preserve" font-family="AvenirNext-Regular,Avenir Next" font-size="36.0" fill="#404040" transform="matrix(1.00, 0.00, -0.00, -1.00, 531.3, 322.2)">õ</text><text xml:space="preserve" font-family="AvenirNext-Regular,Avenir Next" font-size="36.0" fill="#404040" transform="matrix(1.00, 0.00, -0.00, -1.00, 553.3, 322.2)">e</text><text xml:space="preserve" font-family="AvenirNext-Regular,Avenir Next" font-size="36.0" fill="#404040" transform="matrix(1.00, 0.00, -0.00, -1.00, 573.9, 322.2)">s</text><text xml:space="preserve" font-family="AvenirNext-Regular,Avenir Next" font-size="36.0" fill="#404040" transform="matrix(1.00, 0.00, -0.00, -1.00, 589.9, 322.2)"> </text><text xml:space="preserve" font-family="AvenirNext-Regular,Avenir Next" font-size="36.0" fill="#404040" transform="matrix(1.00, 0.00, -0.00, -1.00, 598.9, 322.2)">d</text><text xml:space="preserve" font-family="AvenirNext-Regular,Avenir Next" font-size="36.0" fill="#404040" transform="matrix(1.00, 0.00, -0.00, -1.00, 621.8, 322.2)">o</text><text xml:space="preserve" font-family="AvenirNext-Regular,Avenir Next" font-size="36.0" fill="#404040" transform="matrix(1.00, 0.00, -0.00, -1.00, 643.8, 322.2)">s</text><text xml:space="preserve" font-family="AvenirNext-Regular,Avenir Next" font-size="36.0" fill="#404040" transform="matrix(1.00, 0.00, -0.00, -1.00, 659.8, 322.2)"> </text><text xml:space="preserve" font-family="AvenirNext-Regular,Avenir Next" font-size="36.0" fill="#404040" transform="matrix(1.00, 0.00, -0.00, -1.00, 668.8, 322.2)">p</text><text xml:space="preserve" font-family="AvenirNext-Regular,Avenir Next" font-size="36.0" fill="#404040" transform="matrix(1.00, 0.00, -0.00, -1.00, 691.7, 322.2)">a</text><text xml:space="preserve" font-family="AvenirNext-Regular,Avenir Next" font-size="36.0" fill="#404040" transform="matrix(1.00, 0.00, -0.00, -1.00, 710.9, 322.2)">s</text><text xml:space="preserve" font-family="AvenirNext-Regular,Avenir Next" font-size="36.0" fill="#404040" transform="matrix(1.00, 0.00, -0.00, -1.00, 726.9, 322.2)">s</text><text xml:space="preserve" font-family="AvenirNext-Regular,Avenir Next" font-size="36.0" fill="#404040" transform="matrix(1.00, 0.00, -0.00, -1.00, 742.9, 322.2)">o</text><text xml:space="preserve" font-family="AvenirNext-Regular,Avenir Next" font-size="36.0" fill="#404040" transform="matrix(1.00, 0.00, -0.00, -1.00, 764.8, 322.2)">s</text><text xml:space="preserve" font-family="AvenirNext-Regular,Avenir Next" font-size="36.0" fill="#404040" transform="matrix(1.00, 0.00, -0.00, -1.00, 780.8, 322.2)"> </text><text xml:space="preserve" font-family="AvenirNext-Regular,Avenir Next" font-size="36.0" fill="#404040" transform="matrix(1.00, 0.00, -0.00, -1.00, 789.8, 322.2)">d</text><text xml:space="preserve" font-family="AvenirNext-Regular,Avenir Next" font-size="36.0" fill="#404040" transform="matrix(1.00, 0.00, -0.00, -1.00, 812.8, 322.2)">a</text><text xml:space="preserve" font-family="AvenirNext-Regular,Avenir Next" font-size="36.0" fill="#404040" transform="matrix(1.00, 0.00, -0.00, -1.00, 832.0, 322.2)"> </text><text xml:space="preserve" font-family="AvenirNext-Regular,Avenir Next" font-size="36.0" fill="#404040" transform="matrix(1.00, 0.00, -0.00, -1.00, 118.0, 273.2)">a</text><text xml:space="preserve" font-family="AvenirNext-Regular,Avenir Next" font-size="36.0" fill="#404040" transform="matrix(1.00, 0.00, -0.00, -1.00, 137.2, 273.2)">v</text><text xml:space="preserve" font-family="AvenirNext-Regular,Avenir Next" font-size="36.0" fill="#404040" transform="matrix(1.00, 0.00, -0.00, -1.00, 154.8, 273.2)">a</text><text xml:space="preserve" font-family="AvenirNext-Regular,Avenir Next" font-size="36.0" fill="#404040" transform="matrix(1.00, 0.00, -0.00, -1.00, 174.0, 273.2)">l</text><text xml:space="preserve" font-family="AvenirNext-Regular,Avenir Next" font-size="36.0" fill="#404040" transform="matrix(1.00, 0.00, -0.00, -1.00, 183.1, 273.2)">i</text><text xml:space="preserve" font-family="AvenirNext-Regular,Avenir Next" font-size="36.0" fill="#404040" transform="matrix(1.00, 0.00, -0.00, -1.00, 192.1, 273.2)">a</text><text xml:space="preserve" font-family="AvenirNext-Regular,Avenir Next" font-size="36.0" fill="#404040" transform="matrix(1.00, 0.00, -0.00, -1.00, 211.3, 273.2)">ç</text><text xml:space="preserve" font-family="AvenirNext-Regular,Avenir Next" font-size="36.0" fill="#404040" transform="matrix(1.00, 0.00, -0.00, -1.00, 229.3, 273.2)">ã</text><text xml:space="preserve" font-family="AvenirNext-Regular,Avenir Next" font-size="36.0" fill="#404040" transform="matrix(1.00, 0.00, -0.00, -1.00, 248.5, 273.2)">o</text><text xml:space="preserve" font-family="AvenirNext-Regular,Avenir Next" font-size="36.0" fill="#404040" transform="matrix(1.00, 0.00, -0.00, -1.00, 270.5, 273.2)"> </text><text xml:space="preserve" font-family="AvenirNext-Regular,Avenir Next" font-size="36.0" fill="#404040" transform="matrix(1.00, 0.00, -0.00, -1.00, 279.5, 273.2)">c</text><text xml:space="preserve" font-family="AvenirNext-Regular,Avenir Next" font-size="36.0" fill="#404040" transform="matrix(1.00, 0.00, -0.00, -1.00, 297.5, 273.2)">o</text><text xml:space="preserve" font-family="AvenirNext-Regular,Avenir Next" font-size="36.0" fill="#404040" transform="matrix(1.00, 0.00, -0.00, -1.00, 319.5, 273.2)">m</text><text xml:space="preserve" font-family="AvenirNext-Regular,Avenir Next" font-size="36.0" fill="#404040" transform="matrix(1.00, 0.00, -0.00, -1.00, 351.3, 273.2)"> </text><text xml:space="preserve" font-family="AvenirNext-Regular,Avenir Next" font-size="36.0" fill="#404040" transform="matrix(1.00, 0.00, -0.00, -1.00, 360.3, 273.2)">d</text><text xml:space="preserve" font-family="AvenirNext-Regular,Avenir Next" font-size="36.0" fill="#404040" transform="matrix(1.00, 0.00, -0.00, -1.00, 383.2, 273.2)">a</text><text xml:space="preserve" font-family="AvenirNext-Regular,Avenir Next" font-size="36.0" fill="#404040" transform="matrix(1.00, 0.00, -0.00, -1.00, 402.5, 273.2)">d</text><text xml:space="preserve" font-family="AvenirNext-Regular,Avenir Next" font-size="36.0" fill="#404040" transform="matrix(1.00, 0.00, -0.00, -1.00, 425.4, 273.2)">o</text><text xml:space="preserve" font-family="AvenirNext-Regular,Avenir Next" font-size="36.0" fill="#404040" transform="matrix(1.00, 0.00, -0.00, -1.00, 447.4, 273.2)">s</text><text xml:space="preserve" font-family="AvenirNext-Regular,Avenir Next" font-size="36.0" fill="#404040" transform="matrix(1.00, 0.00, -0.00, -1.00, 463.4, 273.2)"> </text><text xml:space="preserve" font-family="AvenirNext-Regular,Avenir Next" font-size="36.0" fill="#404040" transform="matrix(1.00, 0.00, -0.00, -1.00, 472.4, 273.2)">d</text><text xml:space="preserve" font-family="AvenirNext-Regular,Avenir Next" font-size="36.0" fill="#404040" transform="matrix(1.00, 0.00, -0.00, -1.00, 495.3, 273.2)">i</text><text xml:space="preserve" font-family="AvenirNext-Regular,Avenir Next" font-size="36.0" fill="#404040" transform="matrix(1.00, 0.00, -0.00, -1.00, 504.3, 273.2)">f</text><text xml:space="preserve" font-family="AvenirNext-Regular,Avenir Next" font-size="36.0" fill="#404040" transform="matrix(1.00, 0.00, -0.00, -1.00, 514.9, 273.2)">e</text><text xml:space="preserve" font-family="AvenirNext-Regular,Avenir Next" font-size="36.0" fill="#404040" transform="matrix(1.00, 0.00, -0.00, -1.00, 535.5, 273.2)">r</text><text xml:space="preserve" font-family="AvenirNext-Regular,Avenir Next" font-size="36.0" fill="#404040" transform="matrix(1.00, 0.00, -0.00, -1.00, 547.8, 273.2)">e</text><text xml:space="preserve" font-family="AvenirNext-Regular,Avenir Next" font-size="36.0" fill="#404040" transform="matrix(1.00, 0.00, -0.00, -1.00, 568.4, 273.2)">n</text><text xml:space="preserve" font-family="AvenirNext-Regular,Avenir Next" font-size="36.0" fill="#404040" transform="matrix(1.00, 0.00, -0.00, -1.00, 589.3, 273.2)">t</text><text xml:space="preserve" font-family="AvenirNext-Regular,Avenir Next" font-size="36.0" fill="#404040" transform="matrix(1.00, 0.00, -0.00, -1.00, 600.8, 273.2)">e</text><text xml:space="preserve" font-family="AvenirNext-Regular,Avenir Next" font-size="36.0" fill="#404040" transform="matrix(1.00, 0.00, -0.00, -1.00, 621.4, 273.2)">s</text><text xml:space="preserve" font-family="AvenirNext-Regular,Avenir Next" font-size="36.0" fill="#404040" transform="matrix(1.00, 0.00, -0.00, -1.00, 637.3, 273.2)"> </text><text xml:space="preserve" font-family="AvenirNext-Regular,Avenir Next" font-size="36.0" fill="#404040" transform="matrix(1.00, 0.00, -0.00, -1.00, 646.3, 273.2)">p</text><text xml:space="preserve" font-family="AvenirNext-Regular,Avenir Next" font-size="36.0" fill="#404040" transform="matrix(1.00, 0.00, -0.00, -1.00, 669.2, 273.2)">a</text><text xml:space="preserve" font-family="AvenirNext-Regular,Avenir Next" font-size="36.0" fill="#404040" transform="matrix(1.00, 0.00, -0.00, -1.00, 688.4, 273.2)">r</text><text xml:space="preserve" font-family="AvenirNext-Regular,Avenir Next" font-size="36.0" fill="#404040" transform="matrix(1.00, 0.00, -0.00, -1.00, 700.9, 273.2)">a</text><text xml:space="preserve" font-family="AvenirNext-Regular,Avenir Next" font-size="36.0" fill="#404040" transform="matrix(1.00, 0.00, -0.00, -1.00, 720.2, 273.2)"> </text><text xml:space="preserve" font-family="AvenirNext-Regular,Avenir Next" font-size="36.0" fill="#404040" transform="matrix(1.00, 0.00, -0.00, -1.00, 729.2, 273.2)">c</text><text xml:space="preserve" font-family="AvenirNext-Regular,Avenir Next" font-size="36.0" fill="#404040" transform="matrix(1.00, 0.00, -0.00, -1.00, 747.2, 273.2)">a</text><text xml:space="preserve" font-family="AvenirNext-Regular,Avenir Next" font-size="36.0" fill="#404040" transform="matrix(1.00, 0.00, -0.00, -1.00, 766.4, 273.2)">d</text><text xml:space="preserve" font-family="AvenirNext-Regular,Avenir Next" font-size="36.0" fill="#404040" transform="matrix(1.00, 0.00, -0.00, -1.00, 789.3, 273.2)">a</text><text xml:space="preserve" font-family="AvenirNext-Regular,Avenir Next" font-size="36.0" fill="#404040" transform="matrix(1.00, 0.00, -0.00, -1.00, 808.6, 273.2)"> </text><text xml:space="preserve" font-family="AvenirNext-Regular,Avenir Next" font-size="36.0" fill="#404040" transform="matrix(1.00, 0.00, -0.00, -1.00, 118.0, 224.2)">c</text><text xml:space="preserve" font-family="AvenirNext-Regular,Avenir Next" font-size="36.0" fill="#404040" transform="matrix(1.00, 0.00, -0.00, -1.00, 136.0, 224.2)">o</text><text xml:space="preserve" font-family="AvenirNext-Regular,Avenir Next" font-size="36.0" fill="#404040" transform="matrix(1.00, 0.00, -0.00, -1.00, 158.0, 224.2)">m</text><text xml:space="preserve" font-family="AvenirNext-Regular,Avenir Next" font-size="36.0" fill="#404040" transform="matrix(1.00, 0.00, -0.00, -1.00, 189.8, 224.2)">b</text><text xml:space="preserve" font-family="AvenirNext-Regular,Avenir Next" font-size="36.0" fill="#404040" transform="matrix(1.00, 0.00, -0.00, -1.00, 212.7, 224.2)">i</text><text xml:space="preserve" font-family="AvenirNext-Regular,Avenir Next" font-size="36.0" fill="#404040" transform="matrix(1.00, 0.00, -0.00, -1.00, 221.7, 224.2)">n</text><text xml:space="preserve" font-family="AvenirNext-Regular,Avenir Next" font-size="36.0" fill="#404040" transform="matrix(1.00, 0.00, -0.00, -1.00, 242.6, 224.2)">a</text><text xml:space="preserve" font-family="AvenirNext-Regular,Avenir Next" font-size="36.0" fill="#404040" transform="matrix(1.00, 0.00, -0.00, -1.00, 261.9, 224.2)">ç</text><text xml:space="preserve" font-family="AvenirNext-Regular,Avenir Next" font-size="36.0" fill="#404040" transform="matrix(1.00, 0.00, -0.00, -1.00, 279.9, 224.2)">ã</text><text xml:space="preserve" font-family="AvenirNext-Regular,Avenir Next" font-size="36.0" fill="#404040" transform="matrix(1.00, 0.00, -0.00, -1.00, 299.1, 224.2)">o</text><text xml:space="preserve" font-family="AvenirNext-Regular,Avenir Next" font-size="36.0" fill="#404040" transform="matrix(1.00, 0.00, -0.00, -1.00, 321.1, 224.2)"> </text><text xml:space="preserve" font-family="AvenirNext-Regular,Avenir Next" font-size="36.0" fill="#404040" transform="matrix(1.00, 0.00, -0.00, -1.00, 330.1, 224.2)">d</text><text xml:space="preserve" font-family="AvenirNext-Regular,Avenir Next" font-size="36.0" fill="#404040" transform="matrix(1.00, 0.00, -0.00, -1.00, 353.0, 224.2)">e</text><text xml:space="preserve" font-family="AvenirNext-Regular,Avenir Next" font-size="36.0" fill="#404040" transform="matrix(1.00, 0.00, -0.00, -1.00, 373.6, 224.2)"> </text><text xml:space="preserve" font-family="AvenirNext-Regular,Avenir Next" font-size="36.0" fill="#404040" transform="matrix(1.00, 0.00, -0.00, -1.00, 382.6, 224.2)">v</text><text xml:space="preserve" font-family="AvenirNext-Regular,Avenir Next" font-size="36.0" fill="#404040" transform="matrix(1.00, 0.00, -0.00, -1.00, 400.2, 224.2)">a</text><text xml:space="preserve" font-family="AvenirNext-Regular,Avenir Next" font-size="36.0" fill="#404040" transform="matrix(1.00, 0.00, -0.00, -1.00, 419.4, 224.2)">l</text><text xml:space="preserve" font-family="AvenirNext-Regular,Avenir Next" font-size="36.0" fill="#404040" transform="matrix(1.00, 0.00, -0.00, -1.00, 428.5, 224.2)">o</text><text xml:space="preserve" font-family="AvenirNext-Regular,Avenir Next" font-size="36.0" fill="#404040" transform="matrix(1.00, 0.00, -0.00, -1.00, 450.5, 224.2)">r</text><text xml:space="preserve" font-family="AvenirNext-Regular,Avenir Next" font-size="36.0" fill="#404040" transform="matrix(1.00, 0.00, -0.00, -1.00, 462.8, 224.2)">e</text><text xml:space="preserve" font-family="AvenirNext-Regular,Avenir Next" font-size="36.0" fill="#404040" transform="matrix(1.00, 0.00, -0.00, -1.00, 483.4, 224.2)">s</text><text xml:space="preserve" font-family="AvenirNext-Regular,Avenir Next" font-size="36.0" fill="#404040" transform="matrix(1.00, 0.00, -0.00, -1.00, 499.3, 224.2)"> </text><text xml:space="preserve" font-family="AvenirNext-Regular,Avenir Next" font-size="36.0" fill="#404040" transform="matrix(1.00, 0.00, -0.00, -1.00, 508.3, 224.2)">d</text><text xml:space="preserve" font-family="AvenirNext-Regular,Avenir Next" font-size="36.0" fill="#404040" transform="matrix(1.00, 0.00, -0.00, -1.00, 531.3, 224.2)">a</text><text xml:space="preserve" font-family="AvenirNext-Regular,Avenir Next" font-size="36.0" fill="#404040" transform="matrix(1.00, 0.00, -0.00, -1.00, 550.5, 224.2)">s</text><text xml:space="preserve" font-family="AvenirNext-Regular,Avenir Next" font-size="36.0" fill="#404040" transform="matrix(1.00, 0.00, -0.00, -1.00, 566.5, 224.2)"> </text><text xml:space="preserve" font-family="AvenirNext-Regular,Avenir Next" font-size="36.0" fill="#404040" transform="matrix(1.00, 0.00, -0.00, -1.00, 575.5, 224.2)">v</text><text xml:space="preserve" font-family="AvenirNext-Regular,Avenir Next" font-size="36.0" fill="#404040" transform="matrix(1.00, 0.00, -0.00, -1.00, 593.1, 224.2)">a</text><text xml:space="preserve" font-family="AvenirNext-Regular,Avenir Next" font-size="36.0" fill="#404040" transform="matrix(1.00, 0.00, -0.00, -1.00, 612.3, 224.2)">r</text><text xml:space="preserve" font-family="AvenirNext-Regular,Avenir Next" font-size="36.0" fill="#404040" transform="matrix(1.00, 0.00, -0.00, -1.00, 625.2, 224.2)">i</text><text xml:space="preserve" font-family="AvenirNext-Regular,Avenir Next" font-size="36.0" fill="#404040" transform="matrix(1.00, 0.00, -0.00, -1.00, 634.2, 224.2)">á</text><text xml:space="preserve" font-family="AvenirNext-Regular,Avenir Next" font-size="36.0" fill="#404040" transform="matrix(1.00, 0.00, -0.00, -1.00, 653.5, 224.2)">v</text><text xml:space="preserve" font-family="AvenirNext-Regular,Avenir Next" font-size="36.0" fill="#404040" transform="matrix(1.00, 0.00, -0.00, -1.00, 671.0, 224.2)">e</text><text xml:space="preserve" font-family="AvenirNext-Regular,Avenir Next" font-size="36.0" fill="#404040" transform="matrix(1.00, 0.00, -0.00, -1.00, 691.6, 224.2)">i</text><text xml:space="preserve" font-family="AvenirNext-Regular,Avenir Next" font-size="36.0" fill="#404040" transform="matrix(1.00, 0.00, -0.00, -1.00, 700.6, 224.2)">s</text></g></svg>