<?xml version="1.0" encoding="UTF-8" standalone="no"?><svg xmlns="http://www.w3.org/2000/svg" xmlns:xlink="http://www.w3.org/1999/xlink" clip-rule="evenodd" stroke-miterlimit="10" viewBox="0 0 1024 768"><desc>SVG generated by Keynote</desc><defs></defs><g transform="matrix(1.00, 0.00, -0.00, -1.00, 0.0, 768.0)"><g><clipPath id="clip0x6000062b4580"><path d="M 0.0 768.0 L 1024.0 768.0 L 1024.0 0.0 L 0.0 0.0 Z M 0.0 768.0 "></path></clipPath><g clip-path="url(#clip0x6000062b4580)"><image xlink:href="../../62A57402-F52E-4D18-8FC0-8772A6409873/assets/5A8C990C4A4597A5304AC9F14CDA7C87.jpeg" width="2048.00" height="1536.00" transform="matrix(0.50, 0.00, -0.00, -0.50, 0.0, 768.0)"></image></g></g><g opacity="0.30"><g><clipPath id="clip0x6000062b4e80"><path d="M 39.0 595.0 L 986.0 595.0 L 986.0 599.0 L 39.0 599.0 Z M 39.0 595.0 "></path></clipPath><g clip-path="url(#clip0x6000062b4e80)"><path d="M 0.0 0.5 L 944.7 0.5 L 944.7 0.5 L 0.0 0.5 Z M 0.0 0.0 " fill="none" stroke="#434343" stroke-width="1.00" transform="matrix(1.00, 0.00, 0.00, -1.00, 40.0, 597.0)"></path></g></g></g><g opacity="0.30"><g><clipPath id="clip0x6000062b4ac0"><path d="M 39.0 716.0 L 986.0 716.0 L 986.0 720.0 L 39.0 720.0 Z M 39.0 716.0 "></path></clipPath><g clip-path="url(#clip0x6000062b4ac0)"><path d="M 0.0 0.5 L 944.7 0.5 L 944.7 0.5 L 0.0 0.5 Z M 0.0 0.0 " fill="none" stroke="#434343" stroke-width="1.00" transform="matrix(1.00, 0.00, 0.00, -1.00, 40.0, 718.0)"></path></g></g></g><text xml:space="preserve" font-family="AvenirNext-Regular,Avenir Next" font-size="64.4" fill="#D93D2A" transform="matrix(1.00, 0.00, -0.00, -1.00, 105.2, 636.6)">A</text><text xml:space="preserve" font-family="AvenirNext-Regular,Avenir Next" font-size="64.4" fill="#D93D2A" transform="matrix(1.00, 0.00, -0.00, -1.00, 149.9, 636.6)">v</text><text xml:space="preserve" font-family="AvenirNext-Regular,Avenir Next" font-size="64.4" fill="#D93D2A" transform="matrix(1.00, 0.00, -0.00, -1.00, 181.3, 636.6)">a</text><text xml:space="preserve" font-family="AvenirNext-Regular,Avenir Next" font-size="64.4" fill="#D93D2A" transform="matrix(1.00, 0.00, -0.00, -1.00, 215.7, 636.6)">l</text><text xml:space="preserve" font-family="AvenirNext-Regular,Avenir Next" font-size="64.4" fill="#D93D2A" transform="matrix(1.00, 0.00, -0.00, -1.00, 231.9, 636.6)">i</text><text xml:space="preserve" font-family="AvenirNext-Regular,Avenir Next" font-size="64.4" fill="#D93D2A" transform="matrix(1.00, 0.00, -0.00, -1.00, 248.0, 636.6)">a</text><text xml:space="preserve" font-family="AvenirNext-Regular,Avenir Next" font-size="64.4" fill="#D93D2A" transform="matrix(1.00, 0.00, -0.00, -1.00, 282.4, 636.6)">ç</text><text xml:space="preserve" font-family="AvenirNext-Regular,Avenir Next" font-size="64.4" fill="#D93D2A" transform="matrix(1.00, 0.00, -0.00, -1.00, 314.6, 636.6)">ã</text><text xml:space="preserve" font-family="AvenirNext-Regular,Avenir Next" font-size="64.4" fill="#D93D2A" transform="matrix(1.00, 0.00, -0.00, -1.00, 349.0, 636.6)">o</text><text xml:space="preserve" font-family="AvenirNext-Regular,Avenir Next" font-size="64.4" fill="#D93D2A" transform="matrix(1.00, 0.00, -0.00, -1.00, 388.4, 636.6)"> </text><text xml:space="preserve" font-family="AvenirNext-Regular,Avenir Next" font-size="64.4" fill="#D93D2A" transform="matrix(1.00, 0.00, -0.00, -1.00, 404.5, 636.6)">M</text><text xml:space="preserve" font-family="AvenirNext-Regular,Avenir Next" font-size="64.4" fill="#D93D2A" transform="matrix(1.00, 0.00, -0.00, -1.00, 461.5, 636.6)">é</text><text xml:space="preserve" font-family="AvenirNext-Regular,Avenir Next" font-size="64.4" fill="#D93D2A" transform="matrix(1.00, 0.00, -0.00, -1.00, 498.3, 636.6)">t</text><text xml:space="preserve" font-family="AvenirNext-Regular,Avenir Next" font-size="64.4" fill="#D93D2A" transform="matrix(1.00, 0.00, -0.00, -1.00, 518.8, 636.6)">o</text><text xml:space="preserve" font-family="AvenirNext-Regular,Avenir Next" font-size="64.4" fill="#D93D2A" transform="matrix(1.00, 0.00, -0.00, -1.00, 558.1, 636.6)">d</text><text xml:space="preserve" font-family="AvenirNext-Regular,Avenir Next" font-size="64.4" fill="#D93D2A" transform="matrix(1.00, 0.00, -0.00, -1.00, 599.1, 636.6)">o</text><text xml:space="preserve" font-family="AvenirNext-Regular,Avenir Next" font-size="64.4" fill="#D93D2A" transform="matrix(1.00, 0.00, -0.00, -1.00, 638.5, 636.6)"> </text><text xml:space="preserve" font-family="AvenirNext-Regular,Avenir Next" font-size="64.4" fill="#D93D2A" transform="matrix(1.00, 0.00, -0.00, -1.00, 654.6, 636.6)">P</text><text xml:space="preserve" font-family="AvenirNext-Regular,Avenir Next" font-size="64.4" fill="#D93D2A" transform="matrix(1.00, 0.00, -0.00, -1.00, 688.8, 636.6)">r</text><text xml:space="preserve" font-family="AvenirNext-Regular,Avenir Next" font-size="64.4" fill="#D93D2A" transform="matrix(1.00, 0.00, -0.00, -1.00, 710.9, 636.6)">o</text><text xml:space="preserve" font-family="AvenirNext-Regular,Avenir Next" font-size="64.4" fill="#D93D2A" transform="matrix(1.00, 0.00, -0.00, -1.00, 750.2, 636.6)">p</text><text xml:space="preserve" font-family="AvenirNext-Regular,Avenir Next" font-size="64.4" fill="#D93D2A" transform="matrix(1.00, 0.00, -0.00, -1.00, 791.1, 636.6)">o</text><text xml:space="preserve" font-family="AvenirNext-Regular,Avenir Next" font-size="64.4" fill="#D93D2A" transform="matrix(1.00, 0.00, -0.00, -1.00, 830.5, 636.6)">s</text><text xml:space="preserve" font-family="AvenirNext-Regular,Avenir Next" font-size="64.4" fill="#D93D2A" transform="matrix(1.00, 0.00, -0.00, -1.00, 859.1, 636.6)">t</text><text xml:space="preserve" font-family="AvenirNext-Regular,Avenir Next" font-size="64.4" fill="#D93D2A" transform="matrix(1.00, 0.00, -0.00, -1.00, 879.5, 636.6)">o</text><text xml:space="preserve" font-family="ZapfDingbatsITC,Zapf Dingbats" font-size="21.6" fill="#919191" transform="matrix(1.00, 0.00, -0.00, -1.00, 44.0, 422.3)">❖</text><text xml:space="preserve" font-family="AvenirNext-Regular,Avenir Next" font-size="36.0" fill="#404040" transform="matrix(1.00, 0.00, -0.00, -1.00, 81.0, 419.2)">F</text><text xml:space="preserve" font-family="AvenirNext-Regular,Avenir Next" font-size="36.0" fill="#404040" transform="matrix(1.00, 0.00, -0.00, -1.00, 99.5, 419.2)">a</text><text xml:space="preserve" font-family="AvenirNext-Regular,Avenir Next" font-size="36.0" fill="#404040" transform="matrix(1.00, 0.00, -0.00, -1.00, 118.7, 419.2)">i</text><text xml:space="preserve" font-family="AvenirNext-Regular,Avenir Next" font-size="36.0" fill="#404040" transform="matrix(1.00, 0.00, -0.00, -1.00, 127.7, 419.2)">x</text><text xml:space="preserve" font-family="AvenirNext-Regular,Avenir Next" font-size="36.0" fill="#404040" transform="matrix(1.00, 0.00, -0.00, -1.00, 145.2, 419.2)">a</text><text xml:space="preserve" font-family="AvenirNext-Regular,Avenir Next" font-size="36.0" fill="#404040" transform="matrix(1.00, 0.00, -0.00, -1.00, 164.4, 419.2)"> </text><text xml:space="preserve" font-family="AvenirNext-Regular,Avenir Next" font-size="36.0" fill="#404040" transform="matrix(1.00, 0.00, -0.00, -1.00, 173.4, 419.2)">d</text><text xml:space="preserve" font-family="AvenirNext-Regular,Avenir Next" font-size="36.0" fill="#404040" transform="matrix(1.00, 0.00, -0.00, -1.00, 196.3, 419.2)">e</text><text xml:space="preserve" font-family="AvenirNext-Regular,Avenir Next" font-size="36.0" fill="#404040" transform="matrix(1.00, 0.00, -0.00, -1.00, 216.9, 419.2)"> </text><text xml:space="preserve" font-family="AvenirNext-Regular,Avenir Next" font-size="36.0" fill="#404040" transform="matrix(1.00, 0.00, -0.00, -1.00, 225.9, 419.2)">v</text><text xml:space="preserve" font-family="AvenirNext-Regular,Avenir Next" font-size="36.0" fill="#404040" transform="matrix(1.00, 0.00, -0.00, -1.00, 243.5, 419.2)">a</text><text xml:space="preserve" font-family="AvenirNext-Regular,Avenir Next" font-size="36.0" fill="#404040" transform="matrix(1.00, 0.00, -0.00, -1.00, 262.7, 419.2)">l</text><text xml:space="preserve" font-family="AvenirNext-Regular,Avenir Next" font-size="36.0" fill="#404040" transform="matrix(1.00, 0.00, -0.00, -1.00, 271.8, 419.2)">o</text><text xml:space="preserve" font-family="AvenirNext-Regular,Avenir Next" font-size="36.0" fill="#404040" transform="matrix(1.00, 0.00, -0.00, -1.00, 293.8, 419.2)">r</text><text xml:space="preserve" font-family="AvenirNext-Regular,Avenir Next" font-size="36.0" fill="#404040" transform="matrix(1.00, 0.00, -0.00, -1.00, 306.1, 419.2)">e</text><text xml:space="preserve" font-family="AvenirNext-Regular,Avenir Next" font-size="36.0" fill="#404040" transform="matrix(1.00, 0.00, -0.00, -1.00, 326.7, 419.2)">s</text><text xml:space="preserve" font-family="AvenirNext-Regular,Avenir Next" font-size="36.0" fill="#404040" transform="matrix(1.00, 0.00, -0.00, -1.00, 342.6, 419.2)"> </text><text xml:space="preserve" font-family="ZapfDingbatsITC,Zapf Dingbats" font-size="21.6" fill="#919191" transform="matrix(1.00, 0.00, -0.00, -1.00, 81.0, 349.3)">❖</text><text xml:space="preserve" font-family="AvenirNext-DemiBoldItalic,Avenir Next" font-style="italic" font-weight="bold" font-size="36.0" fill="#404040" transform="matrix(1.00, 0.00, -0.00, -1.00, 118.0, 346.2)">k</text><text xml:space="preserve" font-family="AvenirNext-Regular,Avenir Next" font-size="36.0" fill="#404040" transform="matrix(1.00, 0.00, -0.00, -1.00, 136.8, 346.2)">:</text><text xml:space="preserve" font-family="AvenirNext-Regular,Avenir Next" font-size="36.0" fill="#404040" transform="matrix(1.00, 0.00, -0.00, -1.00, 147.6, 346.2)"> </text><text xml:space="preserve" font-family="AvenirNext-Regular,Avenir Next" font-size="36.0" fill="#404040" transform="matrix(1.00, 0.00, -0.00, -1.00, 156.6, 346.2)">[</text><text xml:space="preserve" font-family="AvenirNext-Regular,Avenir Next" font-size="36.0" fill="#404040" transform="matrix(1.00, 0.00, -0.00, -1.00, 167.4, 346.2)"> </text><text xml:space="preserve" font-family="AvenirNext-Regular,Avenir Next" font-size="36.0" fill="#404040" transform="matrix(1.00, 0.00, -0.00, -1.00, 176.4, 346.2)">0</text><text xml:space="preserve" font-family="AvenirNext-Regular,Avenir Next" font-size="36.0" fill="#404040" transform="matrix(1.00, 0.00, -0.00, -1.00, 197.2, 346.2)">:</text><text xml:space="preserve" font-family="AvenirNext-Regular,Avenir Next" font-size="36.0" fill="#404040" transform="matrix(1.00, 0.00, -0.00, -1.00, 208.0, 346.2)">0</text><text xml:space="preserve" font-family="AvenirNext-Regular,Avenir Next" font-size="36.0" fill="#404040" transform="matrix(1.00, 0.00, -0.00, -1.00, 228.9, 346.2)">.</text><text xml:space="preserve" font-family="AvenirNext-Regular,Avenir Next" font-size="36.0" fill="#404040" transform="matrix(1.00, 0.00, -0.00, -1.00, 238.3, 346.2)">0</text><text xml:space="preserve" font-family="AvenirNext-Regular,Avenir Next" font-size="36.0" fill="#404040" transform="matrix(1.00, 0.00, -0.00, -1.00, 259.2, 346.2)">0</text><text xml:space="preserve" font-family="AvenirNext-Regular,Avenir Next" font-size="36.0" fill="#404040" transform="matrix(1.00, 0.00, -0.00, -1.00, 280.0, 346.2)">5</text><text xml:space="preserve" font-family="AvenirNext-Regular,Avenir Next" font-size="36.0" fill="#404040" transform="matrix(1.00, 0.00, -0.00, -1.00, 300.9, 346.2)">:</text><text xml:space="preserve" font-family="AvenirNext-Regular,Avenir Next" font-size="36.0" fill="#404040" transform="matrix(1.00, 0.00, -0.00, -1.00, 311.7, 346.2)">0</text><text xml:space="preserve" font-family="AvenirNext-Regular,Avenir Next" font-size="36.0" fill="#404040" transform="matrix(1.00, 0.00, -0.00, -1.00, 332.6, 346.2)">.</text><text xml:space="preserve" font-family="AvenirNext-Regular,Avenir Next" font-size="36.0" fill="#404040" transform="matrix(1.00, 0.00, -0.00, -1.00, 342.0, 346.2)">0</text><text xml:space="preserve" font-family="AvenirNext-Regular,Avenir Next" font-size="36.0" fill="#404040" transform="matrix(1.00, 0.00, -0.00, -1.00, 362.8, 346.2)">3</text><text xml:space="preserve" font-family="AvenirNext-Regular,Avenir Next" font-size="36.0" fill="#404040" transform="matrix(1.00, 0.00, -0.00, -1.00, 383.7, 346.2)"> </text><text xml:space="preserve" font-family="AvenirNext-Regular,Avenir Next" font-size="36.0" fill="#404040" transform="matrix(1.00, 0.00, -0.00, -1.00, 392.7, 346.2)">]</text><text xml:space="preserve" font-family="AvenirNext-Regular,Avenir Next" font-size="36.0" fill="#404040" transform="matrix(1.00, 0.00, -0.00, -1.00, 403.5, 346.2)"> </text><text xml:space="preserve" font-family="ZapfDingbatsITC,Zapf Dingbats" font-size="21.6" fill="#919191" transform="matrix(1.00, 0.00, -0.00, -1.00, 81.0, 276.3)">❖</text><text xml:space="preserve" font-family="AvenirNext-DemiBoldItalic,Avenir Next" font-style="italic" font-weight="bold" font-size="36.0" fill="#404040" transform="matrix(1.00, 0.00, -0.00, -1.00, 118.0, 273.2)">s</text><text xml:space="preserve" font-family="AvenirNext-DemiBoldItalic,Avenir Next" font-style="italic" font-weight="bold" font-size="36.0" fill="#404040" transform="matrix(1.00, 0.00, -0.00, -1.00, 134.0, 273.2)">i</text><text xml:space="preserve" font-family="AvenirNext-DemiBoldItalic,Avenir Next" font-style="italic" font-weight="bold" font-size="36.0" fill="#404040" transform="matrix(1.00, 0.00, -0.00, -1.00, 143.6, 273.2)">g</text><text xml:space="preserve" font-family="AvenirNext-DemiBoldItalic,Avenir Next" font-style="italic" font-weight="bold" font-size="36.0" fill="#404040" transform="matrix(1.00, 0.00, -0.00, -1.00, 166.3, 273.2)">_</text><text xml:space="preserve" font-family="AvenirNext-DemiBoldItalic,Avenir Next" font-style="italic" font-weight="bold" font-size="36.0" fill="#404040" transform="matrix(1.00, 0.00, -0.00, -1.00, 184.3, 273.2)">f</text><text xml:space="preserve" font-family="AvenirNext-DemiBoldItalic,Avenir Next" font-style="italic" font-weight="bold" font-size="36.0" fill="#404040" transform="matrix(1.00, 0.00, -0.00, -1.00, 196.0, 273.2)">a</text><text xml:space="preserve" font-family="AvenirNext-DemiBoldItalic,Avenir Next" font-style="italic" font-weight="bold" font-size="36.0" fill="#404040" transform="matrix(1.00, 0.00, -0.00, -1.00, 215.4, 273.2)">c</text><text xml:space="preserve" font-family="AvenirNext-DemiBoldItalic,Avenir Next" font-style="italic" font-weight="bold" font-size="36.0" fill="#404040" transform="matrix(1.00, 0.00, -0.00, -1.00, 233.1, 273.2)">t</text><text xml:space="preserve" font-family="AvenirNext-DemiBoldItalic,Avenir Next" font-style="italic" font-weight="bold" font-size="36.0" fill="#404040" transform="matrix(1.00, 0.00, -0.00, -1.00, 245.3, 273.2)">o</text><text xml:space="preserve" font-family="AvenirNext-DemiBoldItalic,Avenir Next" font-style="italic" font-weight="bold" font-size="36.0" fill="#404040" transform="matrix(1.00, 0.00, -0.00, -1.00, 267.1, 273.2)">r</text><text xml:space="preserve" font-family="AvenirNext-Regular,Avenir Next" font-size="36.0" fill="#404040" transform="matrix(1.00, 0.00, -0.00, -1.00, 279.3, 273.2)">:</text><text xml:space="preserve" font-family="AvenirNext-Regular,Avenir Next" font-size="36.0" fill="#404040" transform="matrix(1.00, 0.00, -0.00, -1.00, 290.1, 273.2)"> </text><text xml:space="preserve" font-family="AvenirNext-Regular,Avenir Next" font-size="36.0" fill="#404040" transform="matrix(1.00, 0.00, -0.00, -1.00, 299.1, 273.2)">[</text><text xml:space="preserve" font-family="AvenirNext-Regular,Avenir Next" font-size="36.0" fill="#404040" transform="matrix(1.00, 0.00, -0.00, -1.00, 309.9, 273.2)"> </text><text xml:space="preserve" font-family="AvenirNext-Regular,Avenir Next" font-size="36.0" fill="#404040" transform="matrix(1.00, 0.00, -0.00, -1.00, 318.9, 273.2)">2</text><text xml:space="preserve" font-family="AvenirNext-Regular,Avenir Next" font-size="36.0" fill="#404040" transform="matrix(1.00, 0.00, -0.00, -1.00, 339.8, 273.2)">.</text><text xml:space="preserve" font-family="AvenirNext-Regular,Avenir Next" font-size="36.0" fill="#404040" transform="matrix(1.00, 0.00, -0.00, -1.00, 349.1, 273.2)">^</text><text xml:space="preserve" font-family="AvenirNext-Regular,Avenir Next" font-size="36.0" fill="#404040" transform="matrix(1.00, 0.00, -0.00, -1.00, 373.1, 273.2)">(</text><text xml:space="preserve" font-family="AvenirNext-Regular,Avenir Next" font-size="36.0" fill="#404040" transform="matrix(1.00, 0.00, -0.00, -1.00, 383.9, 273.2)">(</text><text xml:space="preserve" font-family="AvenirNext-Regular,Avenir Next" font-size="36.0" fill="#404040" transform="matrix(1.00, 0.00, -0.00, -1.00, 394.7, 273.2)">-</text><text xml:space="preserve" font-family="AvenirNext-Regular,Avenir Next" font-size="36.0" fill="#404040" transform="matrix(1.00, 0.00, -0.00, -1.00, 406.2, 273.2)">4</text><text xml:space="preserve" font-family="AvenirNext-Regular,Avenir Next" font-size="36.0" fill="#404040" transform="matrix(1.00, 0.00, -0.00, -1.00, 427.1, 273.2)">:</text><text xml:space="preserve" font-family="AvenirNext-Regular,Avenir Next" font-size="36.0" fill="#404040" transform="matrix(1.00, 0.00, -0.00, -1.00, 437.9, 273.2)">3</text><text xml:space="preserve" font-family="AvenirNext-Regular,Avenir Next" font-size="36.0" fill="#404040" transform="matrix(1.00, 0.00, -0.00, -1.00, 458.8, 273.2)">)</text><text xml:space="preserve" font-family="AvenirNext-Regular,Avenir Next" font-size="36.0" fill="#404040" transform="matrix(1.00, 0.00, -0.00, -1.00, 469.6, 273.2)">)</text><text xml:space="preserve" font-family="AvenirNext-Regular,Avenir Next" font-size="36.0" fill="#404040" transform="matrix(1.00, 0.00, -0.00, -1.00, 480.4, 273.2)"> </text><text xml:space="preserve" font-family="AvenirNext-Regular,Avenir Next" font-size="36.0" fill="#404040" transform="matrix(1.00, 0.00, -0.00, -1.00, 489.4, 273.2)">]</text><text xml:space="preserve" font-family="AvenirNext-Regular,Avenir Next" font-size="36.0" fill="#404040" transform="matrix(1.00, 0.00, -0.00, -1.00, 500.2, 273.2)"> </text><text xml:space="preserve" font-family="AvenirNext-Regular,Avenir Next" font-size="36.0" fill="#404040" transform="matrix(1.00, 0.00, -0.00, -1.00, 509.2, 273.2)"> </text><text xml:space="preserve" font-family="AvenirNext-Regular,Avenir Next" font-size="30.0" fill="#66635F" transform="matrix(1.00, 0.00, -0.00, -1.00, 518.2, 273.2)">[</text><text xml:space="preserve" font-family="AvenirNext-Regular,Avenir Next" font-size="30.0" fill="#66635F" transform="matrix(1.00, 0.00, -0.00, -1.00, 527.2, 273.2)"> </text><text xml:space="preserve" font-family="AvenirNext-Regular,Avenir Next" font-size="30.0" fill="#66635F" transform="matrix(1.00, 0.00, -0.00, -1.00, 534.7, 273.2)">0</text><text xml:space="preserve" font-family="AvenirNext-Regular,Avenir Next" font-size="30.0" fill="#66635F" transform="matrix(1.00, 0.00, -0.00, -1.00, 552.1, 273.2)">.</text><text xml:space="preserve" font-family="AvenirNext-Regular,Avenir Next" font-size="30.0" fill="#66635F" transform="matrix(1.00, 0.00, -0.00, -1.00, 559.9, 273.2)">0</text><text xml:space="preserve" font-family="AvenirNext-Regular,Avenir Next" font-size="30.0" fill="#66635F" transform="matrix(1.00, 0.00, -0.00, -1.00, 577.3, 273.2)">6</text><text xml:space="preserve" font-family="AvenirNext-Regular,Avenir Next" font-size="30.0" fill="#66635F" transform="matrix(1.00, 0.00, -0.00, -1.00, 594.7, 273.2)">2</text><text xml:space="preserve" font-family="AvenirNext-Regular,Avenir Next" font-size="30.0" fill="#66635F" transform="matrix(1.00, 0.00, -0.00, -1.00, 612.1, 273.2)">5</text><text xml:space="preserve" font-family="AvenirNext-Regular,Avenir Next" font-size="30.0" fill="#66635F" transform="matrix(1.00, 0.00, -0.00, -1.00, 629.5, 273.2)"> </text><text xml:space="preserve" font-family="AvenirNext-Regular,Avenir Next" font-size="30.0" fill="#66635F" transform="matrix(1.00, 0.00, -0.00, -1.00, 637.0, 273.2)"> </text><text xml:space="preserve" font-family="AvenirNext-Regular,Avenir Next" font-size="30.0" fill="#66635F" transform="matrix(1.00, 0.00, -0.00, -1.00, 644.5, 273.2)">8</text><text xml:space="preserve" font-family="AvenirNext-Regular,Avenir Next" font-size="30.0" fill="#66635F" transform="matrix(1.00, 0.00, -0.00, -1.00, 661.9, 273.2)"> </text><text xml:space="preserve" font-family="AvenirNext-Regular,Avenir Next" font-size="30.0" fill="#66635F" transform="matrix(1.00, 0.00, -0.00, -1.00, 669.4, 273.2)">]</text><text xml:space="preserve" font-family="AvenirNext-Regular,Avenir Next" font-size="36.0" fill="#404040" transform="matrix(1.00, 0.00, -0.00, -1.00, 678.4, 273.2)"> </text><text xml:space="preserve" font-family="ZapfDingbatsITC,Zapf Dingbats" font-size="21.6" fill="#919191" transform="matrix(1.00, 0.00, -0.00, -1.00, 81.0, 203.3)">❖</text><text xml:space="preserve" font-family="AvenirNext-DemiBoldItalic,Avenir Next" font-style="italic" font-weight="bold" font-size="36.0" fill="#404040" transform="matrix(1.00, 0.00, -0.00, -1.00, 118.0, 200.2)">z</text><text xml:space="preserve" font-family="AvenirNext-DemiBoldItalic,Avenir Next" font-style="italic" font-weight="bold" font-size="36.0" fill="#404040" transform="matrix(1.00, 0.00, -0.00, -1.00, 135.3, 200.2)">e</text><text xml:space="preserve" font-family="AvenirNext-DemiBoldItalic,Avenir Next" font-style="italic" font-weight="bold" font-size="36.0" fill="#404040" transform="matrix(1.00, 0.00, -0.00, -1.00, 155.6, 200.2)">r</text><text xml:space="preserve" font-family="AvenirNext-DemiBoldItalic,Avenir Next" font-style="italic" font-weight="bold" font-size="36.0" fill="#404040" transform="matrix(1.00, 0.00, -0.00, -1.00, 167.4, 200.2)">o</text><text xml:space="preserve" font-family="AvenirNext-DemiBoldItalic,Avenir Next" font-style="italic" font-weight="bold" font-size="36.0" fill="#404040" transform="matrix(1.00, 0.00, -0.00, -1.00, 189.1, 200.2)">_</text><text xml:space="preserve" font-family="AvenirNext-DemiBoldItalic,Avenir Next" font-style="italic" font-weight="bold" font-size="36.0" fill="#404040" transform="matrix(1.00, 0.00, -0.00, -1.00, 207.1, 200.2)">t</text><text xml:space="preserve" font-family="AvenirNext-DemiBoldItalic,Avenir Next" font-style="italic" font-weight="bold" font-size="36.0" fill="#404040" transform="matrix(1.00, 0.00, -0.00, -1.00, 219.3, 200.2)">h</text><text xml:space="preserve" font-family="AvenirNext-DemiBoldItalic,Avenir Next" font-style="italic" font-weight="bold" font-size="36.0" fill="#404040" transform="matrix(1.00, 0.00, -0.00, -1.00, 240.4, 200.2)">r</text><text xml:space="preserve" font-family="AvenirNext-DemiBoldItalic,Avenir Next" font-style="italic" font-weight="bold" font-size="36.0" fill="#404040" transform="matrix(1.00, 0.00, -0.00, -1.00, 252.1, 200.2)">e</text><text xml:space="preserve" font-family="AvenirNext-DemiBoldItalic,Avenir Next" font-style="italic" font-weight="bold" font-size="36.0" fill="#404040" transform="matrix(1.00, 0.00, -0.00, -1.00, 272.4, 200.2)">s</text><text xml:space="preserve" font-family="AvenirNext-DemiBoldItalic,Avenir Next" font-style="italic" font-weight="bold" font-size="36.0" fill="#404040" transform="matrix(1.00, 0.00, -0.00, -1.00, 288.4, 200.2)">h</text><text xml:space="preserve" font-family="AvenirNext-DemiBoldItalic,Avenir Next" font-style="italic" font-weight="bold" font-size="36.0" fill="#404040" transform="matrix(1.00, 0.00, -0.00, -1.00, 309.4, 200.2)">o</text><text xml:space="preserve" font-family="AvenirNext-DemiBoldItalic,Avenir Next" font-style="italic" font-weight="bold" font-size="36.0" fill="#404040" transform="matrix(1.00, 0.00, -0.00, -1.00, 331.2, 200.2)">l</text><text xml:space="preserve" font-family="AvenirNext-DemiBoldItalic,Avenir Next" font-style="italic" font-weight="bold" font-size="36.0" fill="#404040" transform="matrix(1.00, 0.00, -0.00, -1.00, 340.8, 200.2)">d</text><text xml:space="preserve" font-family="AvenirNext-Regular,Avenir Next" font-size="36.0" fill="#404040" transform="matrix(1.00, 0.00, -0.00, -1.00, 363.6, 200.2)">:</text><text xml:space="preserve" font-family="AvenirNext-Regular,Avenir Next" font-size="36.0" fill="#404040" transform="matrix(1.00, 0.00, -0.00, -1.00, 374.4, 200.2)"> </text><text xml:space="preserve" font-family="AvenirNext-Regular,Avenir Next" font-size="36.0" fill="#404040" transform="matrix(1.00, 0.00, -0.00, -1.00, 383.4, 200.2)">[</text><text xml:space="preserve" font-family="AvenirNext-Regular,Avenir Next" font-size="36.0" fill="#404040" transform="matrix(1.00, 0.00, -0.00, -1.00, 394.2, 200.2)"> </text><text xml:space="preserve" font-family="AvenirNext-Regular,Avenir Next" font-size="36.0" fill="#404040" transform="matrix(1.00, 0.00, -0.00, -1.00, 403.2, 200.2)">0</text><text xml:space="preserve" font-family="AvenirNext-Regular,Avenir Next" font-size="36.0" fill="#404040" transform="matrix(1.00, 0.00, -0.00, -1.00, 424.1, 200.2)">:</text><text xml:space="preserve" font-family="AvenirNext-Regular,Avenir Next" font-size="36.0" fill="#404040" transform="matrix(1.00, 0.00, -0.00, -1.00, 434.9, 200.2)">0</text><text xml:space="preserve" font-family="AvenirNext-Regular,Avenir Next" font-size="36.0" fill="#404040" transform="matrix(1.00, 0.00, -0.00, -1.00, 455.8, 200.2)">.</text><text xml:space="preserve" font-family="AvenirNext-Regular,Avenir Next" font-size="36.0" fill="#404040" transform="matrix(1.00, 0.00, -0.00, -1.00, 465.1, 200.2)">0</text><text xml:space="preserve" font-family="AvenirNext-Regular,Avenir Next" font-size="36.0" fill="#404040" transform="matrix(1.00, 0.00, -0.00, -1.00, 486.0, 200.2)">5</text><text xml:space="preserve" font-family="AvenirNext-Regular,Avenir Next" font-size="36.0" fill="#404040" transform="matrix(1.00, 0.00, -0.00, -1.00, 506.9, 200.2)">:</text><text xml:space="preserve" font-family="AvenirNext-Regular,Avenir Next" font-size="36.0" fill="#404040" transform="matrix(1.00, 0.00, -0.00, -1.00, 517.7, 200.2)">1</text><text xml:space="preserve" font-family="AvenirNext-Regular,Avenir Next" font-size="36.0" fill="#404040" transform="matrix(1.00, 0.00, -0.00, -1.00, 538.6, 200.2)">.</text><text xml:space="preserve" font-family="AvenirNext-Regular,Avenir Next" font-size="36.0" fill="#404040" transform="matrix(1.00, 0.00, -0.00, -1.00, 547.9, 200.2)">5</text><text xml:space="preserve" font-family="AvenirNext-Regular,Avenir Next" font-size="36.0" fill="#404040" transform="matrix(1.00, 0.00, -0.00, -1.00, 568.8, 200.2)"> </text><text xml:space="preserve" font-family="AvenirNext-Regular,Avenir Next" font-size="36.0" fill="#404040" transform="matrix(1.00, 0.00, -0.00, -1.00, 577.8, 200.2)">]</text></g></svg>