<?xml version="1.0" encoding="UTF-8" standalone="no"?><svg xmlns="http://www.w3.org/2000/svg" xmlns:xlink="http://www.w3.org/1999/xlink" clip-rule="evenodd" stroke-miterlimit="10" viewBox="0 0 1024 768"><desc>SVG generated by Keynote</desc><defs></defs><g transform="matrix(1.00, 0.00, -0.00, -1.00, 0.0, 768.0)"><g><clipPath id="clip0x6000056b5fc0"><path d="M 0.0 768.0 L 1024.0 768.0 L 1024.0 0.0 L 0.0 0.0 Z M 0.0 768.0 "></path></clipPath><g clip-path="url(#clip0x6000056b5fc0)"><image xlink:href="../../62A57402-F52E-4D18-8FC0-8772A6409873/assets/5A8C990C4A4597A5304AC9F14CDA7C87.jpeg" width="2048.00" height="1536.00" transform="matrix(0.50, 0.00, -0.00, -0.50, 0.0, 768.0)"></image></g></g><g opacity="0.30"><g><clipPath id="clip0x6000058a9420"><path d="M 39.0 595.0 L 986.0 595.0 L 986.0 599.0 L 39.0 599.0 Z M 39.0 595.0 "></path></clipPath><g clip-path="url(#clip0x6000058a9420)"><path d="M 0.0 0.5 L 944.7 0.5 L 944.7 0.5 L 0.0 0.5 Z M 0.0 0.0 " fill="none" stroke="#434343" stroke-width="1.00" transform="matrix(1.00, 0.00, 0.00, -1.00, 40.0, 597.0)"></path></g></g></g><g opacity="0.30"><g><clipPath id="clip0x6000056be0c0"><path d="M 39.0 716.0 L 986.0 716.0 L 986.0 720.0 L 39.0 720.0 Z M 39.0 716.0 "></path></clipPath><g clip-path="url(#clip0x6000056be0c0)"><path d="M 0.0 0.5 L 944.7 0.5 L 944.7 0.5 L 0.0 0.5 Z M 0.0 0.0 " fill="none" stroke="#434343" stroke-width="1.00" transform="matrix(1.00, 0.00, 0.00, -1.00, 40.0, 718.0)"></path></g></g></g><text xml:space="preserve" font-family="AvenirNext-Regular,Avenir Next" font-size="64.4" fill="#D93D2A" transform="matrix(1.00, 0.00, -0.00, -1.00, 384.0, 636.6)">O</text><text xml:space="preserve" font-family="AvenirNext-Regular,Avenir Next" font-size="64.4" fill="#D93D2A" transform="matrix(1.00, 0.00, -0.00, -1.00, 438.7, 636.6)">b</text><text xml:space="preserve" font-family="AvenirNext-Regular,Avenir Next" font-size="64.4" fill="#D93D2A" transform="matrix(1.00, 0.00, -0.00, -1.00, 479.7, 636.6)">j</text><text xml:space="preserve" font-family="AvenirNext-Regular,Avenir Next" font-size="64.4" fill="#D93D2A" transform="matrix(1.00, 0.00, -0.00, -1.00, 495.9, 636.6)">e</text><text xml:space="preserve" font-family="AvenirNext-Regular,Avenir Next" font-size="64.4" fill="#D93D2A" transform="matrix(1.00, 0.00, -0.00, -1.00, 532.7, 636.6)">t</text><text xml:space="preserve" font-family="AvenirNext-Regular,Avenir Next" font-size="64.4" fill="#D93D2A" transform="matrix(1.00, 0.00, -0.00, -1.00, 553.2, 636.6)">i</text><text xml:space="preserve" font-family="AvenirNext-Regular,Avenir Next" font-size="64.4" fill="#D93D2A" transform="matrix(1.00, 0.00, -0.00, -1.00, 569.3, 636.6)">v</text><text xml:space="preserve" font-family="AvenirNext-Regular,Avenir Next" font-size="64.4" fill="#D93D2A" transform="matrix(1.00, 0.00, -0.00, -1.00, 600.7, 636.6)">o</text><text xml:space="preserve" font-family="ZapfDingbatsITC,Zapf Dingbats" font-size="21.0" fill="#919191" transform="matrix(1.00, 0.00, -0.00, -1.00, 44.0, 385.2)">❖</text><text xml:space="preserve" font-family="AvenirNext-Regular,Avenir Next" font-size="35.0" fill="#404040" transform="matrix(1.00, 0.00, -0.00, -1.00, 80.0, 381.8)">D</text><text xml:space="preserve" font-family="AvenirNext-Regular,Avenir Next" font-size="35.0" fill="#404040" transform="matrix(1.00, 0.00, -0.00, -1.00, 106.5, 381.8)">e</text><text xml:space="preserve" font-family="AvenirNext-Regular,Avenir Next" font-size="35.0" fill="#404040" transform="matrix(1.00, 0.00, -0.00, -1.00, 126.5, 381.8)">s</text><text xml:space="preserve" font-family="AvenirNext-Regular,Avenir Next" font-size="35.0" fill="#404040" transform="matrix(1.00, 0.00, -0.00, -1.00, 142.0, 381.8)">e</text><text xml:space="preserve" font-family="AvenirNext-Regular,Avenir Next" font-size="35.0" fill="#404040" transform="matrix(1.00, 0.00, -0.00, -1.00, 162.0, 381.8)">n</text><text xml:space="preserve" font-family="AvenirNext-Regular,Avenir Next" font-size="35.0" fill="#404040" transform="matrix(1.00, 0.00, -0.00, -1.00, 182.4, 381.8)">v</text><text xml:space="preserve" font-family="AvenirNext-Regular,Avenir Next" font-size="35.0" fill="#404040" transform="matrix(1.00, 0.00, -0.00, -1.00, 199.5, 381.8)">o</text><text xml:space="preserve" font-family="AvenirNext-Regular,Avenir Next" font-size="35.0" fill="#404040" transform="matrix(1.00, 0.00, -0.00, -1.00, 220.8, 381.8)">l</text><text xml:space="preserve" font-family="AvenirNext-Regular,Avenir Next" font-size="35.0" fill="#404040" transform="matrix(1.00, 0.00, -0.00, -1.00, 229.7, 381.8)">v</text><text xml:space="preserve" font-family="AvenirNext-Regular,Avenir Next" font-size="35.0" fill="#404040" transform="matrix(1.00, 0.00, -0.00, -1.00, 246.7, 381.8)">e</text><text xml:space="preserve" font-family="AvenirNext-Regular,Avenir Next" font-size="35.0" fill="#404040" transform="matrix(1.00, 0.00, -0.00, -1.00, 266.8, 381.8)">r</text><text xml:space="preserve" font-family="AvenirNext-Regular,Avenir Next" font-size="35.0" fill="#404040" transform="matrix(1.00, 0.00, -0.00, -1.00, 279.4, 381.8)"> </text><text xml:space="preserve" font-family="AvenirNext-Regular,Avenir Next" font-size="35.0" fill="#404040" transform="matrix(1.00, 0.00, -0.00, -1.00, 288.1, 381.8)">e</text><text xml:space="preserve" font-family="AvenirNext-Regular,Avenir Next" font-size="35.0" fill="#404040" transform="matrix(1.00, 0.00, -0.00, -1.00, 308.1, 381.8)"> </text><text xml:space="preserve" font-family="AvenirNext-Regular,Avenir Next" font-size="35.0" fill="#404040" transform="matrix(1.00, 0.00, -0.00, -1.00, 316.9, 381.8)">a</text><text xml:space="preserve" font-family="AvenirNext-Regular,Avenir Next" font-size="35.0" fill="#404040" transform="matrix(1.00, 0.00, -0.00, -1.00, 335.6, 381.8)">v</text><text xml:space="preserve" font-family="AvenirNext-Regular,Avenir Next" font-size="35.0" fill="#404040" transform="matrix(1.00, 0.00, -0.00, -1.00, 352.7, 381.8)">a</text><text xml:space="preserve" font-family="AvenirNext-Regular,Avenir Next" font-size="35.0" fill="#404040" transform="matrix(1.00, 0.00, -0.00, -1.00, 371.3, 381.8)">l</text><text xml:space="preserve" font-family="AvenirNext-Regular,Avenir Next" font-size="35.0" fill="#404040" transform="matrix(1.00, 0.00, -0.00, -1.00, 380.2, 381.8)">i</text><text xml:space="preserve" font-family="AvenirNext-Regular,Avenir Next" font-size="35.0" fill="#404040" transform="matrix(1.00, 0.00, -0.00, -1.00, 388.9, 381.8)">a</text><text xml:space="preserve" font-family="AvenirNext-Regular,Avenir Next" font-size="35.0" fill="#404040" transform="matrix(1.00, 0.00, -0.00, -1.00, 407.6, 381.8)">r</text><text xml:space="preserve" font-family="AvenirNext-Regular,Avenir Next" font-size="35.0" fill="#404040" transform="matrix(1.00, 0.00, -0.00, -1.00, 420.2, 381.8)"> </text><text xml:space="preserve" font-family="AvenirNext-DemiBold,Avenir Next" font-weight="bold" font-size="35.0" fill="#404040" transform="matrix(1.00, 0.00, -0.00, -1.00, 429.0, 381.8)">u</text><text xml:space="preserve" font-family="AvenirNext-DemiBold,Avenir Next" font-weight="bold" font-size="35.0" fill="#404040" transform="matrix(1.00, 0.00, -0.00, -1.00, 449.3, 381.8)">m</text><text xml:space="preserve" font-family="AvenirNext-DemiBold,Avenir Next" font-weight="bold" font-size="35.0" fill="#404040" transform="matrix(1.00, 0.00, -0.00, -1.00, 480.5, 381.8)"> </text><text xml:space="preserve" font-family="AvenirNext-DemiBold,Avenir Next" font-weight="bold" font-size="35.0" fill="#404040" transform="matrix(1.00, 0.00, -0.00, -1.00, 489.2, 381.8)">c</text><text xml:space="preserve" font-family="AvenirNext-DemiBold,Avenir Next" font-weight="bold" font-size="35.0" fill="#404040" transform="matrix(1.00, 0.00, -0.00, -1.00, 506.3, 381.8)">o</text><text xml:space="preserve" font-family="AvenirNext-DemiBold,Avenir Next" font-weight="bold" font-size="35.0" fill="#404040" transform="matrix(1.00, 0.00, -0.00, -1.00, 527.7, 381.8)">n</text><text xml:space="preserve" font-family="AvenirNext-DemiBold,Avenir Next" font-weight="bold" font-size="35.0" fill="#404040" transform="matrix(1.00, 0.00, -0.00, -1.00, 548.0, 381.8)">j</text><text xml:space="preserve" font-family="AvenirNext-DemiBold,Avenir Next" font-weight="bold" font-size="35.0" fill="#404040" transform="matrix(1.00, 0.00, -0.00, -1.00, 557.4, 381.8)">u</text><text xml:space="preserve" font-family="AvenirNext-DemiBold,Avenir Next" font-weight="bold" font-size="35.0" fill="#404040" transform="matrix(1.00, 0.00, -0.00, -1.00, 577.8, 381.8)">n</text><text xml:space="preserve" font-family="AvenirNext-DemiBold,Avenir Next" font-weight="bold" font-size="35.0" fill="#404040" transform="matrix(1.00, 0.00, -0.00, -1.00, 598.1, 381.8)">t</text><text xml:space="preserve" font-family="AvenirNext-DemiBold,Avenir Next" font-weight="bold" font-size="35.0" fill="#404040" transform="matrix(1.00, 0.00, -0.00, -1.00, 610.0, 381.8)">o</text><text xml:space="preserve" font-family="AvenirNext-DemiBold,Avenir Next" font-weight="bold" font-size="35.0" fill="#404040" transform="matrix(1.00, 0.00, -0.00, -1.00, 631.4, 381.8)"> </text><text xml:space="preserve" font-family="AvenirNext-DemiBold,Avenir Next" font-weight="bold" font-size="35.0" fill="#404040" transform="matrix(1.00, 0.00, -0.00, -1.00, 640.1, 381.8)">d</text><text xml:space="preserve" font-family="AvenirNext-DemiBold,Avenir Next" font-weight="bold" font-size="35.0" fill="#404040" transform="matrix(1.00, 0.00, -0.00, -1.00, 662.3, 381.8)">e</text><text xml:space="preserve" font-family="AvenirNext-DemiBold,Avenir Next" font-weight="bold" font-size="35.0" fill="#404040" transform="matrix(1.00, 0.00, -0.00, -1.00, 682.4, 381.8)"> </text><text xml:space="preserve" font-family="AvenirNext-DemiBold,Avenir Next" font-weight="bold" font-size="35.0" fill="#404040" transform="matrix(1.00, 0.00, -0.00, -1.00, 691.2, 381.8)">t</text><text xml:space="preserve" font-family="AvenirNext-DemiBold,Avenir Next" font-weight="bold" font-size="35.0" fill="#404040" transform="matrix(1.00, 0.00, -0.00, -1.00, 703.1, 381.8)">é</text><text xml:space="preserve" font-family="AvenirNext-DemiBold,Avenir Next" font-weight="bold" font-size="35.0" fill="#404040" transform="matrix(1.00, 0.00, -0.00, -1.00, 723.2, 381.8)">c</text><text xml:space="preserve" font-family="AvenirNext-DemiBold,Avenir Next" font-weight="bold" font-size="35.0" fill="#404040" transform="matrix(1.00, 0.00, -0.00, -1.00, 740.2, 381.8)">n</text><text xml:space="preserve" font-family="AvenirNext-DemiBold,Avenir Next" font-weight="bold" font-size="35.0" fill="#404040" transform="matrix(1.00, 0.00, -0.00, -1.00, 760.6, 381.8)">i</text><text xml:space="preserve" font-family="AvenirNext-DemiBold,Avenir Next" font-weight="bold" font-size="35.0" fill="#404040" transform="matrix(1.00, 0.00, -0.00, -1.00, 770.0, 381.8)">c</text><text xml:space="preserve" font-family="AvenirNext-DemiBold,Avenir Next" font-weight="bold" font-size="35.0" fill="#404040" transform="matrix(1.00, 0.00, -0.00, -1.00, 787.1, 381.8)">a</text><text xml:space="preserve" font-family="AvenirNext-DemiBold,Avenir Next" font-weight="bold" font-size="35.0" fill="#404040" transform="matrix(1.00, 0.00, -0.00, -1.00, 806.3, 381.8)">s</text><text xml:space="preserve" font-family="AvenirNext-Regular,Avenir Next" font-size="35.0" fill="#404040" transform="matrix(1.00, 0.00, -0.00, -1.00, 821.9, 381.8)"> </text><text xml:space="preserve" font-family="AvenirNext-Regular,Avenir Next" font-size="35.0" fill="#404040" transform="matrix(1.00, 0.00, -0.00, -1.00, 830.6, 381.8)">q</text><text xml:space="preserve" font-family="AvenirNext-Regular,Avenir Next" font-size="35.0" fill="#404040" transform="matrix(1.00, 0.00, -0.00, -1.00, 852.8, 381.8)">u</text><text xml:space="preserve" font-family="AvenirNext-Regular,Avenir Next" font-size="35.0" fill="#404040" transform="matrix(1.00, 0.00, -0.00, -1.00, 873.2, 381.8)">e</text><text xml:space="preserve" font-family="AvenirNext-Regular,Avenir Next" font-size="35.0" fill="#404040" transform="matrix(1.00, 0.00, -0.00, -1.00, 893.2, 381.8)"> </text><text xml:space="preserve" font-family="AvenirNext-Regular,Avenir Next" font-size="35.0" fill="#404040" transform="matrix(1.00, 0.00, -0.00, -1.00, 80.0, 333.8)">p</text><text xml:space="preserve" font-family="AvenirNext-Regular,Avenir Next" font-size="35.0" fill="#404040" transform="matrix(1.00, 0.00, -0.00, -1.00, 102.2, 333.8)">r</text><text xml:space="preserve" font-family="AvenirNext-Regular,Avenir Next" font-size="35.0" fill="#404040" transform="matrix(1.00, 0.00, -0.00, -1.00, 114.2, 333.8)">o</text><text xml:space="preserve" font-family="AvenirNext-Regular,Avenir Next" font-size="35.0" fill="#404040" transform="matrix(1.00, 0.00, -0.00, -1.00, 135.6, 333.8)">m</text><text xml:space="preserve" font-family="AvenirNext-Regular,Avenir Next" font-size="35.0" fill="#404040" transform="matrix(1.00, 0.00, -0.00, -1.00, 166.5, 333.8)">o</text><text xml:space="preserve" font-family="AvenirNext-Regular,Avenir Next" font-size="35.0" fill="#404040" transform="matrix(1.00, 0.00, -0.00, -1.00, 187.8, 333.8)">v</text><text xml:space="preserve" font-family="AvenirNext-Regular,Avenir Next" font-size="35.0" fill="#404040" transform="matrix(1.00, 0.00, -0.00, -1.00, 204.9, 333.8)">a</text><text xml:space="preserve" font-family="AvenirNext-Regular,Avenir Next" font-size="35.0" fill="#404040" transform="matrix(1.00, 0.00, -0.00, -1.00, 223.6, 333.8)">m</text><text xml:space="preserve" font-family="AvenirNext-Regular,Avenir Next" font-size="35.0" fill="#404040" transform="matrix(1.00, 0.00, -0.00, -1.00, 254.5, 333.8)"> </text><text xml:space="preserve" font-family="AvenirNext-Regular,Avenir Next" font-size="35.0" fill="#404040" transform="matrix(1.00, 0.00, -0.00, -1.00, 263.3, 333.8)">a</text><text xml:space="preserve" font-family="AvenirNext-Regular,Avenir Next" font-size="35.0" fill="#404040" transform="matrix(1.00, 0.00, -0.00, -1.00, 282.0, 333.8)"> </text><text xml:space="preserve" font-family="AvenirNext-Regular,Avenir Next" font-size="35.0" fill="#404040" transform="matrix(1.00, 0.00, -0.00, -1.00, 290.7, 333.8)">r</text><text xml:space="preserve" font-family="AvenirNext-Regular,Avenir Next" font-size="35.0" fill="#404040" transform="matrix(1.00, 0.00, -0.00, -1.00, 302.7, 333.8)">e</text><text xml:space="preserve" font-family="AvenirNext-Regular,Avenir Next" font-size="35.0" fill="#404040" transform="matrix(1.00, 0.00, -0.00, -1.00, 322.7, 333.8)">d</text><text xml:space="preserve" font-family="AvenirNext-Regular,Avenir Next" font-size="35.0" fill="#404040" transform="matrix(1.00, 0.00, -0.00, -1.00, 345.0, 333.8)">u</text><text xml:space="preserve" font-family="AvenirNext-Regular,Avenir Next" font-size="35.0" fill="#404040" transform="matrix(1.00, 0.00, -0.00, -1.00, 365.3, 333.8)">ç</text><text xml:space="preserve" font-family="AvenirNext-Regular,Avenir Next" font-size="35.0" fill="#404040" transform="matrix(1.00, 0.00, -0.00, -1.00, 382.8, 333.8)">ã</text><text xml:space="preserve" font-family="AvenirNext-Regular,Avenir Next" font-size="35.0" fill="#404040" transform="matrix(1.00, 0.00, -0.00, -1.00, 401.5, 333.8)">o</text><text xml:space="preserve" font-family="AvenirNext-Regular,Avenir Next" font-size="35.0" fill="#404040" transform="matrix(1.00, 0.00, -0.00, -1.00, 422.9, 333.8)"> </text><text xml:space="preserve" font-family="AvenirNext-Regular,Avenir Next" font-size="35.0" fill="#404040" transform="matrix(1.00, 0.00, -0.00, -1.00, 431.7, 333.8)">d</text><text xml:space="preserve" font-family="AvenirNext-Regular,Avenir Next" font-size="35.0" fill="#404040" transform="matrix(1.00, 0.00, -0.00, -1.00, 453.9, 333.8)">e</text><text xml:space="preserve" font-family="AvenirNext-Regular,Avenir Next" font-size="35.0" fill="#404040" transform="matrix(1.00, 0.00, -0.00, -1.00, 474.0, 333.8)"> </text><text xml:space="preserve" font-family="AvenirNext-Regular,Avenir Next" font-size="35.0" fill="#404040" transform="matrix(1.00, 0.00, -0.00, -1.00, 482.7, 333.8)">c</text><text xml:space="preserve" font-family="AvenirNext-Regular,Avenir Next" font-size="35.0" fill="#404040" transform="matrix(1.00, 0.00, -0.00, -1.00, 500.2, 333.8)">o</text><text xml:space="preserve" font-family="AvenirNext-Regular,Avenir Next" font-size="35.0" fill="#404040" transform="matrix(1.00, 0.00, -0.00, -1.00, 521.6, 333.8)">m</text><text xml:space="preserve" font-family="AvenirNext-Regular,Avenir Next" font-size="35.0" fill="#404040" transform="matrix(1.00, 0.00, -0.00, -1.00, 552.5, 333.8)">p</text><text xml:space="preserve" font-family="AvenirNext-Regular,Avenir Next" font-size="35.0" fill="#404040" transform="matrix(1.00, 0.00, -0.00, -1.00, 574.7, 333.8)">l</text><text xml:space="preserve" font-family="AvenirNext-Regular,Avenir Next" font-size="35.0" fill="#404040" transform="matrix(1.00, 0.00, -0.00, -1.00, 583.6, 333.8)">e</text><text xml:space="preserve" font-family="AvenirNext-Regular,Avenir Next" font-size="35.0" fill="#404040" transform="matrix(1.00, 0.00, -0.00, -1.00, 603.4, 333.8)">x</text><text xml:space="preserve" font-family="AvenirNext-Regular,Avenir Next" font-size="35.0" fill="#404040" transform="matrix(1.00, 0.00, -0.00, -1.00, 620.3, 333.8)">i</text><text xml:space="preserve" font-family="AvenirNext-Regular,Avenir Next" font-size="35.0" fill="#404040" transform="matrix(1.00, 0.00, -0.00, -1.00, 629.1, 333.8)">d</text><text xml:space="preserve" font-family="AvenirNext-Regular,Avenir Next" font-size="35.0" fill="#404040" transform="matrix(1.00, 0.00, -0.00, -1.00, 651.3, 333.8)">a</text><text xml:space="preserve" font-family="AvenirNext-Regular,Avenir Next" font-size="35.0" fill="#404040" transform="matrix(1.00, 0.00, -0.00, -1.00, 670.0, 333.8)">d</text><text xml:space="preserve" font-family="AvenirNext-Regular,Avenir Next" font-size="35.0" fill="#404040" transform="matrix(1.00, 0.00, -0.00, -1.00, 692.3, 333.8)">e</text><text xml:space="preserve" font-family="AvenirNext-Regular,Avenir Next" font-size="35.0" fill="#404040" transform="matrix(1.00, 0.00, -0.00, -1.00, 712.4, 333.8)"> </text><text xml:space="preserve" font-family="AvenirNext-Regular,Avenir Next" font-size="35.0" fill="#404040" transform="matrix(1.00, 0.00, -0.00, -1.00, 721.1, 333.8)">c</text><text xml:space="preserve" font-family="AvenirNext-Regular,Avenir Next" font-size="35.0" fill="#404040" transform="matrix(1.00, 0.00, -0.00, -1.00, 738.6, 333.8)">o</text><text xml:space="preserve" font-family="AvenirNext-Regular,Avenir Next" font-size="35.0" fill="#404040" transform="matrix(1.00, 0.00, -0.00, -1.00, 760.0, 333.8)">m</text><text xml:space="preserve" font-family="AvenirNext-Regular,Avenir Next" font-size="35.0" fill="#404040" transform="matrix(1.00, 0.00, -0.00, -1.00, 790.9, 333.8)">p</text><text xml:space="preserve" font-family="AvenirNext-Regular,Avenir Next" font-size="35.0" fill="#404040" transform="matrix(1.00, 0.00, -0.00, -1.00, 813.1, 333.8)">u</text><text xml:space="preserve" font-family="AvenirNext-Regular,Avenir Next" font-size="35.0" fill="#404040" transform="matrix(1.00, 0.00, -0.00, -1.00, 833.5, 333.8)">t</text><text xml:space="preserve" font-family="AvenirNext-Regular,Avenir Next" font-size="35.0" fill="#404040" transform="matrix(1.00, 0.00, -0.00, -1.00, 844.5, 333.8)">a</text><text xml:space="preserve" font-family="AvenirNext-Regular,Avenir Next" font-size="35.0" fill="#404040" transform="matrix(1.00, 0.00, -0.00, -1.00, 863.2, 333.8)">c</text><text xml:space="preserve" font-family="AvenirNext-Regular,Avenir Next" font-size="35.0" fill="#404040" transform="matrix(1.00, 0.00, -0.00, -1.00, 880.7, 333.8)">i</text><text xml:space="preserve" font-family="AvenirNext-Regular,Avenir Next" font-size="35.0" fill="#404040" transform="matrix(1.00, 0.00, -0.00, -1.00, 889.5, 333.8)">o</text><text xml:space="preserve" font-family="AvenirNext-Regular,Avenir Next" font-size="35.0" fill="#404040" transform="matrix(1.00, 0.00, -0.00, -1.00, 910.9, 333.8)">n</text><text xml:space="preserve" font-family="AvenirNext-Regular,Avenir Next" font-size="35.0" fill="#404040" transform="matrix(1.00, 0.00, -0.00, -1.00, 931.2, 333.8)">a</text><text xml:space="preserve" font-family="AvenirNext-Regular,Avenir Next" font-size="35.0" fill="#404040" transform="matrix(1.00, 0.00, -0.00, -1.00, 949.9, 333.8)">l</text><text xml:space="preserve" font-family="AvenirNext-Regular,Avenir Next" font-size="35.0" fill="#404040" transform="matrix(1.00, 0.00, -0.00, -1.00, 958.7, 333.8)"> </text><text xml:space="preserve" font-family="AvenirNext-Regular,Avenir Next" font-size="35.0" fill="#404040" transform="matrix(1.00, 0.00, -0.00, -1.00, 80.0, 285.8)">e</text><text xml:space="preserve" font-family="AvenirNext-Regular,Avenir Next" font-size="35.0" fill="#404040" transform="matrix(1.00, 0.00, -0.00, -1.00, 100.0, 285.8)">m</text><text xml:space="preserve" font-family="AvenirNext-Regular,Avenir Next" font-size="35.0" fill="#404040" transform="matrix(1.00, 0.00, -0.00, -1.00, 130.9, 285.8)"> </text><text xml:space="preserve" font-family="AvenirNext-Regular,Avenir Next" font-size="35.0" fill="#404040" transform="matrix(1.00, 0.00, -0.00, -1.00, 139.6, 285.8)">a</text><text xml:space="preserve" font-family="AvenirNext-Regular,Avenir Next" font-size="35.0" fill="#404040" transform="matrix(1.00, 0.00, -0.00, -1.00, 158.3, 285.8)">l</text><text xml:space="preserve" font-family="AvenirNext-Regular,Avenir Next" font-size="35.0" fill="#404040" transform="matrix(1.00, 0.00, -0.00, -1.00, 167.2, 285.8)">g</text><text xml:space="preserve" font-family="AvenirNext-Regular,Avenir Next" font-size="35.0" fill="#404040" transform="matrix(1.00, 0.00, -0.00, -1.00, 189.3, 285.8)">o</text><text xml:space="preserve" font-family="AvenirNext-Regular,Avenir Next" font-size="35.0" fill="#404040" transform="matrix(1.00, 0.00, -0.00, -1.00, 210.7, 285.8)">r</text><text xml:space="preserve" font-family="AvenirNext-Regular,Avenir Next" font-size="35.0" fill="#404040" transform="matrix(1.00, 0.00, -0.00, -1.00, 223.3, 285.8)">i</text><text xml:space="preserve" font-family="AvenirNext-Regular,Avenir Next" font-size="35.0" fill="#404040" transform="matrix(1.00, 0.00, -0.00, -1.00, 232.0, 285.8)">t</text><text xml:space="preserve" font-family="AvenirNext-Regular,Avenir Next" font-size="35.0" fill="#404040" transform="matrix(1.00, 0.00, -0.00, -1.00, 243.1, 285.8)">m</text><text xml:space="preserve" font-family="AvenirNext-Regular,Avenir Next" font-size="35.0" fill="#404040" transform="matrix(1.00, 0.00, -0.00, -1.00, 274.0, 285.8)">o</text><text xml:space="preserve" font-family="AvenirNext-Regular,Avenir Next" font-size="35.0" fill="#404040" transform="matrix(1.00, 0.00, -0.00, -1.00, 295.4, 285.8)">s</text><text xml:space="preserve" font-family="AvenirNext-Regular,Avenir Next" font-size="35.0" fill="#404040" transform="matrix(1.00, 0.00, -0.00, -1.00, 310.9, 285.8)"> </text><text xml:space="preserve" font-family="AvenirNext-Regular,Avenir Next" font-size="35.0" fill="#404040" transform="matrix(1.00, 0.00, -0.00, -1.00, 319.7, 285.8)">d</text><text xml:space="preserve" font-family="AvenirNext-Regular,Avenir Next" font-size="35.0" fill="#404040" transform="matrix(1.00, 0.00, -0.00, -1.00, 342.0, 285.8)">o</text><text xml:space="preserve" font-family="AvenirNext-Regular,Avenir Next" font-size="35.0" fill="#404040" transform="matrix(1.00, 0.00, -0.00, -1.00, 363.4, 285.8)"> </text><text xml:space="preserve" font-family="AvenirNext-Regular,Avenir Next" font-size="35.0" fill="#404040" transform="matrix(1.00, 0.00, -0.00, -1.00, 372.1, 285.8)">e</text><text xml:space="preserve" font-family="AvenirNext-Regular,Avenir Next" font-size="35.0" fill="#404040" transform="matrix(1.00, 0.00, -0.00, -1.00, 392.1, 285.8)">s</text><text xml:space="preserve" font-family="AvenirNext-Regular,Avenir Next" font-size="35.0" fill="#404040" transform="matrix(1.00, 0.00, -0.00, -1.00, 407.7, 285.8)">t</text><text xml:space="preserve" font-family="AvenirNext-Regular,Avenir Next" font-size="35.0" fill="#404040" transform="matrix(1.00, 0.00, -0.00, -1.00, 418.8, 285.8)">a</text><text xml:space="preserve" font-family="AvenirNext-Regular,Avenir Next" font-size="35.0" fill="#404040" transform="matrix(1.00, 0.00, -0.00, -1.00, 437.5, 285.8)">d</text><text xml:space="preserve" font-family="AvenirNext-Regular,Avenir Next" font-size="35.0" fill="#404040" transform="matrix(1.00, 0.00, -0.00, -1.00, 459.8, 285.8)">o</text><text xml:space="preserve" font-family="AvenirNext-Regular,Avenir Next" font-size="35.0" fill="#404040" transform="matrix(1.00, 0.00, -0.00, -1.00, 481.1, 285.8)"> </text><text xml:space="preserve" font-family="AvenirNext-Regular,Avenir Next" font-size="35.0" fill="#404040" transform="matrix(1.00, 0.00, -0.00, -1.00, 489.9, 285.8)">d</text><text xml:space="preserve" font-family="AvenirNext-Regular,Avenir Next" font-size="35.0" fill="#404040" transform="matrix(1.00, 0.00, -0.00, -1.00, 512.2, 285.8)">a</text><text xml:space="preserve" font-family="AvenirNext-Regular,Avenir Next" font-size="35.0" fill="#404040" transform="matrix(1.00, 0.00, -0.00, -1.00, 530.9, 285.8)"> </text><text xml:space="preserve" font-family="AvenirNext-Regular,Avenir Next" font-size="35.0" fill="#404040" transform="matrix(1.00, 0.00, -0.00, -1.00, 539.6, 285.8)">a</text><text xml:space="preserve" font-family="AvenirNext-Regular,Avenir Next" font-size="35.0" fill="#404040" transform="matrix(1.00, 0.00, -0.00, -1.00, 558.3, 285.8)">r</text><text xml:space="preserve" font-family="AvenirNext-Regular,Avenir Next" font-size="35.0" fill="#404040" transform="matrix(1.00, 0.00, -0.00, -1.00, 570.5, 285.8)">t</text><text xml:space="preserve" font-family="AvenirNext-Regular,Avenir Next" font-size="35.0" fill="#404040" transform="matrix(1.00, 0.00, -0.00, -1.00, 581.6, 285.8)">e</text><text xml:space="preserve" font-family="AvenirNext-Regular,Avenir Next" font-size="35.0" fill="#404040" transform="matrix(1.00, 0.00, -0.00, -1.00, 601.6, 285.8)"> </text><text xml:space="preserve" font-family="AvenirNext-Regular,Avenir Next" font-size="35.0" fill="#404040" transform="matrix(1.00, 0.00, -0.00, -1.00, 610.4, 285.8)">d</text><text xml:space="preserve" font-family="AvenirNext-Regular,Avenir Next" font-size="35.0" fill="#404040" transform="matrix(1.00, 0.00, -0.00, -1.00, 632.7, 285.8)">e</text><text xml:space="preserve" font-family="AvenirNext-Regular,Avenir Next" font-size="35.0" fill="#404040" transform="matrix(1.00, 0.00, -0.00, -1.00, 652.7, 285.8)"> </text><text xml:space="preserve" font-family="AvenirNext-Regular,Avenir Next" font-size="35.0" fill="#404040" transform="matrix(1.00, 0.00, -0.00, -1.00, 661.4, 285.8)">c</text><text xml:space="preserve" font-family="AvenirNext-Regular,Avenir Next" font-size="35.0" fill="#404040" transform="matrix(1.00, 0.00, -0.00, -1.00, 678.9, 285.8)">l</text><text xml:space="preserve" font-family="AvenirNext-Regular,Avenir Next" font-size="35.0" fill="#404040" transform="matrix(1.00, 0.00, -0.00, -1.00, 687.7, 285.8)">a</text><text xml:space="preserve" font-family="AvenirNext-Regular,Avenir Next" font-size="35.0" fill="#404040" transform="matrix(1.00, 0.00, -0.00, -1.00, 706.4, 285.8)">s</text><text xml:space="preserve" font-family="AvenirNext-Regular,Avenir Next" font-size="35.0" fill="#404040" transform="matrix(1.00, 0.00, -0.00, -1.00, 722.0, 285.8)">s</text><text xml:space="preserve" font-family="AvenirNext-Regular,Avenir Next" font-size="35.0" fill="#404040" transform="matrix(1.00, 0.00, -0.00, -1.00, 737.5, 285.8)">i</text><text xml:space="preserve" font-family="AvenirNext-Regular,Avenir Next" font-size="35.0" fill="#404040" transform="matrix(1.00, 0.00, -0.00, -1.00, 746.3, 285.8)">ﬁ</text><text xml:space="preserve" font-family="AvenirNext-Regular,Avenir Next" font-size="35.0" fill="#404040" transform="matrix(1.00, 0.00, -0.00, -1.00, 765.3, 285.8)">c</text><text xml:space="preserve" font-family="AvenirNext-Regular,Avenir Next" font-size="35.0" fill="#404040" transform="matrix(1.00, 0.00, -0.00, -1.00, 782.8, 285.8)">a</text><text xml:space="preserve" font-family="AvenirNext-Regular,Avenir Next" font-size="35.0" fill="#404040" transform="matrix(1.00, 0.00, -0.00, -1.00, 801.5, 285.8)">ç</text><text xml:space="preserve" font-family="AvenirNext-Regular,Avenir Next" font-size="35.0" fill="#404040" transform="matrix(1.00, 0.00, -0.00, -1.00, 819.0, 285.8)">ã</text><text xml:space="preserve" font-family="AvenirNext-Regular,Avenir Next" font-size="35.0" fill="#404040" transform="matrix(1.00, 0.00, -0.00, -1.00, 837.7, 285.8)">o</text><text xml:space="preserve" font-family="AvenirNext-Regular,Avenir Next" font-size="35.0" fill="#404040" transform="matrix(1.00, 0.00, -0.00, -1.00, 859.1, 285.8)"> </text><text xml:space="preserve" font-family="AvenirNext-Regular,Avenir Next" font-size="35.0" fill="#404040" transform="matrix(1.00, 0.00, -0.00, -1.00, 867.8, 285.8)">d</text><text xml:space="preserve" font-family="AvenirNext-Regular,Avenir Next" font-size="35.0" fill="#404040" transform="matrix(1.00, 0.00, -0.00, -1.00, 890.1, 285.8)">e</text><text xml:space="preserve" font-family="AvenirNext-Regular,Avenir Next" font-size="35.0" fill="#404040" transform="matrix(1.00, 0.00, -0.00, -1.00, 910.1, 285.8)"> </text><text xml:space="preserve" font-family="AvenirNext-Regular,Avenir Next" font-size="35.0" fill="#404040" transform="matrix(1.00, 0.00, -0.00, -1.00, 80.0, 237.8)">s</text><text xml:space="preserve" font-family="AvenirNext-Regular,Avenir Next" font-size="35.0" fill="#404040" transform="matrix(1.00, 0.00, -0.00, -1.00, 95.5, 237.8)">i</text><text xml:space="preserve" font-family="AvenirNext-Regular,Avenir Next" font-size="35.0" fill="#404040" transform="matrix(1.00, 0.00, -0.00, -1.00, 104.3, 237.8)">n</text><text xml:space="preserve" font-family="AvenirNext-Regular,Avenir Next" font-size="35.0" fill="#404040" transform="matrix(1.00, 0.00, -0.00, -1.00, 124.6, 237.8)">a</text><text xml:space="preserve" font-family="AvenirNext-Regular,Avenir Next" font-size="35.0" fill="#404040" transform="matrix(1.00, 0.00, -0.00, -1.00, 143.3, 237.8)">i</text><text xml:space="preserve" font-family="AvenirNext-Regular,Avenir Next" font-size="35.0" fill="#404040" transform="matrix(1.00, 0.00, -0.00, -1.00, 152.0, 237.8)">s</text><text xml:space="preserve" font-family="AvenirNext-Regular,Avenir Next" font-size="35.0" fill="#404040" transform="matrix(1.00, 0.00, -0.00, -1.00, 167.6, 237.8)"> </text><text xml:space="preserve" font-family="AvenirNext-Regular,Avenir Next" font-size="35.0" fill="#404040" transform="matrix(1.00, 0.00, -0.00, -1.00, 176.3, 237.8)">d</text><text xml:space="preserve" font-family="AvenirNext-Regular,Avenir Next" font-size="35.0" fill="#404040" transform="matrix(1.00, 0.00, -0.00, -1.00, 198.6, 237.8)">e</text><text xml:space="preserve" font-family="AvenirNext-Regular,Avenir Next" font-size="35.0" fill="#404040" transform="matrix(1.00, 0.00, -0.00, -1.00, 218.6, 237.8)"> </text><text xml:space="preserve" font-family="AvenirNext-Regular,Avenir Next" font-size="35.0" fill="#404040" transform="matrix(1.00, 0.00, -0.00, -1.00, 227.4, 237.8)">E</text><text xml:space="preserve" font-family="AvenirNext-Regular,Avenir Next" font-size="35.0" fill="#404040" transform="matrix(1.00, 0.00, -0.00, -1.00, 248.1, 237.8)">E</text><text xml:space="preserve" font-family="AvenirNext-Regular,Avenir Next" font-size="35.0" fill="#404040" transform="matrix(1.00, 0.00, -0.00, -1.00, 268.8, 237.8)">G</text></g></svg>