<?xml version="1.0" encoding="UTF-8" standalone="no"?><svg xmlns="http://www.w3.org/2000/svg" xmlns:xlink="http://www.w3.org/1999/xlink" clip-rule="evenodd" stroke-miterlimit="10" viewBox="0 0 1024 768"><desc>SVG generated by Keynote</desc><defs></defs><g transform="matrix(1.00, 0.00, -0.00, -1.00, 0.0, 768.0)"><g><clipPath id="clip0x600004eb5480"><path d="M 0.0 768.0 L 1024.0 768.0 L 1024.0 0.0 L 0.0 0.0 Z M 0.0 768.0 "></path></clipPath><g clip-path="url(#clip0x600004eb5480)"><image xlink:href="../../62A57402-F52E-4D18-8FC0-8772A6409873/assets/5A8C990C4A4597A5304AC9F14CDA7C87.jpeg" width="2048.00" height="1536.00" transform="matrix(0.50, 0.00, -0.00, -0.50, 0.0, 768.0)"></image></g></g><g opacity="0.30"><g><clipPath id="clip0x6000054ba580"><path d="M 39.0 595.0 L 986.0 595.0 L 986.0 599.0 L 39.0 599.0 Z M 39.0 595.0 "></path></clipPath><g clip-path="url(#clip0x6000054ba580)"><path d="M 0.0 0.5 L 944.7 0.5 L 944.7 0.5 L 0.0 0.5 Z M 0.0 0.0 " fill="none" stroke="#434343" stroke-width="1.00" transform="matrix(1.00, 0.00, 0.00, -1.00, 40.0, 597.0)"></path></g></g></g><g opacity="0.30"><g><clipPath id="clip0x6000052b1400"><path d="M 39.0 716.0 L 986.0 716.0 L 986.0 720.0 L 39.0 720.0 Z M 39.0 716.0 "></path></clipPath><g clip-path="url(#clip0x6000052b1400)"><path d="M 0.0 0.5 L 944.7 0.5 L 944.7 0.5 L 0.0 0.5 Z M 0.0 0.0 " fill="none" stroke="#434343" stroke-width="1.00" transform="matrix(1.00, 0.00, 0.00, -1.00, 40.0, 718.0)"></path></g></g></g><text xml:space="preserve" font-family="AvenirNext-Regular,Avenir Next" font-size="64.4" fill="#D93D2A" transform="matrix(1.00, 0.00, -0.00, -1.00, 187.3, 636.6)">C</text><text xml:space="preserve" font-family="AvenirNext-Regular,Avenir Next" font-size="64.4" fill="#D93D2A" transform="matrix(1.00, 0.00, -0.00, -1.00, 233.7, 636.6)">l</text><text xml:space="preserve" font-family="AvenirNext-Regular,Avenir Next" font-size="64.4" fill="#D93D2A" transform="matrix(1.00, 0.00, -0.00, -1.00, 249.9, 636.6)">a</text><text xml:space="preserve" font-family="AvenirNext-Regular,Avenir Next" font-size="64.4" fill="#D93D2A" transform="matrix(1.00, 0.00, -0.00, -1.00, 284.3, 636.6)">s</text><text xml:space="preserve" font-family="AvenirNext-Regular,Avenir Next" font-size="64.4" fill="#D93D2A" transform="matrix(1.00, 0.00, -0.00, -1.00, 312.9, 636.6)">s</text><text xml:space="preserve" font-family="AvenirNext-Regular,Avenir Next" font-size="64.4" fill="#D93D2A" transform="matrix(1.00, 0.00, -0.00, -1.00, 341.5, 636.6)">i</text><text xml:space="preserve" font-family="AvenirNext-Regular,Avenir Next" font-size="64.4" fill="#D93D2A" transform="matrix(1.00, 0.00, -0.00, -1.00, 357.6, 636.6)">ﬁ</text><text xml:space="preserve" font-family="AvenirNext-Regular,Avenir Next" font-size="64.4" fill="#D93D2A" transform="matrix(1.00, 0.00, -0.00, -1.00, 392.6, 636.6)">c</text><text xml:space="preserve" font-family="AvenirNext-Regular,Avenir Next" font-size="64.4" fill="#D93D2A" transform="matrix(1.00, 0.00, -0.00, -1.00, 424.8, 636.6)">a</text><text xml:space="preserve" font-family="AvenirNext-Regular,Avenir Next" font-size="64.4" fill="#D93D2A" transform="matrix(1.00, 0.00, -0.00, -1.00, 459.2, 636.6)">d</text><text xml:space="preserve" font-family="AvenirNext-Regular,Avenir Next" font-size="64.4" fill="#D93D2A" transform="matrix(1.00, 0.00, -0.00, -1.00, 500.2, 636.6)">o</text><text xml:space="preserve" font-family="AvenirNext-Regular,Avenir Next" font-size="64.4" fill="#D93D2A" transform="matrix(1.00, 0.00, -0.00, -1.00, 539.6, 636.6)">r</text><text xml:space="preserve" font-family="AvenirNext-Regular,Avenir Next" font-size="64.4" fill="#D93D2A" transform="matrix(1.00, 0.00, -0.00, -1.00, 562.8, 636.6)"> </text><text xml:space="preserve" font-family="AvenirNext-Regular,Avenir Next" font-size="64.4" fill="#D93D2A" transform="matrix(1.00, 0.00, -0.00, -1.00, 578.9, 636.6)">U</text><text xml:space="preserve" font-family="AvenirNext-Regular,Avenir Next" font-size="64.4" fill="#D93D2A" transform="matrix(1.00, 0.00, -0.00, -1.00, 624.6, 636.6)">t</text><text xml:space="preserve" font-family="AvenirNext-Regular,Avenir Next" font-size="64.4" fill="#D93D2A" transform="matrix(1.00, 0.00, -0.00, -1.00, 645.0, 636.6)">i</text><text xml:space="preserve" font-family="AvenirNext-Regular,Avenir Next" font-size="64.4" fill="#D93D2A" transform="matrix(1.00, 0.00, -0.00, -1.00, 661.1, 636.6)">l</text><text xml:space="preserve" font-family="AvenirNext-Regular,Avenir Next" font-size="64.4" fill="#D93D2A" transform="matrix(1.00, 0.00, -0.00, -1.00, 677.3, 636.6)">i</text><text xml:space="preserve" font-family="AvenirNext-Regular,Avenir Next" font-size="64.4" fill="#D93D2A" transform="matrix(1.00, 0.00, -0.00, -1.00, 693.4, 636.6)">z</text><text xml:space="preserve" font-family="AvenirNext-Regular,Avenir Next" font-size="64.4" fill="#D93D2A" transform="matrix(1.00, 0.00, -0.00, -1.00, 721.9, 636.6)">a</text><text xml:space="preserve" font-family="AvenirNext-Regular,Avenir Next" font-size="64.4" fill="#D93D2A" transform="matrix(1.00, 0.00, -0.00, -1.00, 756.3, 636.6)">d</text><text xml:space="preserve" font-family="AvenirNext-Regular,Avenir Next" font-size="64.4" fill="#D93D2A" transform="matrix(1.00, 0.00, -0.00, -1.00, 797.3, 636.6)">o</text><text xml:space="preserve" font-family="ZapfDingbatsITC,Zapf Dingbats" font-size="21.6" fill="#919191" transform="matrix(1.00, 0.00, -0.00, -1.00, 44.0, 470.3)">❖</text><text xml:space="preserve" font-family="AvenirNext-Regular,Avenir Next" font-size="36.0" fill="#404040" transform="matrix(1.00, 0.00, -0.00, -1.00, 81.0, 467.2)">L</text><text xml:space="preserve" font-family="AvenirNext-Regular,Avenir Next" font-size="36.0" fill="#404040" transform="matrix(1.00, 0.00, -0.00, -1.00, 98.7, 467.2)">e</text><text xml:space="preserve" font-family="AvenirNext-Regular,Avenir Next" font-size="36.0" fill="#404040" transform="matrix(1.00, 0.00, -0.00, -1.00, 119.1, 467.2)">a</text><text xml:space="preserve" font-family="AvenirNext-Regular,Avenir Next" font-size="36.0" fill="#404040" transform="matrix(1.00, 0.00, -0.00, -1.00, 138.3, 467.2)">r</text><text xml:space="preserve" font-family="AvenirNext-Regular,Avenir Next" font-size="36.0" fill="#404040" transform="matrix(1.00, 0.00, -0.00, -1.00, 151.3, 467.2)">n</text><text xml:space="preserve" font-family="AvenirNext-Regular,Avenir Next" font-size="36.0" fill="#404040" transform="matrix(1.00, 0.00, -0.00, -1.00, 172.2, 467.2)">i</text><text xml:space="preserve" font-family="AvenirNext-Regular,Avenir Next" font-size="36.0" fill="#404040" transform="matrix(1.00, 0.00, -0.00, -1.00, 181.2, 467.2)">n</text><text xml:space="preserve" font-family="AvenirNext-Regular,Avenir Next" font-size="36.0" fill="#404040" transform="matrix(1.00, 0.00, -0.00, -1.00, 202.1, 467.2)">g</text><text xml:space="preserve" font-family="AvenirNext-Regular,Avenir Next" font-size="36.0" fill="#404040" transform="matrix(1.00, 0.00, -0.00, -1.00, 224.9, 467.2)"> </text><text xml:space="preserve" font-family="AvenirNext-Regular,Avenir Next" font-size="36.0" fill="#404040" transform="matrix(1.00, 0.00, -0.00, -1.00, 233.2, 467.2)">A</text><text xml:space="preserve" font-family="AvenirNext-Regular,Avenir Next" font-size="36.0" fill="#404040" transform="matrix(1.00, 0.00, -0.00, -1.00, 258.4, 467.2)">l</text><text xml:space="preserve" font-family="AvenirNext-Regular,Avenir Next" font-size="36.0" fill="#404040" transform="matrix(1.00, 0.00, -0.00, -1.00, 267.5, 467.2)">g</text><text xml:space="preserve" font-family="AvenirNext-Regular,Avenir Next" font-size="36.0" fill="#404040" transform="matrix(1.00, 0.00, -0.00, -1.00, 290.2, 467.2)">o</text><text xml:space="preserve" font-family="AvenirNext-Regular,Avenir Next" font-size="36.0" fill="#404040" transform="matrix(1.00, 0.00, -0.00, -1.00, 312.2, 467.2)">r</text><text xml:space="preserve" font-family="AvenirNext-Regular,Avenir Next" font-size="36.0" fill="#404040" transform="matrix(1.00, 0.00, -0.00, -1.00, 325.2, 467.2)">i</text><text xml:space="preserve" font-family="AvenirNext-Regular,Avenir Next" font-size="36.0" fill="#404040" transform="matrix(1.00, 0.00, -0.00, -1.00, 334.2, 467.2)">t</text><text xml:space="preserve" font-family="AvenirNext-Regular,Avenir Next" font-size="36.0" fill="#404040" transform="matrix(1.00, 0.00, -0.00, -1.00, 345.6, 467.2)">h</text><text xml:space="preserve" font-family="AvenirNext-Regular,Avenir Next" font-size="36.0" fill="#404040" transform="matrix(1.00, 0.00, -0.00, -1.00, 366.6, 467.2)">m</text><text xml:space="preserve" font-family="AvenirNext-Regular,Avenir Next" font-size="36.0" fill="#404040" transform="matrix(1.00, 0.00, -0.00, -1.00, 398.4, 467.2)"> </text><text xml:space="preserve" font-family="AvenirNext-Regular,Avenir Next" font-size="36.0" fill="#404040" transform="matrix(1.00, 0.00, -0.00, -1.00, 407.4, 467.2)">f</text><text xml:space="preserve" font-family="AvenirNext-Regular,Avenir Next" font-size="36.0" fill="#404040" transform="matrix(1.00, 0.00, -0.00, -1.00, 418.0, 467.2)">o</text><text xml:space="preserve" font-family="AvenirNext-Regular,Avenir Next" font-size="36.0" fill="#404040" transform="matrix(1.00, 0.00, -0.00, -1.00, 440.0, 467.2)">r</text><text xml:space="preserve" font-family="AvenirNext-Regular,Avenir Next" font-size="36.0" fill="#404040" transform="matrix(1.00, 0.00, -0.00, -1.00, 453.0, 467.2)"> </text><text xml:space="preserve" font-family="AvenirNext-Regular,Avenir Next" font-size="36.0" fill="#404040" transform="matrix(1.00, 0.00, -0.00, -1.00, 462.0, 467.2)">S</text><text xml:space="preserve" font-family="AvenirNext-Regular,Avenir Next" font-size="36.0" fill="#404040" transform="matrix(1.00, 0.00, -0.00, -1.00, 482.3, 467.2)">o</text><text xml:space="preserve" font-family="AvenirNext-Regular,Avenir Next" font-size="36.0" fill="#404040" transform="matrix(1.00, 0.00, -0.00, -1.00, 504.3, 467.2)">f</text><text xml:space="preserve" font-family="AvenirNext-Regular,Avenir Next" font-size="36.0" fill="#404040" transform="matrix(1.00, 0.00, -0.00, -1.00, 514.4, 467.2)">t</text><text xml:space="preserve" font-family="AvenirNext-Regular,Avenir Next" font-size="36.0" fill="#404040" transform="matrix(1.00, 0.00, -0.00, -1.00, 525.9, 467.2)">-</text><text xml:space="preserve" font-family="AvenirNext-Regular,Avenir Next" font-size="36.0" fill="#404040" transform="matrix(1.00, 0.00, -0.00, -1.00, 534.1, 467.2)">T</text><text xml:space="preserve" font-family="AvenirNext-Regular,Avenir Next" font-size="36.0" fill="#404040" transform="matrix(1.00, 0.00, -0.00, -1.00, 554.0, 467.2)">h</text><text xml:space="preserve" font-family="AvenirNext-Regular,Avenir Next" font-size="36.0" fill="#404040" transform="matrix(1.00, 0.00, -0.00, -1.00, 575.0, 467.2)">r</text><text xml:space="preserve" font-family="AvenirNext-Regular,Avenir Next" font-size="36.0" fill="#404040" transform="matrix(1.00, 0.00, -0.00, -1.00, 587.3, 467.2)">e</text><text xml:space="preserve" font-family="AvenirNext-Regular,Avenir Next" font-size="36.0" fill="#404040" transform="matrix(1.00, 0.00, -0.00, -1.00, 607.9, 467.2)">s</text><text xml:space="preserve" font-family="AvenirNext-Regular,Avenir Next" font-size="36.0" fill="#404040" transform="matrix(1.00, 0.00, -0.00, -1.00, 623.9, 467.2)">h</text><text xml:space="preserve" font-family="AvenirNext-Regular,Avenir Next" font-size="36.0" fill="#404040" transform="matrix(1.00, 0.00, -0.00, -1.00, 644.9, 467.2)">o</text><text xml:space="preserve" font-family="AvenirNext-Regular,Avenir Next" font-size="36.0" fill="#404040" transform="matrix(1.00, 0.00, -0.00, -1.00, 666.9, 467.2)">l</text><text xml:space="preserve" font-family="AvenirNext-Regular,Avenir Next" font-size="36.0" fill="#404040" transform="matrix(1.00, 0.00, -0.00, -1.00, 675.9, 467.2)">d</text><text xml:space="preserve" font-family="AvenirNext-Regular,Avenir Next" font-size="36.0" fill="#404040" transform="matrix(1.00, 0.00, -0.00, -1.00, 698.9, 467.2)">i</text><text xml:space="preserve" font-family="AvenirNext-Regular,Avenir Next" font-size="36.0" fill="#404040" transform="matrix(1.00, 0.00, -0.00, -1.00, 707.9, 467.2)">n</text><text xml:space="preserve" font-family="AvenirNext-Regular,Avenir Next" font-size="36.0" fill="#404040" transform="matrix(1.00, 0.00, -0.00, -1.00, 728.8, 467.2)">g</text><text xml:space="preserve" font-family="AvenirNext-Regular,Avenir Next" font-size="36.0" fill="#404040" transform="matrix(1.00, 0.00, -0.00, -1.00, 751.5, 467.2)"> </text><text xml:space="preserve" font-family="AvenirNext-Regular,Avenir Next" font-size="36.0" fill="#404040" transform="matrix(1.00, 0.00, -0.00, -1.00, 760.5, 467.2)">(</text><text xml:space="preserve" font-family="AvenirNext-Regular,Avenir Next" font-size="36.0" fill="#404040" transform="matrix(1.00, 0.00, -0.00, -1.00, 771.3, 467.2)">L</text><text xml:space="preserve" font-family="AvenirNext-Regular,Avenir Next" font-size="36.0" fill="#404040" transform="matrix(1.00, 0.00, -0.00, -1.00, 789.7, 467.2)">A</text><text xml:space="preserve" font-family="AvenirNext-Regular,Avenir Next" font-size="36.0" fill="#404040" transform="matrix(1.00, 0.00, -0.00, -1.00, 814.9, 467.2)">S</text><text xml:space="preserve" font-family="AvenirNext-Regular,Avenir Next" font-size="36.0" fill="#404040" transform="matrix(1.00, 0.00, -0.00, -1.00, 834.6, 467.2)">T</text><text xml:space="preserve" font-family="AvenirNext-Regular,Avenir Next" font-size="36.0" fill="#404040" transform="matrix(1.00, 0.00, -0.00, -1.00, 855.1, 467.2)">)</text><text xml:space="preserve" font-family="AvenirNext-Regular,Avenir Next" font-size="36.0" fill="#404040" transform="matrix(1.00, 0.00, -0.00, -1.00, 865.9, 467.2)"> </text><text xml:space="preserve" font-family="ZapfDingbatsITC,Zapf Dingbats" font-size="19.2" fill="#919191" transform="matrix(1.00, 0.00, -0.00, -1.00, 44.0, 400.9)">❖</text><text xml:space="preserve" font-family="AvenirNext-Regular,Avenir Next" font-size="32.0" fill="#404040" transform="matrix(1.00, 0.00, -0.00, -1.00, 76.9, 397.7)">C</text><text xml:space="preserve" font-family="AvenirNext-Regular,Avenir Next" font-size="32.0" fill="#404040" transform="matrix(1.00, 0.00, -0.00, -1.00, 99.9, 397.7)">l</text><text xml:space="preserve" font-family="AvenirNext-Regular,Avenir Next" font-size="32.0" fill="#404040" transform="matrix(1.00, 0.00, -0.00, -1.00, 108.0, 397.7)">a</text><text xml:space="preserve" font-family="AvenirNext-Regular,Avenir Next" font-size="32.0" fill="#404040" transform="matrix(1.00, 0.00, -0.00, -1.00, 125.1, 397.7)">s</text><text xml:space="preserve" font-family="AvenirNext-Regular,Avenir Next" font-size="32.0" fill="#404040" transform="matrix(1.00, 0.00, -0.00, -1.00, 139.3, 397.7)">s</text><text xml:space="preserve" font-family="AvenirNext-Regular,Avenir Next" font-size="32.0" fill="#404040" transform="matrix(1.00, 0.00, -0.00, -1.00, 153.5, 397.7)">i</text><text xml:space="preserve" font-family="AvenirNext-Regular,Avenir Next" font-size="32.0" fill="#404040" transform="matrix(1.00, 0.00, -0.00, -1.00, 161.5, 397.7)">ﬁ</text><text xml:space="preserve" font-family="AvenirNext-Regular,Avenir Next" font-size="32.0" fill="#404040" transform="matrix(1.00, 0.00, -0.00, -1.00, 178.9, 397.7)">c</text><text xml:space="preserve" font-family="AvenirNext-Regular,Avenir Next" font-size="32.0" fill="#404040" transform="matrix(1.00, 0.00, -0.00, -1.00, 194.9, 397.7)">a</text><text xml:space="preserve" font-family="AvenirNext-Regular,Avenir Next" font-size="32.0" fill="#404040" transform="matrix(1.00, 0.00, -0.00, -1.00, 212.0, 397.7)">ç</text><text xml:space="preserve" font-family="AvenirNext-Regular,Avenir Next" font-size="32.0" fill="#404040" transform="matrix(1.00, 0.00, -0.00, -1.00, 228.0, 397.7)">ã</text><text xml:space="preserve" font-family="AvenirNext-Regular,Avenir Next" font-size="32.0" fill="#404040" transform="matrix(1.00, 0.00, -0.00, -1.00, 245.1, 397.7)">o</text><text xml:space="preserve" font-family="AvenirNext-Regular,Avenir Next" font-size="32.0" fill="#404040" transform="matrix(1.00, 0.00, -0.00, -1.00, 264.6, 397.7)"> </text><text xml:space="preserve" font-family="AvenirNext-Regular,Avenir Next" font-size="32.0" fill="#404040" transform="matrix(1.00, 0.00, -0.00, -1.00, 272.6, 397.7)">d</text><text xml:space="preserve" font-family="AvenirNext-Regular,Avenir Next" font-size="32.0" fill="#404040" transform="matrix(1.00, 0.00, -0.00, -1.00, 293.0, 397.7)">e</text><text xml:space="preserve" font-family="AvenirNext-Regular,Avenir Next" font-size="32.0" fill="#404040" transform="matrix(1.00, 0.00, -0.00, -1.00, 311.3, 397.7)"> </text><text xml:space="preserve" font-family="AvenirNext-Regular,Avenir Next" font-size="32.0" fill="#404040" transform="matrix(1.00, 0.00, -0.00, -1.00, 319.3, 397.7)">i</text><text xml:space="preserve" font-family="AvenirNext-Regular,Avenir Next" font-size="32.0" fill="#404040" transform="matrix(1.00, 0.00, -0.00, -1.00, 327.3, 397.7)">m</text><text xml:space="preserve" font-family="AvenirNext-Regular,Avenir Next" font-size="32.0" fill="#404040" transform="matrix(1.00, 0.00, -0.00, -1.00, 355.6, 397.7)">a</text><text xml:space="preserve" font-family="AvenirNext-Regular,Avenir Next" font-size="32.0" fill="#404040" transform="matrix(1.00, 0.00, -0.00, -1.00, 372.7, 397.7)">g</text><text xml:space="preserve" font-family="AvenirNext-Regular,Avenir Next" font-size="32.0" fill="#404040" transform="matrix(1.00, 0.00, -0.00, -1.00, 392.9, 397.7)">e</text><text xml:space="preserve" font-family="AvenirNext-Regular,Avenir Next" font-size="32.0" fill="#404040" transform="matrix(1.00, 0.00, -0.00, -1.00, 411.2, 397.7)">n</text><text xml:space="preserve" font-family="AvenirNext-Regular,Avenir Next" font-size="32.0" fill="#404040" transform="matrix(1.00, 0.00, -0.00, -1.00, 429.8, 397.7)">s</text><text xml:space="preserve" font-family="AvenirNext-Regular,Avenir Next" font-size="32.0" fill="#404040" transform="matrix(1.00, 0.00, -0.00, -1.00, 444.0, 397.7)"> </text><text xml:space="preserve" font-family="ZapfDingbatsITC,Zapf Dingbats" font-size="19.2" fill="#919191" transform="matrix(1.00, 0.00, -0.00, -1.00, 44.0, 332.9)">❖</text><text xml:space="preserve" font-family="AvenirNext-Regular,Avenir Next" font-size="32.0" fill="#404040" transform="matrix(1.00, 0.00, -0.00, -1.00, 76.9, 329.7)">I</text><text xml:space="preserve" font-family="AvenirNext-Regular,Avenir Next" font-size="32.0" fill="#404040" transform="matrix(1.00, 0.00, -0.00, -1.00, 85.2, 329.7)">n</text><text xml:space="preserve" font-family="AvenirNext-Regular,Avenir Next" font-size="32.0" fill="#404040" transform="matrix(1.00, 0.00, -0.00, -1.00, 103.8, 329.7)">t</text><text xml:space="preserve" font-family="AvenirNext-Regular,Avenir Next" font-size="32.0" fill="#404040" transform="matrix(1.00, 0.00, -0.00, -1.00, 113.9, 329.7)">e</text><text xml:space="preserve" font-family="AvenirNext-Regular,Avenir Next" font-size="32.0" fill="#404040" transform="matrix(1.00, 0.00, -0.00, -1.00, 132.2, 329.7)">r</text><text xml:space="preserve" font-family="AvenirNext-Regular,Avenir Next" font-size="32.0" fill="#404040" transform="matrix(1.00, 0.00, -0.00, -1.00, 143.8, 329.7)">n</text><text xml:space="preserve" font-family="AvenirNext-Regular,Avenir Next" font-size="32.0" fill="#404040" transform="matrix(1.00, 0.00, -0.00, -1.00, 162.4, 329.7)">a</text><text xml:space="preserve" font-family="AvenirNext-Regular,Avenir Next" font-size="32.0" fill="#404040" transform="matrix(1.00, 0.00, -0.00, -1.00, 179.1, 329.7)">t</text><text xml:space="preserve" font-family="AvenirNext-Regular,Avenir Next" font-size="32.0" fill="#404040" transform="matrix(1.00, 0.00, -0.00, -1.00, 189.3, 329.7)">i</text><text xml:space="preserve" font-family="AvenirNext-Regular,Avenir Next" font-size="32.0" fill="#404040" transform="matrix(1.00, 0.00, -0.00, -1.00, 197.3, 329.7)">o</text><text xml:space="preserve" font-family="AvenirNext-Regular,Avenir Next" font-size="32.0" fill="#404040" transform="matrix(1.00, 0.00, -0.00, -1.00, 216.8, 329.7)">n</text><text xml:space="preserve" font-family="AvenirNext-Regular,Avenir Next" font-size="32.0" fill="#404040" transform="matrix(1.00, 0.00, -0.00, -1.00, 235.4, 329.7)">a</text><text xml:space="preserve" font-family="AvenirNext-Regular,Avenir Next" font-size="32.0" fill="#404040" transform="matrix(1.00, 0.00, -0.00, -1.00, 252.5, 329.7)">l</text><text xml:space="preserve" font-family="AvenirNext-Regular,Avenir Next" font-size="32.0" fill="#404040" transform="matrix(1.00, 0.00, -0.00, -1.00, 260.6, 329.7)"> </text><text xml:space="preserve" font-family="AvenirNext-Regular,Avenir Next" font-size="32.0" fill="#404040" transform="matrix(1.00, 0.00, -0.00, -1.00, 268.2, 329.7)">J</text><text xml:space="preserve" font-family="AvenirNext-Regular,Avenir Next" font-size="32.0" fill="#404040" transform="matrix(1.00, 0.00, -0.00, -1.00, 283.9, 329.7)">o</text><text xml:space="preserve" font-family="AvenirNext-Regular,Avenir Next" font-size="32.0" fill="#404040" transform="matrix(1.00, 0.00, -0.00, -1.00, 303.5, 329.7)">u</text><text xml:space="preserve" font-family="AvenirNext-Regular,Avenir Next" font-size="32.0" fill="#404040" transform="matrix(1.00, 0.00, -0.00, -1.00, 322.1, 329.7)">r</text><text xml:space="preserve" font-family="AvenirNext-Regular,Avenir Next" font-size="32.0" fill="#404040" transform="matrix(1.00, 0.00, -0.00, -1.00, 333.6, 329.7)">n</text><text xml:space="preserve" font-family="AvenirNext-Regular,Avenir Next" font-size="32.0" fill="#404040" transform="matrix(1.00, 0.00, -0.00, -1.00, 352.2, 329.7)">a</text><text xml:space="preserve" font-family="AvenirNext-Regular,Avenir Next" font-size="32.0" fill="#404040" transform="matrix(1.00, 0.00, -0.00, -1.00, 369.3, 329.7)">l</text><text xml:space="preserve" font-family="AvenirNext-Regular,Avenir Next" font-size="32.0" fill="#404040" transform="matrix(1.00, 0.00, -0.00, -1.00, 377.3, 329.7)"> </text><text xml:space="preserve" font-family="AvenirNext-Regular,Avenir Next" font-size="32.0" fill="#404040" transform="matrix(1.00, 0.00, -0.00, -1.00, 385.3, 329.7)">o</text><text xml:space="preserve" font-family="AvenirNext-Regular,Avenir Next" font-size="32.0" fill="#404040" transform="matrix(1.00, 0.00, -0.00, -1.00, 404.9, 329.7)">f</text><text xml:space="preserve" font-family="AvenirNext-Regular,Avenir Next" font-size="32.0" fill="#404040" transform="matrix(1.00, 0.00, -0.00, -1.00, 415.1, 329.7)"> </text><text xml:space="preserve" font-family="AvenirNext-Regular,Avenir Next" font-size="32.0" fill="#404040" transform="matrix(1.00, 0.00, -0.00, -1.00, 423.1, 329.7)">C</text><text xml:space="preserve" font-family="AvenirNext-Regular,Avenir Next" font-size="32.0" fill="#404040" transform="matrix(1.00, 0.00, -0.00, -1.00, 445.8, 329.7)">o</text><text xml:space="preserve" font-family="AvenirNext-Regular,Avenir Next" font-size="32.0" fill="#404040" transform="matrix(1.00, 0.00, -0.00, -1.00, 465.3, 329.7)">m</text><text xml:space="preserve" font-family="AvenirNext-Regular,Avenir Next" font-size="32.0" fill="#404040" transform="matrix(1.00, 0.00, -0.00, -1.00, 493.6, 329.7)">p</text><text xml:space="preserve" font-family="AvenirNext-Regular,Avenir Next" font-size="32.0" fill="#404040" transform="matrix(1.00, 0.00, -0.00, -1.00, 513.9, 329.7)">u</text><text xml:space="preserve" font-family="AvenirNext-Regular,Avenir Next" font-size="32.0" fill="#404040" transform="matrix(1.00, 0.00, -0.00, -1.00, 532.5, 329.7)">t</text><text xml:space="preserve" font-family="AvenirNext-Regular,Avenir Next" font-size="32.0" fill="#404040" transform="matrix(1.00, 0.00, -0.00, -1.00, 542.6, 329.7)">e</text><text xml:space="preserve" font-family="AvenirNext-Regular,Avenir Next" font-size="32.0" fill="#404040" transform="matrix(1.00, 0.00, -0.00, -1.00, 560.9, 329.7)">r</text><text xml:space="preserve" font-family="AvenirNext-Regular,Avenir Next" font-size="32.0" fill="#404040" transform="matrix(1.00, 0.00, -0.00, -1.00, 572.4, 329.7)"> </text><text xml:space="preserve" font-family="AvenirNext-Regular,Avenir Next" font-size="32.0" fill="#404040" transform="matrix(1.00, 0.00, -0.00, -1.00, 579.9, 329.7)">V</text><text xml:space="preserve" font-family="AvenirNext-Regular,Avenir Next" font-size="32.0" fill="#404040" transform="matrix(1.00, 0.00, -0.00, -1.00, 599.2, 329.7)">i</text><text xml:space="preserve" font-family="AvenirNext-Regular,Avenir Next" font-size="32.0" fill="#404040" transform="matrix(1.00, 0.00, -0.00, -1.00, 607.2, 329.7)">s</text><text xml:space="preserve" font-family="AvenirNext-Regular,Avenir Next" font-size="32.0" fill="#404040" transform="matrix(1.00, 0.00, -0.00, -1.00, 621.4, 329.7)">i</text><text xml:space="preserve" font-family="AvenirNext-Regular,Avenir Next" font-size="32.0" fill="#404040" transform="matrix(1.00, 0.00, -0.00, -1.00, 629.4, 329.7)">o</text><text xml:space="preserve" font-family="AvenirNext-Regular,Avenir Next" font-size="32.0" fill="#404040" transform="matrix(1.00, 0.00, -0.00, -1.00, 649.0, 329.7)">n</text><text xml:space="preserve" font-family="AvenirNext-Regular,Avenir Next" font-size="32.0" fill="#404040" transform="matrix(1.00, 0.00, -0.00, -1.00, 667.6, 329.7)"> </text><text xml:space="preserve" font-family="AvenirNext-Regular,Avenir Next" font-size="32.0" fill="#404040" transform="matrix(1.00, 0.00, -0.00, -1.00, 675.6, 329.7)">(</text><text xml:space="preserve" font-family="AvenirNext-Regular,Avenir Next" font-size="32.0" fill="#404040" transform="matrix(1.00, 0.00, -0.00, -1.00, 685.2, 329.7)">Q</text><text xml:space="preserve" font-family="AvenirNext-Regular,Avenir Next" font-size="32.0" fill="#404040" transform="matrix(1.00, 0.00, -0.00, -1.00, 712.2, 329.7)">u</text><text xml:space="preserve" font-family="AvenirNext-Regular,Avenir Next" font-size="32.0" fill="#404040" transform="matrix(1.00, 0.00, -0.00, -1.00, 730.7, 329.7)">a</text><text xml:space="preserve" font-family="AvenirNext-Regular,Avenir Next" font-size="32.0" fill="#404040" transform="matrix(1.00, 0.00, -0.00, -1.00, 747.8, 329.7)">l</text><text xml:space="preserve" font-family="AvenirNext-Regular,Avenir Next" font-size="32.0" fill="#404040" transform="matrix(1.00, 0.00, -0.00, -1.00, 755.9, 329.7)">i</text><text xml:space="preserve" font-family="AvenirNext-Regular,Avenir Next" font-size="32.0" fill="#404040" transform="matrix(1.00, 0.00, -0.00, -1.00, 763.9, 329.7)">s</text><text xml:space="preserve" font-family="AvenirNext-Regular,Avenir Next" font-size="32.0" fill="#404040" transform="matrix(1.00, 0.00, -0.00, -1.00, 778.1, 329.7)"> </text><text xml:space="preserve" font-family="AvenirNext-Regular,Avenir Next" font-size="32.0" fill="#404040" transform="matrix(1.00, 0.00, -0.00, -1.00, 785.5, 329.7)">A</text><text xml:space="preserve" font-family="AvenirNext-Regular,Avenir Next" font-size="32.0" fill="#404040" transform="matrix(1.00, 0.00, -0.00, -1.00, 807.9, 329.7)">1</text><text xml:space="preserve" font-family="AvenirNext-Regular,Avenir Next" font-size="32.0" fill="#404040" transform="matrix(1.00, 0.00, -0.00, -1.00, 826.5, 329.7)"> </text><text xml:space="preserve" font-family="AvenirNext-Regular,Avenir Next" font-size="32.0" fill="#404040" transform="matrix(1.00, 0.00, -0.00, -1.00, 76.9, 285.7)">c</text><text xml:space="preserve" font-family="AvenirNext-Regular,Avenir Next" font-size="32.0" fill="#404040" transform="matrix(1.00, 0.00, -0.00, -1.00, 92.9, 285.7)">o</text><text xml:space="preserve" font-family="AvenirNext-Regular,Avenir Next" font-size="32.0" fill="#404040" transform="matrix(1.00, 0.00, -0.00, -1.00, 112.4, 285.7)">m</text><text xml:space="preserve" font-family="AvenirNext-Regular,Avenir Next" font-size="32.0" fill="#404040" transform="matrix(1.00, 0.00, -0.00, -1.00, 140.7, 285.7)">p</text><text xml:space="preserve" font-family="AvenirNext-Regular,Avenir Next" font-size="32.0" fill="#404040" transform="matrix(1.00, 0.00, -0.00, -1.00, 161.0, 285.7)">u</text><text xml:space="preserve" font-family="AvenirNext-Regular,Avenir Next" font-size="32.0" fill="#404040" transform="matrix(1.00, 0.00, -0.00, -1.00, 179.6, 285.7)">t</text><text xml:space="preserve" font-family="AvenirNext-Regular,Avenir Next" font-size="32.0" fill="#404040" transform="matrix(1.00, 0.00, -0.00, -1.00, 189.8, 285.7)">a</text><text xml:space="preserve" font-family="AvenirNext-Regular,Avenir Next" font-size="32.0" fill="#404040" transform="matrix(1.00, 0.00, -0.00, -1.00, 206.8, 285.7)">ç</text><text xml:space="preserve" font-family="AvenirNext-Regular,Avenir Next" font-size="32.0" fill="#404040" transform="matrix(1.00, 0.00, -0.00, -1.00, 222.8, 285.7)">ã</text><text xml:space="preserve" font-family="AvenirNext-Regular,Avenir Next" font-size="32.0" fill="#404040" transform="matrix(1.00, 0.00, -0.00, -1.00, 239.9, 285.7)">o</text><text xml:space="preserve" font-family="AvenirNext-Regular,Avenir Next" font-size="32.0" fill="#404040" transform="matrix(1.00, 0.00, -0.00, -1.00, 259.5, 285.7)">)</text><text xml:space="preserve" font-family="AvenirNext-Regular,Avenir Next" font-size="32.0" fill="#404040" transform="matrix(1.00, 0.00, -0.00, -1.00, 269.1, 285.7)"> </text><text xml:space="preserve" font-family="ZapfDingbatsITC,Zapf Dingbats" font-size="19.2" fill="#919191" transform="matrix(1.00, 0.00, -0.00, -1.00, 81.0, 220.9)">❖</text><text xml:space="preserve" font-family="AvenirNext-Regular,Avenir Next" font-size="32.0" fill="#404040" transform="matrix(1.00, 0.00, -0.00, -1.00, 113.9, 217.7)">S</text><text xml:space="preserve" font-family="AvenirNext-Regular,Avenir Next" font-size="32.0" fill="#404040" transform="matrix(1.00, 0.00, -0.00, -1.00, 131.9, 217.7)">u</text><text xml:space="preserve" font-family="AvenirNext-Regular,Avenir Next" font-size="32.0" fill="#404040" transform="matrix(1.00, 0.00, -0.00, -1.00, 150.5, 217.7)">b</text><text xml:space="preserve" font-family="AvenirNext-Regular,Avenir Next" font-size="32.0" fill="#404040" transform="matrix(1.00, 0.00, -0.00, -1.00, 170.9, 217.7)">m</text><text xml:space="preserve" font-family="AvenirNext-Regular,Avenir Next" font-size="32.0" fill="#404040" transform="matrix(1.00, 0.00, -0.00, -1.00, 199.2, 217.7)">e</text><text xml:space="preserve" font-family="AvenirNext-Regular,Avenir Next" font-size="32.0" fill="#404040" transform="matrix(1.00, 0.00, -0.00, -1.00, 217.5, 217.7)">t</text><text xml:space="preserve" font-family="AvenirNext-Regular,Avenir Next" font-size="32.0" fill="#404040" transform="matrix(1.00, 0.00, -0.00, -1.00, 227.6, 217.7)">i</text><text xml:space="preserve" font-family="AvenirNext-Regular,Avenir Next" font-size="32.0" fill="#404040" transform="matrix(1.00, 0.00, -0.00, -1.00, 235.6, 217.7)">d</text><text xml:space="preserve" font-family="AvenirNext-Regular,Avenir Next" font-size="32.0" fill="#404040" transform="matrix(1.00, 0.00, -0.00, -1.00, 256.0, 217.7)">o</text><text xml:space="preserve" font-family="AvenirNext-Regular,Avenir Next" font-size="32.0" fill="#404040" transform="matrix(1.00, 0.00, -0.00, -1.00, 275.6, 217.7)"> </text><text xml:space="preserve" font-family="AvenirNext-Regular,Avenir Next" font-size="32.0" fill="#404040" transform="matrix(1.00, 0.00, -0.00, -1.00, 283.6, 217.7)">e</text><text xml:space="preserve" font-family="AvenirNext-Regular,Avenir Next" font-size="32.0" fill="#404040" transform="matrix(1.00, 0.00, -0.00, -1.00, 301.9, 217.7)">m</text><text xml:space="preserve" font-family="AvenirNext-Regular,Avenir Next" font-size="32.0" fill="#404040" transform="matrix(1.00, 0.00, -0.00, -1.00, 330.1, 217.7)"> </text><text xml:space="preserve" font-family="AvenirNext-Regular,Avenir Next" font-size="32.0" fill="#404040" transform="matrix(1.00, 0.00, -0.00, -1.00, 338.1, 217.7)">f</text><text xml:space="preserve" font-family="AvenirNext-Regular,Avenir Next" font-size="32.0" fill="#404040" transform="matrix(1.00, 0.00, -0.00, -1.00, 347.6, 217.7)">e</text><text xml:space="preserve" font-family="AvenirNext-Regular,Avenir Next" font-size="32.0" fill="#404040" transform="matrix(1.00, 0.00, -0.00, -1.00, 365.9, 217.7)">v</text><text xml:space="preserve" font-family="AvenirNext-Regular,Avenir Next" font-size="32.0" fill="#404040" transform="matrix(1.00, 0.00, -0.00, -1.00, 381.5, 217.7)">e</text><text xml:space="preserve" font-family="AvenirNext-Regular,Avenir Next" font-size="32.0" fill="#404040" transform="matrix(1.00, 0.00, -0.00, -1.00, 399.8, 217.7)">r</text><text xml:space="preserve" font-family="AvenirNext-Regular,Avenir Next" font-size="32.0" fill="#404040" transform="matrix(1.00, 0.00, -0.00, -1.00, 410.7, 217.7)">e</text><text xml:space="preserve" font-family="AvenirNext-Regular,Avenir Next" font-size="32.0" fill="#404040" transform="matrix(1.00, 0.00, -0.00, -1.00, 429.0, 217.7)">i</text><text xml:space="preserve" font-family="AvenirNext-Regular,Avenir Next" font-size="32.0" fill="#404040" transform="matrix(1.00, 0.00, -0.00, -1.00, 437.0, 217.7)">r</text><text xml:space="preserve" font-family="AvenirNext-Regular,Avenir Next" font-size="32.0" fill="#404040" transform="matrix(1.00, 0.00, -0.00, -1.00, 448.0, 217.7)">o</text><text xml:space="preserve" font-family="AvenirNext-Regular,Avenir Next" font-size="32.0" fill="#404040" transform="matrix(1.00, 0.00, -0.00, -1.00, 467.5, 217.7)"> </text><text xml:space="preserve" font-family="AvenirNext-Regular,Avenir Next" font-size="32.0" fill="#404040" transform="matrix(1.00, 0.00, -0.00, -1.00, 475.5, 217.7)">d</text><text xml:space="preserve" font-family="AvenirNext-Regular,Avenir Next" font-size="32.0" fill="#404040" transform="matrix(1.00, 0.00, -0.00, -1.00, 495.9, 217.7)">e</text><text xml:space="preserve" font-family="AvenirNext-Regular,Avenir Next" font-size="32.0" fill="#404040" transform="matrix(1.00, 0.00, -0.00, -1.00, 514.2, 217.7)"> </text><text xml:space="preserve" font-family="AvenirNext-Regular,Avenir Next" font-size="32.0" fill="#404040" transform="matrix(1.00, 0.00, -0.00, -1.00, 522.2, 217.7)">2</text><text xml:space="preserve" font-family="AvenirNext-Regular,Avenir Next" font-size="32.0" fill="#404040" transform="matrix(1.00, 0.00, -0.00, -1.00, 540.8, 217.7)">0</text><text xml:space="preserve" font-family="AvenirNext-Regular,Avenir Next" font-size="32.0" fill="#404040" transform="matrix(1.00, 0.00, -0.00, -1.00, 559.3, 217.7)">1</text><text xml:space="preserve" font-family="AvenirNext-Regular,Avenir Next" font-size="32.0" fill="#404040" transform="matrix(1.00, 0.00, -0.00, -1.00, 577.9, 217.7)">4</text><text xml:space="preserve" font-family="AvenirNext-Regular,Avenir Next" font-size="32.0" fill="#404040" transform="matrix(1.00, 0.00, -0.00, -1.00, 596.4, 217.7)"> </text><text xml:space="preserve" font-family="ZapfDingbatsITC,Zapf Dingbats" font-size="19.2" fill="#919191" transform="matrix(1.00, 0.00, -0.00, -1.00, 81.0, 152.9)">❖</text><text xml:space="preserve" font-family="AvenirNext-Regular,Avenir Next" font-size="32.0" fill="#404040" transform="matrix(1.00, 0.00, -0.00, -1.00, 113.9, 149.7)">A</text><text xml:space="preserve" font-family="AvenirNext-Regular,Avenir Next" font-size="32.0" fill="#404040" transform="matrix(1.00, 0.00, -0.00, -1.00, 136.3, 149.7)">c</text><text xml:space="preserve" font-family="AvenirNext-Regular,Avenir Next" font-size="32.0" fill="#404040" transform="matrix(1.00, 0.00, -0.00, -1.00, 152.3, 149.7)">e</text><text xml:space="preserve" font-family="AvenirNext-Regular,Avenir Next" font-size="32.0" fill="#404040" transform="matrix(1.00, 0.00, -0.00, -1.00, 170.6, 149.7)">i</text><text xml:space="preserve" font-family="AvenirNext-Regular,Avenir Next" font-size="32.0" fill="#404040" transform="matrix(1.00, 0.00, -0.00, -1.00, 178.6, 149.7)">t</text><text xml:space="preserve" font-family="AvenirNext-Regular,Avenir Next" font-size="32.0" fill="#404040" transform="matrix(1.00, 0.00, -0.00, -1.00, 188.7, 149.7)">o</text><text xml:space="preserve" font-family="AvenirNext-Regular,Avenir Next" font-size="32.0" fill="#404040" transform="matrix(1.00, 0.00, -0.00, -1.00, 208.3, 149.7)"> </text><text xml:space="preserve" font-family="AvenirNext-Regular,Avenir Next" font-size="32.0" fill="#404040" transform="matrix(1.00, 0.00, -0.00, -1.00, 216.3, 149.7)">r</text><text xml:space="preserve" font-family="AvenirNext-Regular,Avenir Next" font-size="32.0" fill="#404040" transform="matrix(1.00, 0.00, -0.00, -1.00, 227.2, 149.7)">e</text><text xml:space="preserve" font-family="AvenirNext-Regular,Avenir Next" font-size="32.0" fill="#404040" transform="matrix(1.00, 0.00, -0.00, -1.00, 245.5, 149.7)">c</text><text xml:space="preserve" font-family="AvenirNext-Regular,Avenir Next" font-size="32.0" fill="#404040" transform="matrix(1.00, 0.00, -0.00, -1.00, 261.5, 149.7)">e</text><text xml:space="preserve" font-family="AvenirNext-Regular,Avenir Next" font-size="32.0" fill="#404040" transform="matrix(1.00, 0.00, -0.00, -1.00, 279.8, 149.7)">n</text><text xml:space="preserve" font-family="AvenirNext-Regular,Avenir Next" font-size="32.0" fill="#404040" transform="matrix(1.00, 0.00, -0.00, -1.00, 298.4, 149.7)">t</text><text xml:space="preserve" font-family="AvenirNext-Regular,Avenir Next" font-size="32.0" fill="#404040" transform="matrix(1.00, 0.00, -0.00, -1.00, 308.6, 149.7)">e</text><text xml:space="preserve" font-family="AvenirNext-Regular,Avenir Next" font-size="32.0" fill="#404040" transform="matrix(1.00, 0.00, -0.00, -1.00, 326.9, 149.7)">m</text><text xml:space="preserve" font-family="AvenirNext-Regular,Avenir Next" font-size="32.0" fill="#404040" transform="matrix(1.00, 0.00, -0.00, -1.00, 355.1, 149.7)">e</text><text xml:space="preserve" font-family="AvenirNext-Regular,Avenir Next" font-size="32.0" fill="#404040" transform="matrix(1.00, 0.00, -0.00, -1.00, 373.4, 149.7)">n</text><text xml:space="preserve" font-family="AvenirNext-Regular,Avenir Next" font-size="32.0" fill="#404040" transform="matrix(1.00, 0.00, -0.00, -1.00, 392.0, 149.7)">t</text><text xml:space="preserve" font-family="AvenirNext-Regular,Avenir Next" font-size="32.0" fill="#404040" transform="matrix(1.00, 0.00, -0.00, -1.00, 402.2, 149.7)">e</text></g></svg>