<?xml version="1.0" encoding="UTF-8" standalone="no"?><svg xmlns="http://www.w3.org/2000/svg" xmlns:xlink="http://www.w3.org/1999/xlink" clip-rule="evenodd" stroke-miterlimit="10" viewBox="0 0 1024 768"><desc>SVG generated by Keynote</desc><defs></defs><g transform="matrix(1.00, 0.00, -0.00, -1.00, 0.0, 768.0)"><g><clipPath id="clip0x6000062bee40"><path d="M 0.0 768.0 L 1024.0 768.0 L 1024.0 0.0 L 0.0 0.0 Z M 0.0 768.0 "></path></clipPath><g clip-path="url(#clip0x6000062bee40)"><image xlink:href="../../62A57402-F52E-4D18-8FC0-8772A6409873/assets/5A8C990C4A4597A5304AC9F14CDA7C87.jpeg" width="2048.00" height="1536.00" transform="matrix(0.50, 0.00, -0.00, -0.50, 0.0, 768.0)"></image></g></g><g opacity="0.30"><g><clipPath id="clip0x6000062bed80"><path d="M 39.0 595.0 L 986.0 595.0 L 986.0 599.0 L 39.0 599.0 Z M 39.0 595.0 "></path></clipPath><g clip-path="url(#clip0x6000062bed80)"><path d="M 0.0 0.5 L 944.7 0.5 L 944.7 0.5 L 0.0 0.5 Z M 0.0 0.0 " fill="none" stroke="#434343" stroke-width="1.00" transform="matrix(1.00, 0.00, 0.00, -1.00, 40.0, 597.0)"></path></g></g></g><g opacity="0.30"><g><clipPath id="clip0x6000062bef00"><path d="M 39.0 716.0 L 986.0 716.0 L 986.0 720.0 L 39.0 720.0 Z M 39.0 716.0 "></path></clipPath><g clip-path="url(#clip0x6000062bef00)"><path d="M 0.0 0.5 L 944.7 0.5 L 944.7 0.5 L 0.0 0.5 Z M 0.0 0.0 " fill="none" stroke="#434343" stroke-width="1.00" transform="matrix(1.00, 0.00, 0.00, -1.00, 40.0, 718.0)"></path></g></g></g><text xml:space="preserve" font-family="AvenirNext-Regular,Avenir Next" font-size="37.0" fill="#404040" transform="matrix(1.00, 0.00, -0.00, -1.00, 55.3, 671.0)">5</text><text xml:space="preserve" font-family="AvenirNext-Regular,Avenir Next" font-size="37.0" fill="#404040" transform="matrix(1.00, 0.00, -0.00, -1.00, 76.8, 671.0)">0</text><text xml:space="preserve" font-family="AvenirNext-Regular,Avenir Next" font-size="37.0" fill="#404040" transform="matrix(1.00, 0.00, -0.00, -1.00, 98.2, 671.0)"> </text><text xml:space="preserve" font-family="AvenirNext-Regular,Avenir Next" font-size="37.0" fill="#404040" transform="matrix(1.00, 0.00, -0.00, -1.00, 107.5, 671.0)"> </text><text xml:space="preserve" font-family="AvenirNext-Regular,Avenir Next" font-size="37.0" fill="#404040" transform="matrix(1.00, 0.00, -0.00, -1.00, 55.3, 620.0)">รก</text><text xml:space="preserve" font-family="AvenirNext-Regular,Avenir Next" font-size="37.0" fill="#404040" transform="matrix(1.00, 0.00, -0.00, -1.00, 74.7, 620.0)">t</text><text xml:space="preserve" font-family="AvenirNext-Regular,Avenir Next" font-size="37.0" fill="#404040" transform="matrix(1.00, 0.00, -0.00, -1.00, 86.4, 620.0)">o</text><text xml:space="preserve" font-family="AvenirNext-Regular,Avenir Next" font-size="37.0" fill="#404040" transform="matrix(1.00, 0.00, -0.00, -1.00, 109.0, 620.0)">m</text><text xml:space="preserve" font-family="AvenirNext-Regular,Avenir Next" font-size="37.0" fill="#404040" transform="matrix(1.00, 0.00, -0.00, -1.00, 141.7, 620.0)">o</text><text xml:space="preserve" font-family="AvenirNext-Regular,Avenir Next" font-size="37.0" fill="#404040" transform="matrix(1.00, 0.00, -0.00, -1.00, 164.3, 620.0)">s</text><image xlink:href="F27755CD02B5DE9786F1E36A19541242.png" width="1428.00" height="1358.00" transform="matrix(0.55, 0.00, -0.00, -0.55, 242.9, 756.4)"></image></g></svg>