<?xml version="1.0" encoding="UTF-8" standalone="no"?><svg xmlns="http://www.w3.org/2000/svg" xmlns:xlink="http://www.w3.org/1999/xlink" clip-rule="evenodd" stroke-miterlimit="10" viewBox="0 0 1024 768"><desc>SVG generated by Keynote</desc><defs></defs><g transform="matrix(1.00, 0.00, -0.00, -1.00, 0.0, 768.0)"><g><clipPath id="clip0x6000056b41c0"><path d="M 0.0 768.0 L 1024.0 768.0 L 1024.0 0.0 L 0.0 0.0 Z M 0.0 768.0 "></path></clipPath><g clip-path="url(#clip0x6000056b41c0)"><image xlink:href="../../62A57402-F52E-4D18-8FC0-8772A6409873/assets/5A8C990C4A4597A5304AC9F14CDA7C87.jpeg" width="2048.00" height="1536.00" transform="matrix(0.50, 0.00, -0.00, -0.50, 0.0, 768.0)"></image></g></g><g opacity="0.30"><g><clipPath id="clip0x6000064a7500"><path d="M 39.0 595.0 L 986.0 595.0 L 986.0 599.0 L 39.0 599.0 Z M 39.0 595.0 "></path></clipPath><g clip-path="url(#clip0x6000064a7500)"><path d="M 0.0 0.5 L 944.7 0.5 L 944.7 0.5 L 0.0 0.5 Z M 0.0 0.0 " fill="none" stroke="#434343" stroke-width="1.00" transform="matrix(1.00, 0.00, 0.00, -1.00, 40.0, 597.0)"></path></g></g></g><g opacity="0.30"><g><clipPath id="clip0x600004ebb0c0"><path d="M 39.0 716.0 L 986.0 716.0 L 986.0 720.0 L 39.0 720.0 Z M 39.0 716.0 "></path></clipPath><g clip-path="url(#clip0x600004ebb0c0)"><path d="M 0.0 0.5 L 944.7 0.5 L 944.7 0.5 L 0.0 0.5 Z M 0.0 0.0 " fill="none" stroke="#434343" stroke-width="1.00" transform="matrix(1.00, 0.00, 0.00, -1.00, 40.0, 718.0)"></path></g></g></g><text xml:space="preserve" font-family="AvenirNext-Regular,Avenir Next" font-size="64.4" fill="#D93D2A" transform="matrix(1.00, 0.00, -0.00, -1.00, 86.4, 636.6)">R</text><text xml:space="preserve" font-family="AvenirNext-Regular,Avenir Next" font-size="64.4" fill="#D93D2A" transform="matrix(1.00, 0.00, -0.00, -1.00, 124.2, 636.6)">e</text><text xml:space="preserve" font-family="AvenirNext-Regular,Avenir Next" font-size="64.4" fill="#D93D2A" transform="matrix(1.00, 0.00, -0.00, -1.00, 161.1, 636.6)">s</text><text xml:space="preserve" font-family="AvenirNext-Regular,Avenir Next" font-size="64.4" fill="#D93D2A" transform="matrix(1.00, 0.00, -0.00, -1.00, 189.7, 636.6)">u</text><text xml:space="preserve" font-family="AvenirNext-Regular,Avenir Next" font-size="64.4" fill="#D93D2A" transform="matrix(1.00, 0.00, -0.00, -1.00, 227.1, 636.6)">l</text><text xml:space="preserve" font-family="AvenirNext-Regular,Avenir Next" font-size="64.4" fill="#D93D2A" transform="matrix(1.00, 0.00, -0.00, -1.00, 243.3, 636.6)">t</text><text xml:space="preserve" font-family="AvenirNext-Regular,Avenir Next" font-size="64.4" fill="#D93D2A" transform="matrix(1.00, 0.00, -0.00, -1.00, 263.7, 636.6)">a</text><text xml:space="preserve" font-family="AvenirNext-Regular,Avenir Next" font-size="64.4" fill="#D93D2A" transform="matrix(1.00, 0.00, -0.00, -1.00, 298.1, 636.6)">d</text><text xml:space="preserve" font-family="AvenirNext-Regular,Avenir Next" font-size="64.4" fill="#D93D2A" transform="matrix(1.00, 0.00, -0.00, -1.00, 339.2, 636.6)">o</text><text xml:space="preserve" font-family="AvenirNext-Regular,Avenir Next" font-size="64.4" fill="#D93D2A" transform="matrix(1.00, 0.00, -0.00, -1.00, 378.5, 636.6)">s</text><text xml:space="preserve" font-family="AvenirNext-Regular,Avenir Next" font-size="64.4" fill="#D93D2A" transform="matrix(1.00, 0.00, -0.00, -1.00, 407.1, 636.6)"> </text><text xml:space="preserve" font-family="AvenirNext-Regular,Avenir Next" font-size="64.4" fill="#D93D2A" transform="matrix(1.00, 0.00, -0.00, -1.00, 423.2, 636.6)">M</text><text xml:space="preserve" font-family="AvenirNext-Regular,Avenir Next" font-size="64.4" fill="#D93D2A" transform="matrix(1.00, 0.00, -0.00, -1.00, 480.3, 636.6)">é</text><text xml:space="preserve" font-family="AvenirNext-Regular,Avenir Next" font-size="64.4" fill="#D93D2A" transform="matrix(1.00, 0.00, -0.00, -1.00, 517.1, 636.6)">t</text><text xml:space="preserve" font-family="AvenirNext-Regular,Avenir Next" font-size="64.4" fill="#D93D2A" transform="matrix(1.00, 0.00, -0.00, -1.00, 537.5, 636.6)">o</text><text xml:space="preserve" font-family="AvenirNext-Regular,Avenir Next" font-size="64.4" fill="#D93D2A" transform="matrix(1.00, 0.00, -0.00, -1.00, 576.9, 636.6)">d</text><text xml:space="preserve" font-family="AvenirNext-Regular,Avenir Next" font-size="64.4" fill="#D93D2A" transform="matrix(1.00, 0.00, -0.00, -1.00, 617.9, 636.6)">o</text><text xml:space="preserve" font-family="AvenirNext-Regular,Avenir Next" font-size="64.4" fill="#D93D2A" transform="matrix(1.00, 0.00, -0.00, -1.00, 657.2, 636.6)"> </text><text xml:space="preserve" font-family="AvenirNext-Regular,Avenir Next" font-size="64.4" fill="#D93D2A" transform="matrix(1.00, 0.00, -0.00, -1.00, 673.3, 636.6)">P</text><text xml:space="preserve" font-family="AvenirNext-Regular,Avenir Next" font-size="64.4" fill="#D93D2A" transform="matrix(1.00, 0.00, -0.00, -1.00, 707.6, 636.6)">r</text><text xml:space="preserve" font-family="AvenirNext-Regular,Avenir Next" font-size="64.4" fill="#D93D2A" transform="matrix(1.00, 0.00, -0.00, -1.00, 729.6, 636.6)">o</text><text xml:space="preserve" font-family="AvenirNext-Regular,Avenir Next" font-size="64.4" fill="#D93D2A" transform="matrix(1.00, 0.00, -0.00, -1.00, 769.0, 636.6)">p</text><text xml:space="preserve" font-family="AvenirNext-Regular,Avenir Next" font-size="64.4" fill="#D93D2A" transform="matrix(1.00, 0.00, -0.00, -1.00, 809.9, 636.6)">o</text><text xml:space="preserve" font-family="AvenirNext-Regular,Avenir Next" font-size="64.4" fill="#D93D2A" transform="matrix(1.00, 0.00, -0.00, -1.00, 849.2, 636.6)">s</text><text xml:space="preserve" font-family="AvenirNext-Regular,Avenir Next" font-size="64.4" fill="#D93D2A" transform="matrix(1.00, 0.00, -0.00, -1.00, 877.8, 636.6)">t</text><text xml:space="preserve" font-family="AvenirNext-Regular,Avenir Next" font-size="64.4" fill="#D93D2A" transform="matrix(1.00, 0.00, -0.00, -1.00, 898.2, 636.6)">o</text><text xml:space="preserve" font-family="ZapfDingbatsITC,Zapf Dingbats" font-size="21.6" fill="#919191" transform="matrix(1.00, 0.00, -0.00, -1.00, 44.0, 422.3)">❖</text><text xml:space="preserve" font-family="AvenirNext-Regular,Avenir Next" font-size="36.0" fill="#404040" transform="matrix(1.00, 0.00, -0.00, -1.00, 81.0, 419.2)">F</text><text xml:space="preserve" font-family="AvenirNext-Regular,Avenir Next" font-size="36.0" fill="#404040" transform="matrix(1.00, 0.00, -0.00, -1.00, 100.6, 419.2)">i</text><text xml:space="preserve" font-family="AvenirNext-Regular,Avenir Next" font-size="36.0" fill="#404040" transform="matrix(1.00, 0.00, -0.00, -1.00, 109.6, 419.2)">x</text><text xml:space="preserve" font-family="AvenirNext-Regular,Avenir Next" font-size="36.0" fill="#404040" transform="matrix(1.00, 0.00, -0.00, -1.00, 127.0, 419.2)">a</text><text xml:space="preserve" font-family="AvenirNext-Regular,Avenir Next" font-size="36.0" fill="#404040" transform="matrix(1.00, 0.00, -0.00, -1.00, 146.2, 419.2)">n</text><text xml:space="preserve" font-family="AvenirNext-Regular,Avenir Next" font-size="36.0" fill="#404040" transform="matrix(1.00, 0.00, -0.00, -1.00, 167.1, 419.2)">d</text><text xml:space="preserve" font-family="AvenirNext-Regular,Avenir Next" font-size="36.0" fill="#404040" transform="matrix(1.00, 0.00, -0.00, -1.00, 190.1, 419.2)">o</text><text xml:space="preserve" font-family="AvenirNext-Regular,Avenir Next" font-size="36.0" fill="#404040" transform="matrix(1.00, 0.00, -0.00, -1.00, 212.1, 419.2)">:</text><text xml:space="preserve" font-family="AvenirNext-Regular,Avenir Next" font-size="36.0" fill="#404040" transform="matrix(1.00, 0.00, -0.00, -1.00, 222.9, 419.2)"> </text><text xml:space="preserve" font-family="ZapfDingbatsITC,Zapf Dingbats" font-size="21.6" fill="#919191" transform="matrix(1.00, 0.00, -0.00, -1.00, 81.0, 349.3)">❖</text><text xml:space="preserve" font-family="AvenirNext-DemiBoldItalic,Avenir Next" font-style="italic" font-weight="bold" font-size="36.0" fill="#404040" transform="matrix(1.00, 0.00, -0.00, -1.00, 118.0, 346.2)">k</text><text xml:space="preserve" font-family="AvenirNext-Regular,Avenir Next" font-size="36.0" fill="#404040" transform="matrix(1.00, 0.00, -0.00, -1.00, 136.8, 346.2)"> </text><text xml:space="preserve" font-family="AvenirNext-Regular,Avenir Next" font-size="36.0" fill="#404040" transform="matrix(1.00, 0.00, -0.00, -1.00, 145.8, 346.2)">=</text><text xml:space="preserve" font-family="AvenirNext-Regular,Avenir Next" font-size="36.0" fill="#404040" transform="matrix(1.00, 0.00, -0.00, -1.00, 169.7, 346.2)">&gt;</text><text xml:space="preserve" font-family="AvenirNext-Regular,Avenir Next" font-size="36.0" fill="#404040" transform="matrix(1.00, 0.00, -0.00, -1.00, 193.7, 346.2)"> </text><text xml:space="preserve" font-family="AvenirNext-Regular,Avenir Next" font-size="36.0" fill="#404040" transform="matrix(1.00, 0.00, -0.00, -1.00, 202.7, 346.2)">c</text><text xml:space="preserve" font-family="AvenirNext-Regular,Avenir Next" font-size="36.0" fill="#404040" transform="matrix(1.00, 0.00, -0.00, -1.00, 220.7, 346.2)">u</text><text xml:space="preserve" font-family="AvenirNext-Regular,Avenir Next" font-size="36.0" fill="#404040" transform="matrix(1.00, 0.00, -0.00, -1.00, 241.6, 346.2)">r</text><text xml:space="preserve" font-family="AvenirNext-Regular,Avenir Next" font-size="36.0" fill="#404040" transform="matrix(1.00, 0.00, -0.00, -1.00, 254.6, 346.2)">v</text><text xml:space="preserve" font-family="AvenirNext-Regular,Avenir Next" font-size="36.0" fill="#404040" transform="matrix(1.00, 0.00, -0.00, -1.00, 272.2, 346.2)">a</text><text xml:space="preserve" font-family="AvenirNext-Regular,Avenir Next" font-size="36.0" fill="#404040" transform="matrix(1.00, 0.00, -0.00, -1.00, 291.4, 346.2)">s</text><text xml:space="preserve" font-family="AvenirNext-Regular,Avenir Next" font-size="36.0" fill="#404040" transform="matrix(1.00, 0.00, -0.00, -1.00, 307.4, 346.2)"> </text><text xml:space="preserve" font-family="AvenirNext-Regular,Avenir Next" font-size="36.0" fill="#404040" transform="matrix(1.00, 0.00, -0.00, -1.00, 316.4, 346.2)">p</text><text xml:space="preserve" font-family="AvenirNext-Regular,Avenir Next" font-size="36.0" fill="#404040" transform="matrix(1.00, 0.00, -0.00, -1.00, 339.2, 346.2)">a</text><text xml:space="preserve" font-family="AvenirNext-Regular,Avenir Next" font-size="36.0" fill="#404040" transform="matrix(1.00, 0.00, -0.00, -1.00, 358.4, 346.2)">r</text><text xml:space="preserve" font-family="AvenirNext-Regular,Avenir Next" font-size="36.0" fill="#404040" transform="matrix(1.00, 0.00, -0.00, -1.00, 370.8, 346.2)">e</text><text xml:space="preserve" font-family="AvenirNext-Regular,Avenir Next" font-size="36.0" fill="#404040" transform="matrix(1.00, 0.00, -0.00, -1.00, 391.3, 346.2)">c</text><text xml:space="preserve" font-family="AvenirNext-Regular,Avenir Next" font-size="36.0" fill="#404040" transform="matrix(1.00, 0.00, -0.00, -1.00, 409.3, 346.2)">i</text><text xml:space="preserve" font-family="AvenirNext-Regular,Avenir Next" font-size="36.0" fill="#404040" transform="matrix(1.00, 0.00, -0.00, -1.00, 418.3, 346.2)">d</text><text xml:space="preserve" font-family="AvenirNext-Regular,Avenir Next" font-size="36.0" fill="#404040" transform="matrix(1.00, 0.00, -0.00, -1.00, 441.3, 346.2)">a</text><text xml:space="preserve" font-family="AvenirNext-Regular,Avenir Next" font-size="36.0" fill="#404040" transform="matrix(1.00, 0.00, -0.00, -1.00, 460.5, 346.2)">s</text><text xml:space="preserve" font-family="AvenirNext-Regular,Avenir Next" font-size="36.0" fill="#404040" transform="matrix(1.00, 0.00, -0.00, -1.00, 476.5, 346.2)"> </text><text xml:space="preserve" font-family="ZapfDingbatsITC,Zapf Dingbats" font-size="21.6" fill="#919191" transform="matrix(1.00, 0.00, -0.00, -1.00, 81.0, 276.3)">❖</text><text xml:space="preserve" font-family="AvenirNext-DemiBoldItalic,Avenir Next" font-style="italic" font-weight="bold" font-size="36.0" fill="#404040" transform="matrix(1.00, 0.00, -0.00, -1.00, 118.0, 273.2)">s</text><text xml:space="preserve" font-family="AvenirNext-DemiBoldItalic,Avenir Next" font-style="italic" font-weight="bold" font-size="36.0" fill="#404040" transform="matrix(1.00, 0.00, -0.00, -1.00, 134.0, 273.2)">i</text><text xml:space="preserve" font-family="AvenirNext-DemiBoldItalic,Avenir Next" font-style="italic" font-weight="bold" font-size="36.0" fill="#404040" transform="matrix(1.00, 0.00, -0.00, -1.00, 143.6, 273.2)">g</text><text xml:space="preserve" font-family="AvenirNext-DemiBoldItalic,Avenir Next" font-style="italic" font-weight="bold" font-size="36.0" fill="#404040" transform="matrix(1.00, 0.00, -0.00, -1.00, 166.3, 273.2)">_</text><text xml:space="preserve" font-family="AvenirNext-DemiBoldItalic,Avenir Next" font-style="italic" font-weight="bold" font-size="36.0" fill="#404040" transform="matrix(1.00, 0.00, -0.00, -1.00, 184.3, 273.2)">f</text><text xml:space="preserve" font-family="AvenirNext-DemiBoldItalic,Avenir Next" font-style="italic" font-weight="bold" font-size="36.0" fill="#404040" transform="matrix(1.00, 0.00, -0.00, -1.00, 196.0, 273.2)">a</text><text xml:space="preserve" font-family="AvenirNext-DemiBoldItalic,Avenir Next" font-style="italic" font-weight="bold" font-size="36.0" fill="#404040" transform="matrix(1.00, 0.00, -0.00, -1.00, 215.4, 273.2)">c</text><text xml:space="preserve" font-family="AvenirNext-DemiBoldItalic,Avenir Next" font-style="italic" font-weight="bold" font-size="36.0" fill="#404040" transform="matrix(1.00, 0.00, -0.00, -1.00, 233.1, 273.2)">t</text><text xml:space="preserve" font-family="AvenirNext-DemiBoldItalic,Avenir Next" font-style="italic" font-weight="bold" font-size="36.0" fill="#404040" transform="matrix(1.00, 0.00, -0.00, -1.00, 245.3, 273.2)">o</text><text xml:space="preserve" font-family="AvenirNext-DemiBoldItalic,Avenir Next" font-style="italic" font-weight="bold" font-size="36.0" fill="#404040" transform="matrix(1.00, 0.00, -0.00, -1.00, 267.1, 273.2)">r</text><text xml:space="preserve" font-family="AvenirNext-Regular,Avenir Next" font-size="36.0" fill="#404040" transform="matrix(1.00, 0.00, -0.00, -1.00, 279.3, 273.2)"> </text><text xml:space="preserve" font-family="AvenirNext-Regular,Avenir Next" font-size="36.0" fill="#404040" transform="matrix(1.00, 0.00, -0.00, -1.00, 288.3, 273.2)"> </text><text xml:space="preserve" font-family="AvenirNext-Regular,Avenir Next" font-size="36.0" fill="#404040" transform="matrix(1.00, 0.00, -0.00, -1.00, 297.3, 273.2)">=</text><text xml:space="preserve" font-family="AvenirNext-Regular,Avenir Next" font-size="36.0" fill="#404040" transform="matrix(1.00, 0.00, -0.00, -1.00, 321.3, 273.2)">&gt;</text><text xml:space="preserve" font-family="AvenirNext-Regular,Avenir Next" font-size="36.0" fill="#404040" transform="matrix(1.00, 0.00, -0.00, -1.00, 345.2, 273.2)"> </text><text xml:space="preserve" font-family="AvenirNext-Regular,Avenir Next" font-size="36.0" fill="#404040" transform="matrix(1.00, 0.00, -0.00, -1.00, 354.2, 273.2)">c</text><text xml:space="preserve" font-family="AvenirNext-Regular,Avenir Next" font-size="36.0" fill="#404040" transform="matrix(1.00, 0.00, -0.00, -1.00, 372.2, 273.2)">u</text><text xml:space="preserve" font-family="AvenirNext-Regular,Avenir Next" font-size="36.0" fill="#404040" transform="matrix(1.00, 0.00, -0.00, -1.00, 393.1, 273.2)">r</text><text xml:space="preserve" font-family="AvenirNext-Regular,Avenir Next" font-size="36.0" fill="#404040" transform="matrix(1.00, 0.00, -0.00, -1.00, 406.1, 273.2)">v</text><text xml:space="preserve" font-family="AvenirNext-Regular,Avenir Next" font-size="36.0" fill="#404040" transform="matrix(1.00, 0.00, -0.00, -1.00, 423.7, 273.2)">a</text><text xml:space="preserve" font-family="AvenirNext-Regular,Avenir Next" font-size="36.0" fill="#404040" transform="matrix(1.00, 0.00, -0.00, -1.00, 442.9, 273.2)">s</text><text xml:space="preserve" font-family="AvenirNext-Regular,Avenir Next" font-size="36.0" fill="#404040" transform="matrix(1.00, 0.00, -0.00, -1.00, 458.9, 273.2)"> </text><text xml:space="preserve" font-family="AvenirNext-Regular,Avenir Next" font-size="36.0" fill="#404040" transform="matrix(1.00, 0.00, -0.00, -1.00, 467.9, 273.2)">p</text><text xml:space="preserve" font-family="AvenirNext-Regular,Avenir Next" font-size="36.0" fill="#404040" transform="matrix(1.00, 0.00, -0.00, -1.00, 490.7, 273.2)">a</text><text xml:space="preserve" font-family="AvenirNext-Regular,Avenir Next" font-size="36.0" fill="#404040" transform="matrix(1.00, 0.00, -0.00, -1.00, 510.0, 273.2)">r</text><text xml:space="preserve" font-family="AvenirNext-Regular,Avenir Next" font-size="36.0" fill="#404040" transform="matrix(1.00, 0.00, -0.00, -1.00, 522.3, 273.2)">e</text><text xml:space="preserve" font-family="AvenirNext-Regular,Avenir Next" font-size="36.0" fill="#404040" transform="matrix(1.00, 0.00, -0.00, -1.00, 542.9, 273.2)">c</text><text xml:space="preserve" font-family="AvenirNext-Regular,Avenir Next" font-size="36.0" fill="#404040" transform="matrix(1.00, 0.00, -0.00, -1.00, 560.9, 273.2)">i</text><text xml:space="preserve" font-family="AvenirNext-Regular,Avenir Next" font-size="36.0" fill="#404040" transform="matrix(1.00, 0.00, -0.00, -1.00, 569.9, 273.2)">d</text><text xml:space="preserve" font-family="AvenirNext-Regular,Avenir Next" font-size="36.0" fill="#404040" transform="matrix(1.00, 0.00, -0.00, -1.00, 592.8, 273.2)">a</text><text xml:space="preserve" font-family="AvenirNext-Regular,Avenir Next" font-size="36.0" fill="#404040" transform="matrix(1.00, 0.00, -0.00, -1.00, 612.0, 273.2)">s</text><text xml:space="preserve" font-family="AvenirNext-Regular,Avenir Next" font-size="36.0" fill="#404040" transform="matrix(1.00, 0.00, -0.00, -1.00, 628.0, 273.2)"> </text><text xml:space="preserve" font-family="ZapfDingbatsITC,Zapf Dingbats" font-size="21.6" fill="#919191" transform="matrix(1.00, 0.00, -0.00, -1.00, 81.0, 203.3)">❖</text><text xml:space="preserve" font-family="AvenirNext-DemiBoldItalic,Avenir Next" font-style="italic" font-weight="bold" font-size="36.0" fill="#404040" transform="matrix(1.00, 0.00, -0.00, -1.00, 118.0, 200.2)">z</text><text xml:space="preserve" font-family="AvenirNext-DemiBoldItalic,Avenir Next" font-style="italic" font-weight="bold" font-size="36.0" fill="#404040" transform="matrix(1.00, 0.00, -0.00, -1.00, 135.3, 200.2)">e</text><text xml:space="preserve" font-family="AvenirNext-DemiBoldItalic,Avenir Next" font-style="italic" font-weight="bold" font-size="36.0" fill="#404040" transform="matrix(1.00, 0.00, -0.00, -1.00, 155.6, 200.2)">r</text><text xml:space="preserve" font-family="AvenirNext-DemiBoldItalic,Avenir Next" font-style="italic" font-weight="bold" font-size="36.0" fill="#404040" transform="matrix(1.00, 0.00, -0.00, -1.00, 167.4, 200.2)">o</text><text xml:space="preserve" font-family="AvenirNext-DemiBoldItalic,Avenir Next" font-style="italic" font-weight="bold" font-size="36.0" fill="#404040" transform="matrix(1.00, 0.00, -0.00, -1.00, 189.1, 200.2)">_</text><text xml:space="preserve" font-family="AvenirNext-DemiBoldItalic,Avenir Next" font-style="italic" font-weight="bold" font-size="36.0" fill="#404040" transform="matrix(1.00, 0.00, -0.00, -1.00, 207.1, 200.2)">t</text><text xml:space="preserve" font-family="AvenirNext-DemiBoldItalic,Avenir Next" font-style="italic" font-weight="bold" font-size="36.0" fill="#404040" transform="matrix(1.00, 0.00, -0.00, -1.00, 219.3, 200.2)">h</text><text xml:space="preserve" font-family="AvenirNext-DemiBoldItalic,Avenir Next" font-style="italic" font-weight="bold" font-size="36.0" fill="#404040" transform="matrix(1.00, 0.00, -0.00, -1.00, 240.4, 200.2)">r</text><text xml:space="preserve" font-family="AvenirNext-DemiBoldItalic,Avenir Next" font-style="italic" font-weight="bold" font-size="36.0" fill="#404040" transform="matrix(1.00, 0.00, -0.00, -1.00, 252.1, 200.2)">e</text><text xml:space="preserve" font-family="AvenirNext-DemiBoldItalic,Avenir Next" font-style="italic" font-weight="bold" font-size="36.0" fill="#404040" transform="matrix(1.00, 0.00, -0.00, -1.00, 272.4, 200.2)">s</text><text xml:space="preserve" font-family="AvenirNext-DemiBoldItalic,Avenir Next" font-style="italic" font-weight="bold" font-size="36.0" fill="#404040" transform="matrix(1.00, 0.00, -0.00, -1.00, 288.4, 200.2)">h</text><text xml:space="preserve" font-family="AvenirNext-DemiBoldItalic,Avenir Next" font-style="italic" font-weight="bold" font-size="36.0" fill="#404040" transform="matrix(1.00, 0.00, -0.00, -1.00, 309.4, 200.2)">o</text><text xml:space="preserve" font-family="AvenirNext-DemiBoldItalic,Avenir Next" font-style="italic" font-weight="bold" font-size="36.0" fill="#404040" transform="matrix(1.00, 0.00, -0.00, -1.00, 331.2, 200.2)">l</text><text xml:space="preserve" font-family="AvenirNext-DemiBoldItalic,Avenir Next" font-style="italic" font-weight="bold" font-size="36.0" fill="#404040" transform="matrix(1.00, 0.00, -0.00, -1.00, 340.8, 200.2)">d</text><text xml:space="preserve" font-family="AvenirNext-Regular,Avenir Next" font-size="36.0" fill="#404040" transform="matrix(1.00, 0.00, -0.00, -1.00, 363.6, 200.2)"> </text><text xml:space="preserve" font-family="AvenirNext-Regular,Avenir Next" font-size="36.0" fill="#404040" transform="matrix(1.00, 0.00, -0.00, -1.00, 372.6, 200.2)">=</text><text xml:space="preserve" font-family="AvenirNext-Regular,Avenir Next" font-size="36.0" fill="#404040" transform="matrix(1.00, 0.00, -0.00, -1.00, 396.6, 200.2)">&gt;</text><text xml:space="preserve" font-family="AvenirNext-Regular,Avenir Next" font-size="36.0" fill="#404040" transform="matrix(1.00, 0.00, -0.00, -1.00, 420.6, 200.2)"> </text><text xml:space="preserve" font-family="AvenirNext-Regular,Avenir Next" font-size="36.0" fill="#404040" transform="matrix(1.00, 0.00, -0.00, -1.00, 429.6, 200.2)">c</text><text xml:space="preserve" font-family="AvenirNext-Regular,Avenir Next" font-size="36.0" fill="#404040" transform="matrix(1.00, 0.00, -0.00, -1.00, 447.6, 200.2)">u</text><text xml:space="preserve" font-family="AvenirNext-Regular,Avenir Next" font-size="36.0" fill="#404040" transform="matrix(1.00, 0.00, -0.00, -1.00, 468.5, 200.2)">r</text><text xml:space="preserve" font-family="AvenirNext-Regular,Avenir Next" font-size="36.0" fill="#404040" transform="matrix(1.00, 0.00, -0.00, -1.00, 481.5, 200.2)">v</text><text xml:space="preserve" font-family="AvenirNext-Regular,Avenir Next" font-size="36.0" fill="#404040" transform="matrix(1.00, 0.00, -0.00, -1.00, 499.0, 200.2)">a</text><text xml:space="preserve" font-family="AvenirNext-Regular,Avenir Next" font-size="36.0" fill="#404040" transform="matrix(1.00, 0.00, -0.00, -1.00, 518.2, 200.2)"> </text><text xml:space="preserve" font-family="AvenirNext-Regular,Avenir Next" font-size="36.0" fill="#404040" transform="matrix(1.00, 0.00, -0.00, -1.00, 527.2, 200.2)">l</text><text xml:space="preserve" font-family="AvenirNext-Regular,Avenir Next" font-size="36.0" fill="#404040" transform="matrix(1.00, 0.00, -0.00, -1.00, 536.3, 200.2)">o</text><text xml:space="preserve" font-family="AvenirNext-Regular,Avenir Next" font-size="36.0" fill="#404040" transform="matrix(1.00, 0.00, -0.00, -1.00, 558.3, 200.2)">c</text><text xml:space="preserve" font-family="AvenirNext-Regular,Avenir Next" font-size="36.0" fill="#404040" transform="matrix(1.00, 0.00, -0.00, -1.00, 576.3, 200.2)">a</text><text xml:space="preserve" font-family="AvenirNext-Regular,Avenir Next" font-size="36.0" fill="#404040" transform="matrix(1.00, 0.00, -0.00, -1.00, 595.5, 200.2)">l</text><text xml:space="preserve" font-family="AvenirNext-Regular,Avenir Next" font-size="36.0" fill="#404040" transform="matrix(1.00, 0.00, -0.00, -1.00, 604.6, 200.2)">i</text><text xml:space="preserve" font-family="AvenirNext-Regular,Avenir Next" font-size="36.0" fill="#404040" transform="matrix(1.00, 0.00, -0.00, -1.00, 613.6, 200.2)">z</text><text xml:space="preserve" font-family="AvenirNext-Regular,Avenir Next" font-size="36.0" fill="#404040" transform="matrix(1.00, 0.00, -0.00, -1.00, 629.5, 200.2)">a</text><text xml:space="preserve" font-family="AvenirNext-Regular,Avenir Next" font-size="36.0" fill="#404040" transform="matrix(1.00, 0.00, -0.00, -1.00, 648.7, 200.2)">d</text><text xml:space="preserve" font-family="AvenirNext-Regular,Avenir Next" font-size="36.0" fill="#404040" transform="matrix(1.00, 0.00, -0.00, -1.00, 671.7, 200.2)">a</text><text xml:space="preserve" font-family="AvenirNext-Regular,Avenir Next" font-size="36.0" fill="#404040" transform="matrix(1.00, 0.00, -0.00, -1.00, 690.9, 200.2)">s</text></g></svg>