<?xml version="1.0" encoding="UTF-8" standalone="no"?><svg xmlns="http://www.w3.org/2000/svg" xmlns:xlink="http://www.w3.org/1999/xlink" clip-rule="evenodd" stroke-miterlimit="10" viewBox="0 0 1024 768"><desc>SVG generated by Keynote</desc><defs></defs><g transform="matrix(1.00, 0.00, -0.00, -1.00, 0.0, 768.0)"><g><clipPath id="clip0x6000058b08c0"><path d="M 0.0 768.0 L 1024.0 768.0 L 1024.0 0.0 L 0.0 0.0 Z M 0.0 768.0 "></path></clipPath><g clip-path="url(#clip0x6000058b08c0)"><image xlink:href="../../62A57402-F52E-4D18-8FC0-8772A6409873/assets/5A8C990C4A4597A5304AC9F14CDA7C87.jpeg" width="2048.00" height="1536.00" transform="matrix(0.50, 0.00, -0.00, -0.50, 0.0, 768.0)"></image></g></g><g opacity="0.30"><g><clipPath id="clip0x608005aac600"><path d="M 39.0 595.0 L 986.0 595.0 L 986.0 599.0 L 39.0 599.0 Z M 39.0 595.0 "></path></clipPath><g clip-path="url(#clip0x608005aac600)"><path d="M 0.0 0.5 L 944.7 0.5 L 944.7 0.5 L 0.0 0.5 Z M 0.0 0.0 " fill="none" stroke="#434343" stroke-width="1.00" transform="matrix(1.00, 0.00, 0.00, -1.00, 40.0, 597.0)"></path></g></g></g><g opacity="0.30"><g><clipPath id="clip0x608005aa1ec0"><path d="M 39.0 716.0 L 986.0 716.0 L 986.0 720.0 L 39.0 720.0 Z M 39.0 716.0 "></path></clipPath><g clip-path="url(#clip0x608005aa1ec0)"><path d="M 0.0 0.5 L 944.7 0.5 L 944.7 0.5 L 0.0 0.5 Z M 0.0 0.0 " fill="none" stroke="#434343" stroke-width="1.00" transform="matrix(1.00, 0.00, 0.00, -1.00, 40.0, 718.0)"></path></g></g></g><text xml:space="preserve" font-family="AvenirNext-Regular,Avenir Next" font-size="64.4" fill="#D93D2A" transform="matrix(1.00, 0.00, -0.00, -1.00, 359.7, 636.6)">M</text><text xml:space="preserve" font-family="AvenirNext-Regular,Avenir Next" font-size="64.4" fill="#D93D2A" transform="matrix(1.00, 0.00, -0.00, -1.00, 416.7, 636.6)">o</text><text xml:space="preserve" font-family="AvenirNext-Regular,Avenir Next" font-size="64.4" fill="#D93D2A" transform="matrix(1.00, 0.00, -0.00, -1.00, 456.1, 636.6)">t</text><text xml:space="preserve" font-family="AvenirNext-Regular,Avenir Next" font-size="64.4" fill="#D93D2A" transform="matrix(1.00, 0.00, -0.00, -1.00, 476.5, 636.6)">i</text><text xml:space="preserve" font-family="AvenirNext-Regular,Avenir Next" font-size="64.4" fill="#D93D2A" transform="matrix(1.00, 0.00, -0.00, -1.00, 492.6, 636.6)">v</text><text xml:space="preserve" font-family="AvenirNext-Regular,Avenir Next" font-size="64.4" fill="#D93D2A" transform="matrix(1.00, 0.00, -0.00, -1.00, 524.0, 636.6)">a</text><text xml:space="preserve" font-family="AvenirNext-Regular,Avenir Next" font-size="64.4" fill="#D93D2A" transform="matrix(1.00, 0.00, -0.00, -1.00, 558.4, 636.6)">ç</text><text xml:space="preserve" font-family="AvenirNext-Regular,Avenir Next" font-size="64.4" fill="#D93D2A" transform="matrix(1.00, 0.00, -0.00, -1.00, 590.6, 636.6)">ã</text><text xml:space="preserve" font-family="AvenirNext-Regular,Avenir Next" font-size="64.4" fill="#D93D2A" transform="matrix(1.00, 0.00, -0.00, -1.00, 625.0, 636.6)">o</text><text xml:space="preserve" font-family="ZapfDingbatsITC,Zapf Dingbats" font-size="20.4" fill="#919191" transform="matrix(1.00, 0.00, -0.00, -1.00, 44.0, 383.1)">❖</text><text xml:space="preserve" font-family="AvenirNext-Regular,Avenir Next" font-size="34.0" fill="#404040" transform="matrix(1.00, 0.00, -0.00, -1.00, 78.9, 380.4)">D</text><text xml:space="preserve" font-family="AvenirNext-Regular,Avenir Next" font-size="34.0" fill="#404040" transform="matrix(1.00, 0.00, -0.00, -1.00, 104.7, 380.4)">i</text><text xml:space="preserve" font-family="AvenirNext-Regular,Avenir Next" font-size="34.0" fill="#404040" transform="matrix(1.00, 0.00, -0.00, -1.00, 113.2, 380.4)">m</text><text xml:space="preserve" font-family="AvenirNext-Regular,Avenir Next" font-size="34.0" fill="#404040" transform="matrix(1.00, 0.00, -0.00, -1.00, 143.2, 380.4)">i</text><text xml:space="preserve" font-family="AvenirNext-Regular,Avenir Next" font-size="34.0" fill="#404040" transform="matrix(1.00, 0.00, -0.00, -1.00, 151.7, 380.4)">n</text><text xml:space="preserve" font-family="AvenirNext-Regular,Avenir Next" font-size="34.0" fill="#404040" transform="matrix(1.00, 0.00, -0.00, -1.00, 171.5, 380.4)">u</text><text xml:space="preserve" font-family="AvenirNext-Regular,Avenir Next" font-size="34.0" fill="#404040" transform="matrix(1.00, 0.00, -0.00, -1.00, 191.2, 380.4)">i</text><text xml:space="preserve" font-family="AvenirNext-Regular,Avenir Next" font-size="34.0" fill="#404040" transform="matrix(1.00, 0.00, -0.00, -1.00, 199.7, 380.4)">r</text><text xml:space="preserve" font-family="AvenirNext-Regular,Avenir Next" font-size="34.0" fill="#404040" transform="matrix(1.00, 0.00, -0.00, -1.00, 212.0, 380.4)"> </text><text xml:space="preserve" font-family="ZapfDingbatsITC,Zapf Dingbats" font-size="20.4" fill="#919191" transform="matrix(1.00, 0.00, -0.00, -1.00, 81.0, 313.1)">❖</text><text xml:space="preserve" font-family="AvenirNext-Regular,Avenir Next" font-size="34.0" fill="#404040" transform="matrix(1.00, 0.00, -0.00, -1.00, 115.9, 310.4)">C</text><text xml:space="preserve" font-family="AvenirNext-Regular,Avenir Next" font-size="34.0" fill="#404040" transform="matrix(1.00, 0.00, -0.00, -1.00, 140.4, 310.4)">u</text><text xml:space="preserve" font-family="AvenirNext-Regular,Avenir Next" font-size="34.0" fill="#404040" transform="matrix(1.00, 0.00, -0.00, -1.00, 160.2, 310.4)">s</text><text xml:space="preserve" font-family="AvenirNext-Regular,Avenir Next" font-size="34.0" fill="#404040" transform="matrix(1.00, 0.00, -0.00, -1.00, 175.3, 310.4)">t</text><text xml:space="preserve" font-family="AvenirNext-Regular,Avenir Next" font-size="34.0" fill="#404040" transform="matrix(1.00, 0.00, -0.00, -1.00, 186.1, 310.4)">o</text><text xml:space="preserve" font-family="AvenirNext-Regular,Avenir Next" font-size="34.0" fill="#404040" transform="matrix(1.00, 0.00, -0.00, -1.00, 206.8, 310.4)"> </text><text xml:space="preserve" font-family="AvenirNext-Regular,Avenir Next" font-size="34.0" fill="#404040" transform="matrix(1.00, 0.00, -0.00, -1.00, 215.3, 310.4)">d</text><text xml:space="preserve" font-family="AvenirNext-Regular,Avenir Next" font-size="34.0" fill="#404040" transform="matrix(1.00, 0.00, -0.00, -1.00, 237.0, 310.4)">e</text><text xml:space="preserve" font-family="AvenirNext-Regular,Avenir Next" font-size="34.0" fill="#404040" transform="matrix(1.00, 0.00, -0.00, -1.00, 256.4, 310.4)"> </text><text xml:space="preserve" font-family="AvenirNext-Regular,Avenir Next" font-size="34.0" fill="#404040" transform="matrix(1.00, 0.00, -0.00, -1.00, 264.9, 310.4)">p</text><text xml:space="preserve" font-family="AvenirNext-Regular,Avenir Next" font-size="34.0" fill="#404040" transform="matrix(1.00, 0.00, -0.00, -1.00, 286.5, 310.4)">r</text><text xml:space="preserve" font-family="AvenirNext-Regular,Avenir Next" font-size="34.0" fill="#404040" transform="matrix(1.00, 0.00, -0.00, -1.00, 298.2, 310.4)">o</text><text xml:space="preserve" font-family="AvenirNext-Regular,Avenir Next" font-size="34.0" fill="#404040" transform="matrix(1.00, 0.00, -0.00, -1.00, 318.9, 310.4)">d</text><text xml:space="preserve" font-family="AvenirNext-Regular,Avenir Next" font-size="34.0" fill="#404040" transform="matrix(1.00, 0.00, -0.00, -1.00, 340.6, 310.4)">u</text><text xml:space="preserve" font-family="AvenirNext-Regular,Avenir Next" font-size="34.0" fill="#404040" transform="matrix(1.00, 0.00, -0.00, -1.00, 360.3, 310.4)">ç</text><text xml:space="preserve" font-family="AvenirNext-Regular,Avenir Next" font-size="34.0" fill="#404040" transform="matrix(1.00, 0.00, -0.00, -1.00, 377.3, 310.4)">ã</text><text xml:space="preserve" font-family="AvenirNext-Regular,Avenir Next" font-size="34.0" fill="#404040" transform="matrix(1.00, 0.00, -0.00, -1.00, 395.5, 310.4)">o</text><text xml:space="preserve" font-family="AvenirNext-Regular,Avenir Next" font-size="34.0" fill="#404040" transform="matrix(1.00, 0.00, -0.00, -1.00, 416.3, 310.4)"> </text><text xml:space="preserve" font-family="AvenirNext-Regular,Avenir Next" font-size="34.0" fill="#404040" transform="matrix(1.00, 0.00, -0.00, -1.00, 424.8, 310.4)">e</text><text xml:space="preserve" font-family="AvenirNext-Regular,Avenir Next" font-size="34.0" fill="#404040" transform="matrix(1.00, 0.00, -0.00, -1.00, 444.2, 310.4)">m</text><text xml:space="preserve" font-family="AvenirNext-Regular,Avenir Next" font-size="34.0" fill="#404040" transform="matrix(1.00, 0.00, -0.00, -1.00, 474.2, 310.4)"> </text><text xml:space="preserve" font-family="AvenirNext-Regular,Avenir Next" font-size="34.0" fill="#404040" transform="matrix(1.00, 0.00, -0.00, -1.00, 482.7, 310.4)">c</text><text xml:space="preserve" font-family="AvenirNext-Regular,Avenir Next" font-size="34.0" fill="#404040" transform="matrix(1.00, 0.00, -0.00, -1.00, 499.7, 310.4)">h</text><text xml:space="preserve" font-family="AvenirNext-Regular,Avenir Next" font-size="34.0" fill="#404040" transform="matrix(1.00, 0.00, -0.00, -1.00, 519.6, 310.4)">i</text><text xml:space="preserve" font-family="AvenirNext-Regular,Avenir Next" font-size="34.0" fill="#404040" transform="matrix(1.00, 0.00, -0.00, -1.00, 528.1, 310.4)">p</text><text xml:space="preserve" font-family="AvenirNext-Regular,Avenir Next" font-size="34.0" fill="#404040" transform="matrix(1.00, 0.00, -0.00, -1.00, 549.6, 310.4)"> </text><text xml:space="preserve" font-family="ZapfDingbatsITC,Zapf Dingbats" font-size="20.4" fill="#919191" transform="matrix(1.00, 0.00, -0.00, -1.00, 81.0, 243.1)">❖</text><text xml:space="preserve" font-family="AvenirNext-Regular,Avenir Next" font-size="34.0" fill="#404040" transform="matrix(1.00, 0.00, -0.00, -1.00, 115.9, 240.4)">C</text><text xml:space="preserve" font-family="AvenirNext-Regular,Avenir Next" font-size="34.0" fill="#404040" transform="matrix(1.00, 0.00, -0.00, -1.00, 140.0, 240.4)">o</text><text xml:space="preserve" font-family="AvenirNext-Regular,Avenir Next" font-size="34.0" fill="#404040" transform="matrix(1.00, 0.00, -0.00, -1.00, 160.8, 240.4)">n</text><text xml:space="preserve" font-family="AvenirNext-Regular,Avenir Next" font-size="34.0" fill="#404040" transform="matrix(1.00, 0.00, -0.00, -1.00, 180.5, 240.4)">s</text><text xml:space="preserve" font-family="AvenirNext-Regular,Avenir Next" font-size="34.0" fill="#404040" transform="matrix(1.00, 0.00, -0.00, -1.00, 195.6, 240.4)">u</text><text xml:space="preserve" font-family="AvenirNext-Regular,Avenir Next" font-size="34.0" fill="#404040" transform="matrix(1.00, 0.00, -0.00, -1.00, 215.4, 240.4)">m</text><text xml:space="preserve" font-family="AvenirNext-Regular,Avenir Next" font-size="34.0" fill="#404040" transform="matrix(1.00, 0.00, -0.00, -1.00, 245.4, 240.4)">o</text><text xml:space="preserve" font-family="AvenirNext-Regular,Avenir Next" font-size="34.0" fill="#404040" transform="matrix(1.00, 0.00, -0.00, -1.00, 266.2, 240.4)"> </text><text xml:space="preserve" font-family="AvenirNext-Regular,Avenir Next" font-size="34.0" fill="#404040" transform="matrix(1.00, 0.00, -0.00, -1.00, 274.7, 240.4)">d</text><text xml:space="preserve" font-family="AvenirNext-Regular,Avenir Next" font-size="34.0" fill="#404040" transform="matrix(1.00, 0.00, -0.00, -1.00, 296.3, 240.4)">e</text><text xml:space="preserve" font-family="AvenirNext-Regular,Avenir Next" font-size="34.0" fill="#404040" transform="matrix(1.00, 0.00, -0.00, -1.00, 315.8, 240.4)"> </text><text xml:space="preserve" font-family="AvenirNext-Regular,Avenir Next" font-size="34.0" fill="#404040" transform="matrix(1.00, 0.00, -0.00, -1.00, 324.3, 240.4)">e</text><text xml:space="preserve" font-family="AvenirNext-Regular,Avenir Next" font-size="34.0" fill="#404040" transform="matrix(1.00, 0.00, -0.00, -1.00, 343.7, 240.4)">n</text><text xml:space="preserve" font-family="AvenirNext-Regular,Avenir Next" font-size="34.0" fill="#404040" transform="matrix(1.00, 0.00, -0.00, -1.00, 363.5, 240.4)">e</text><text xml:space="preserve" font-family="AvenirNext-Regular,Avenir Next" font-size="34.0" fill="#404040" transform="matrix(1.00, 0.00, -0.00, -1.00, 382.9, 240.4)">r</text><text xml:space="preserve" font-family="AvenirNext-Regular,Avenir Next" font-size="34.0" fill="#404040" transform="matrix(1.00, 0.00, -0.00, -1.00, 394.6, 240.4)">g</text><text xml:space="preserve" font-family="AvenirNext-Regular,Avenir Next" font-size="34.0" fill="#404040" transform="matrix(1.00, 0.00, -0.00, -1.00, 416.1, 240.4)">i</text><text xml:space="preserve" font-family="AvenirNext-Regular,Avenir Next" font-size="34.0" fill="#404040" transform="matrix(1.00, 0.00, -0.00, -1.00, 424.6, 240.4)">a</text></g></svg>