<?xml version="1.0" encoding="UTF-8" standalone="no"?><svg xmlns="http://www.w3.org/2000/svg" xmlns:xlink="http://www.w3.org/1999/xlink" clip-rule="evenodd" stroke-miterlimit="10" viewBox="0 0 1024 768"><desc>SVG generated by Keynote</desc><defs></defs><g transform="matrix(1.00, 0.00, -0.00, -1.00, 0.0, 768.0)"><g><clipPath id="clip0x6000046b6fe0"><path d="M 0.0 768.0 L 1024.0 768.0 L 1024.0 0.0 L 0.0 0.0 Z M 0.0 768.0 "></path></clipPath><g clip-path="url(#clip0x6000046b6fe0)"><image xlink:href="../../62A57402-F52E-4D18-8FC0-8772A6409873/assets/5A8C990C4A4597A5304AC9F14CDA7C87.jpeg" width="2048.00" height="1536.00" transform="matrix(0.50, 0.00, -0.00, -0.50, 0.0, 768.0)"></image></g></g><g opacity="0.30"><g><clipPath id="clip0x6000054a6300"><path d="M 39.0 595.0 L 986.0 595.0 L 986.0 599.0 L 39.0 599.0 Z M 39.0 595.0 "></path></clipPath><g clip-path="url(#clip0x6000054a6300)"><path d="M 0.0 0.5 L 944.7 0.5 L 944.7 0.5 L 0.0 0.5 Z M 0.0 0.0 " fill="none" stroke="#434343" stroke-width="1.00" transform="matrix(1.00, 0.00, 0.00, -1.00, 40.0, 597.0)"></path></g></g></g><g opacity="0.30"><g><clipPath id="clip0x6000056af120"><path d="M 39.0 716.0 L 986.0 716.0 L 986.0 720.0 L 39.0 720.0 Z M 39.0 716.0 "></path></clipPath><g clip-path="url(#clip0x6000056af120)"><path d="M 0.0 0.5 L 944.7 0.5 L 944.7 0.5 L 0.0 0.5 Z M 0.0 0.0 " fill="none" stroke="#434343" stroke-width="1.00" transform="matrix(1.00, 0.00, 0.00, -1.00, 40.0, 718.0)"></path></g></g></g><text xml:space="preserve" font-family="AvenirNext-Regular,Avenir Next" font-size="64.4" fill="#D93D2A" transform="matrix(1.00, 0.00, -0.00, -1.00, 359.7, 636.6)">M</text><text xml:space="preserve" font-family="AvenirNext-Regular,Avenir Next" font-size="64.4" fill="#D93D2A" transform="matrix(1.00, 0.00, -0.00, -1.00, 416.7, 636.6)">o</text><text xml:space="preserve" font-family="AvenirNext-Regular,Avenir Next" font-size="64.4" fill="#D93D2A" transform="matrix(1.00, 0.00, -0.00, -1.00, 456.1, 636.6)">t</text><text xml:space="preserve" font-family="AvenirNext-Regular,Avenir Next" font-size="64.4" fill="#D93D2A" transform="matrix(1.00, 0.00, -0.00, -1.00, 476.5, 636.6)">i</text><text xml:space="preserve" font-family="AvenirNext-Regular,Avenir Next" font-size="64.4" fill="#D93D2A" transform="matrix(1.00, 0.00, -0.00, -1.00, 492.6, 636.6)">v</text><text xml:space="preserve" font-family="AvenirNext-Regular,Avenir Next" font-size="64.4" fill="#D93D2A" transform="matrix(1.00, 0.00, -0.00, -1.00, 524.0, 636.6)">a</text><text xml:space="preserve" font-family="AvenirNext-Regular,Avenir Next" font-size="64.4" fill="#D93D2A" transform="matrix(1.00, 0.00, -0.00, -1.00, 558.4, 636.6)">ç</text><text xml:space="preserve" font-family="AvenirNext-Regular,Avenir Next" font-size="64.4" fill="#D93D2A" transform="matrix(1.00, 0.00, -0.00, -1.00, 590.6, 636.6)">ã</text><text xml:space="preserve" font-family="AvenirNext-Regular,Avenir Next" font-size="64.4" fill="#D93D2A" transform="matrix(1.00, 0.00, -0.00, -1.00, 625.0, 636.6)">o</text><text xml:space="preserve" font-family="ZapfDingbatsITC,Zapf Dingbats" font-size="20.4" fill="#919191" transform="matrix(1.00, 0.00, -0.00, -1.00, 44.0, 453.1)">❖</text><text xml:space="preserve" font-family="AvenirNext-Regular,Avenir Next" font-size="34.0" fill="#404040" transform="matrix(1.00, 0.00, -0.00, -1.00, 78.9, 450.4)">P</text><text xml:space="preserve" font-family="AvenirNext-Regular,Avenir Next" font-size="34.0" fill="#404040" transform="matrix(1.00, 0.00, -0.00, -1.00, 96.2, 450.4)">o</text><text xml:space="preserve" font-family="AvenirNext-Regular,Avenir Next" font-size="34.0" fill="#404040" transform="matrix(1.00, 0.00, -0.00, -1.00, 117.0, 450.4)">p</text><text xml:space="preserve" font-family="AvenirNext-Regular,Avenir Next" font-size="34.0" fill="#404040" transform="matrix(1.00, 0.00, -0.00, -1.00, 138.6, 450.4)">u</text><text xml:space="preserve" font-family="AvenirNext-Regular,Avenir Next" font-size="34.0" fill="#404040" transform="matrix(1.00, 0.00, -0.00, -1.00, 158.3, 450.4)">l</text><text xml:space="preserve" font-family="AvenirNext-Regular,Avenir Next" font-size="34.0" fill="#404040" transform="matrix(1.00, 0.00, -0.00, -1.00, 166.9, 450.4)">a</text><text xml:space="preserve" font-family="AvenirNext-Regular,Avenir Next" font-size="34.0" fill="#404040" transform="matrix(1.00, 0.00, -0.00, -1.00, 185.1, 450.4)">r</text><text xml:space="preserve" font-family="AvenirNext-Regular,Avenir Next" font-size="34.0" fill="#404040" transform="matrix(1.00, 0.00, -0.00, -1.00, 197.3, 450.4)">i</text><text xml:space="preserve" font-family="AvenirNext-Regular,Avenir Next" font-size="34.0" fill="#404040" transform="matrix(1.00, 0.00, -0.00, -1.00, 205.8, 450.4)">z</text><text xml:space="preserve" font-family="AvenirNext-Regular,Avenir Next" font-size="34.0" fill="#404040" transform="matrix(1.00, 0.00, -0.00, -1.00, 220.8, 450.4)">a</text><text xml:space="preserve" font-family="AvenirNext-Regular,Avenir Next" font-size="34.0" fill="#404040" transform="matrix(1.00, 0.00, -0.00, -1.00, 239.0, 450.4)">r</text><text xml:space="preserve" font-family="AvenirNext-Regular,Avenir Next" font-size="34.0" fill="#404040" transform="matrix(1.00, 0.00, -0.00, -1.00, 251.2, 450.4)"> </text><text xml:space="preserve" font-family="AvenirNext-Regular,Avenir Next" font-size="34.0" fill="#404040" transform="matrix(1.00, 0.00, -0.00, -1.00, 259.7, 450.4)">I</text><text xml:space="preserve" font-family="AvenirNext-Regular,Avenir Next" font-size="34.0" fill="#404040" transform="matrix(1.00, 0.00, -0.00, -1.00, 268.6, 450.4)">n</text><text xml:space="preserve" font-family="AvenirNext-Regular,Avenir Next" font-size="34.0" fill="#404040" transform="matrix(1.00, 0.00, -0.00, -1.00, 288.3, 450.4)">t</text><text xml:space="preserve" font-family="AvenirNext-Regular,Avenir Next" font-size="34.0" fill="#404040" transform="matrix(1.00, 0.00, -0.00, -1.00, 299.1, 450.4)">e</text><text xml:space="preserve" font-family="AvenirNext-Regular,Avenir Next" font-size="34.0" fill="#404040" transform="matrix(1.00, 0.00, -0.00, -1.00, 318.5, 450.4)">r</text><text xml:space="preserve" font-family="AvenirNext-Regular,Avenir Next" font-size="34.0" fill="#404040" transform="matrix(1.00, 0.00, -0.00, -1.00, 330.8, 450.4)">f</text><text xml:space="preserve" font-family="AvenirNext-Regular,Avenir Next" font-size="34.0" fill="#404040" transform="matrix(1.00, 0.00, -0.00, -1.00, 340.8, 450.4)">a</text><text xml:space="preserve" font-family="AvenirNext-Regular,Avenir Next" font-size="34.0" fill="#404040" transform="matrix(1.00, 0.00, -0.00, -1.00, 359.0, 450.4)">c</text><text xml:space="preserve" font-family="AvenirNext-Regular,Avenir Next" font-size="34.0" fill="#404040" transform="matrix(1.00, 0.00, -0.00, -1.00, 376.0, 450.4)">e</text><text xml:space="preserve" font-family="AvenirNext-Regular,Avenir Next" font-size="34.0" fill="#404040" transform="matrix(1.00, 0.00, -0.00, -1.00, 395.4, 450.4)">s</text><text xml:space="preserve" font-family="AvenirNext-Regular,Avenir Next" font-size="34.0" fill="#404040" transform="matrix(1.00, 0.00, -0.00, -1.00, 410.5, 450.4)"> </text><text xml:space="preserve" font-family="AvenirNext-Regular,Avenir Next" font-size="34.0" fill="#404040" transform="matrix(1.00, 0.00, -0.00, -1.00, 419.0, 450.4)">C</text><text xml:space="preserve" font-family="AvenirNext-Regular,Avenir Next" font-size="34.0" fill="#404040" transform="matrix(1.00, 0.00, -0.00, -1.00, 443.1, 450.4)">é</text><text xml:space="preserve" font-family="AvenirNext-Regular,Avenir Next" font-size="34.0" fill="#404040" transform="matrix(1.00, 0.00, -0.00, -1.00, 462.5, 450.4)">r</text><text xml:space="preserve" font-family="AvenirNext-Regular,Avenir Next" font-size="34.0" fill="#404040" transform="matrix(1.00, 0.00, -0.00, -1.00, 474.2, 450.4)">e</text><text xml:space="preserve" font-family="AvenirNext-Regular,Avenir Next" font-size="34.0" fill="#404040" transform="matrix(1.00, 0.00, -0.00, -1.00, 493.6, 450.4)">b</text><text xml:space="preserve" font-family="AvenirNext-Regular,Avenir Next" font-size="34.0" fill="#404040" transform="matrix(1.00, 0.00, -0.00, -1.00, 515.3, 450.4)">r</text><text xml:space="preserve" font-family="AvenirNext-Regular,Avenir Next" font-size="34.0" fill="#404040" transform="matrix(1.00, 0.00, -0.00, -1.00, 526.9, 450.4)">o</text><text xml:space="preserve" font-family="AvenirNext-Regular,Avenir Next" font-size="34.0" fill="#404040" transform="matrix(1.00, 0.00, -0.00, -1.00, 547.7, 450.4)">-</text><text xml:space="preserve" font-family="AvenirNext-Regular,Avenir Next" font-size="34.0" fill="#404040" transform="matrix(1.00, 0.00, -0.00, -1.00, 558.5, 450.4)">C</text><text xml:space="preserve" font-family="AvenirNext-Regular,Avenir Next" font-size="34.0" fill="#404040" transform="matrix(1.00, 0.00, -0.00, -1.00, 582.6, 450.4)">o</text><text xml:space="preserve" font-family="AvenirNext-Regular,Avenir Next" font-size="34.0" fill="#404040" transform="matrix(1.00, 0.00, -0.00, -1.00, 603.4, 450.4)">m</text><text xml:space="preserve" font-family="AvenirNext-Regular,Avenir Next" font-size="34.0" fill="#404040" transform="matrix(1.00, 0.00, -0.00, -1.00, 633.4, 450.4)">p</text><text xml:space="preserve" font-family="AvenirNext-Regular,Avenir Next" font-size="34.0" fill="#404040" transform="matrix(1.00, 0.00, -0.00, -1.00, 655.0, 450.4)">u</text><text xml:space="preserve" font-family="AvenirNext-Regular,Avenir Next" font-size="34.0" fill="#404040" transform="matrix(1.00, 0.00, -0.00, -1.00, 674.8, 450.4)">t</text><text xml:space="preserve" font-family="AvenirNext-Regular,Avenir Next" font-size="34.0" fill="#404040" transform="matrix(1.00, 0.00, -0.00, -1.00, 685.5, 450.4)">a</text><text xml:space="preserve" font-family="AvenirNext-Regular,Avenir Next" font-size="34.0" fill="#404040" transform="matrix(1.00, 0.00, -0.00, -1.00, 703.7, 450.4)">d</text><text xml:space="preserve" font-family="AvenirNext-Regular,Avenir Next" font-size="34.0" fill="#404040" transform="matrix(1.00, 0.00, -0.00, -1.00, 725.4, 450.4)">o</text><text xml:space="preserve" font-family="AvenirNext-Regular,Avenir Next" font-size="34.0" fill="#404040" transform="matrix(1.00, 0.00, -0.00, -1.00, 746.1, 450.4)">r</text><text xml:space="preserve" font-family="AvenirNext-Regular,Avenir Next" font-size="34.0" fill="#404040" transform="matrix(1.00, 0.00, -0.00, -1.00, 758.4, 450.4)"> </text><text xml:space="preserve" font-family="AvenirNext-Regular,Avenir Next" font-size="34.0" fill="#404040" transform="matrix(1.00, 0.00, -0.00, -1.00, 766.9, 450.4)">(</text><text xml:space="preserve" font-family="AvenirNext-Regular,Avenir Next" font-size="34.0" fill="#404040" transform="matrix(1.00, 0.00, -0.00, -1.00, 777.1, 450.4)">I</text><text xml:space="preserve" font-family="AvenirNext-Regular,Avenir Next" font-size="34.0" fill="#404040" transform="matrix(1.00, 0.00, -0.00, -1.00, 785.9, 450.4)">C</text><text xml:space="preserve" font-family="AvenirNext-Regular,Avenir Next" font-size="34.0" fill="#404040" transform="matrix(1.00, 0.00, -0.00, -1.00, 810.0, 450.4)">C</text><text xml:space="preserve" font-family="AvenirNext-Regular,Avenir Next" font-size="34.0" fill="#404040" transform="matrix(1.00, 0.00, -0.00, -1.00, 834.5, 450.4)">)</text><text xml:space="preserve" font-family="AvenirNext-Regular,Avenir Next" font-size="34.0" fill="#404040" transform="matrix(1.00, 0.00, -0.00, -1.00, 844.7, 450.4)"> </text><text xml:space="preserve" font-family="ZapfDingbatsITC,Zapf Dingbats" font-size="20.4" fill="#919191" transform="matrix(1.00, 0.00, -0.00, -1.00, 81.0, 383.1)">❖</text><text xml:space="preserve" font-family="AvenirNext-Regular,Avenir Next" font-size="34.0" fill="#404040" transform="matrix(1.00, 0.00, -0.00, -1.00, 115.9, 380.4)">P</text><text xml:space="preserve" font-family="AvenirNext-Regular,Avenir Next" font-size="34.0" fill="#404040" transform="matrix(1.00, 0.00, -0.00, -1.00, 135.5, 380.4)">T</text><text xml:space="preserve" font-family="AvenirNext-Regular,Avenir Next" font-size="34.0" fill="#404040" transform="matrix(1.00, 0.00, -0.00, -1.00, 154.8, 380.4)">S</text><text xml:space="preserve" font-family="AvenirNext-Regular,Avenir Next" font-size="34.0" fill="#404040" transform="matrix(1.00, 0.00, -0.00, -1.00, 174.0, 380.4)">D</text><text xml:space="preserve" font-family="AvenirNext-Regular,Avenir Next" font-size="34.0" fill="#404040" transform="matrix(1.00, 0.00, -0.00, -1.00, 199.8, 380.4)"> </text><text xml:space="preserve" font-family="ZapfDingbatsITC,Zapf Dingbats" font-size="20.4" fill="#919191" transform="matrix(1.00, 0.00, -0.00, -1.00, 81.0, 313.1)">❖</text><text xml:space="preserve" font-family="AvenirNext-Regular,Avenir Next" font-size="34.0" fill="#404040" transform="matrix(1.00, 0.00, -0.00, -1.00, 115.9, 310.4)">A</text><text xml:space="preserve" font-family="AvenirNext-Regular,Avenir Next" font-size="34.0" fill="#404040" transform="matrix(1.00, 0.00, -0.00, -1.00, 139.7, 310.4)">c</text><text xml:space="preserve" font-family="AvenirNext-Regular,Avenir Next" font-size="34.0" fill="#404040" transform="matrix(1.00, 0.00, -0.00, -1.00, 156.7, 310.4)">e</text><text xml:space="preserve" font-family="AvenirNext-Regular,Avenir Next" font-size="34.0" fill="#404040" transform="matrix(1.00, 0.00, -0.00, -1.00, 176.2, 310.4)">s</text><text xml:space="preserve" font-family="AvenirNext-Regular,Avenir Next" font-size="34.0" fill="#404040" transform="matrix(1.00, 0.00, -0.00, -1.00, 191.3, 310.4)">s</text><text xml:space="preserve" font-family="AvenirNext-Regular,Avenir Next" font-size="34.0" fill="#404040" transform="matrix(1.00, 0.00, -0.00, -1.00, 206.4, 310.4)">i</text><text xml:space="preserve" font-family="AvenirNext-Regular,Avenir Next" font-size="34.0" fill="#404040" transform="matrix(1.00, 0.00, -0.00, -1.00, 214.9, 310.4)">b</text><text xml:space="preserve" font-family="AvenirNext-Regular,Avenir Next" font-size="34.0" fill="#404040" transform="matrix(1.00, 0.00, -0.00, -1.00, 236.5, 310.4)">i</text><text xml:space="preserve" font-family="AvenirNext-Regular,Avenir Next" font-size="34.0" fill="#404040" transform="matrix(1.00, 0.00, -0.00, -1.00, 245.0, 310.4)">l</text><text xml:space="preserve" font-family="AvenirNext-Regular,Avenir Next" font-size="34.0" fill="#404040" transform="matrix(1.00, 0.00, -0.00, -1.00, 253.6, 310.4)">i</text><text xml:space="preserve" font-family="AvenirNext-Regular,Avenir Next" font-size="34.0" fill="#404040" transform="matrix(1.00, 0.00, -0.00, -1.00, 262.1, 310.4)">d</text><text xml:space="preserve" font-family="AvenirNext-Regular,Avenir Next" font-size="34.0" fill="#404040" transform="matrix(1.00, 0.00, -0.00, -1.00, 283.8, 310.4)">a</text><text xml:space="preserve" font-family="AvenirNext-Regular,Avenir Next" font-size="34.0" fill="#404040" transform="matrix(1.00, 0.00, -0.00, -1.00, 301.9, 310.4)">d</text><text xml:space="preserve" font-family="AvenirNext-Regular,Avenir Next" font-size="34.0" fill="#404040" transform="matrix(1.00, 0.00, -0.00, -1.00, 323.6, 310.4)">e</text><text xml:space="preserve" font-family="AvenirNext-Regular,Avenir Next" font-size="34.0" fill="#404040" transform="matrix(1.00, 0.00, -0.00, -1.00, 343.0, 310.4)"> </text><text xml:space="preserve" font-family="ZapfDingbatsITC,Zapf Dingbats" font-size="20.4" fill="#919191" transform="matrix(1.00, 0.00, -0.00, -1.00, 81.0, 243.1)">❖</text><text xml:space="preserve" font-family="AvenirNext-Regular,Avenir Next" font-size="34.0" fill="#404040" transform="matrix(1.00, 0.00, -0.00, -1.00, 115.9, 240.4)">T</text><text xml:space="preserve" font-family="AvenirNext-Regular,Avenir Next" font-size="34.0" fill="#404040" transform="matrix(1.00, 0.00, -0.00, -1.00, 132.3, 240.4)">r</text><text xml:space="preserve" font-family="AvenirNext-Regular,Avenir Next" font-size="34.0" fill="#404040" transform="matrix(1.00, 0.00, -0.00, -1.00, 143.9, 240.4)">e</text><text xml:space="preserve" font-family="AvenirNext-Regular,Avenir Next" font-size="34.0" fill="#404040" transform="matrix(1.00, 0.00, -0.00, -1.00, 163.3, 240.4)">i</text><text xml:space="preserve" font-family="AvenirNext-Regular,Avenir Next" font-size="34.0" fill="#404040" transform="matrix(1.00, 0.00, -0.00, -1.00, 171.8, 240.4)">n</text><text xml:space="preserve" font-family="AvenirNext-Regular,Avenir Next" font-size="34.0" fill="#404040" transform="matrix(1.00, 0.00, -0.00, -1.00, 191.6, 240.4)">a</text><text xml:space="preserve" font-family="AvenirNext-Regular,Avenir Next" font-size="34.0" fill="#404040" transform="matrix(1.00, 0.00, -0.00, -1.00, 209.8, 240.4)">m</text><text xml:space="preserve" font-family="AvenirNext-Regular,Avenir Next" font-size="34.0" fill="#404040" transform="matrix(1.00, 0.00, -0.00, -1.00, 239.8, 240.4)">e</text><text xml:space="preserve" font-family="AvenirNext-Regular,Avenir Next" font-size="34.0" fill="#404040" transform="matrix(1.00, 0.00, -0.00, -1.00, 259.2, 240.4)">n</text><text xml:space="preserve" font-family="AvenirNext-Regular,Avenir Next" font-size="34.0" fill="#404040" transform="matrix(1.00, 0.00, -0.00, -1.00, 279.0, 240.4)">t</text><text xml:space="preserve" font-family="AvenirNext-Regular,Avenir Next" font-size="34.0" fill="#404040" transform="matrix(1.00, 0.00, -0.00, -1.00, 289.8, 240.4)">o</text><text xml:space="preserve" font-family="AvenirNext-Regular,Avenir Next" font-size="34.0" fill="#404040" transform="matrix(1.00, 0.00, -0.00, -1.00, 310.5, 240.4)">s</text><text xml:space="preserve" font-family="AvenirNext-Regular,Avenir Next" font-size="34.0" fill="#404040" transform="matrix(1.00, 0.00, -0.00, -1.00, 325.6, 240.4)"> </text><text xml:space="preserve" font-family="AvenirNext-Regular,Avenir Next" font-size="34.0" fill="#404040" transform="matrix(1.00, 0.00, -0.00, -1.00, 334.1, 240.4)">c</text><text xml:space="preserve" font-family="AvenirNext-Regular,Avenir Next" font-size="34.0" fill="#404040" transform="matrix(1.00, 0.00, -0.00, -1.00, 351.1, 240.4)">o</text><text xml:space="preserve" font-family="AvenirNext-Regular,Avenir Next" font-size="34.0" fill="#404040" transform="matrix(1.00, 0.00, -0.00, -1.00, 371.9, 240.4)">g</text><text xml:space="preserve" font-family="AvenirNext-Regular,Avenir Next" font-size="34.0" fill="#404040" transform="matrix(1.00, 0.00, -0.00, -1.00, 393.4, 240.4)">n</text><text xml:space="preserve" font-family="AvenirNext-Regular,Avenir Next" font-size="34.0" fill="#404040" transform="matrix(1.00, 0.00, -0.00, -1.00, 413.1, 240.4)">i</text><text xml:space="preserve" font-family="AvenirNext-Regular,Avenir Next" font-size="34.0" fill="#404040" transform="matrix(1.00, 0.00, -0.00, -1.00, 421.6, 240.4)">t</text><text xml:space="preserve" font-family="AvenirNext-Regular,Avenir Next" font-size="34.0" fill="#404040" transform="matrix(1.00, 0.00, -0.00, -1.00, 432.4, 240.4)">i</text><text xml:space="preserve" font-family="AvenirNext-Regular,Avenir Next" font-size="34.0" fill="#404040" transform="matrix(1.00, 0.00, -0.00, -1.00, 440.9, 240.4)">v</text><text xml:space="preserve" font-family="AvenirNext-Regular,Avenir Next" font-size="34.0" fill="#404040" transform="matrix(1.00, 0.00, -0.00, -1.00, 457.5, 240.4)">o</text><text xml:space="preserve" font-family="AvenirNext-Regular,Avenir Next" font-size="34.0" fill="#404040" transform="matrix(1.00, 0.00, -0.00, -1.00, 478.3, 240.4)">s</text><text xml:space="preserve" font-family="AvenirNext-Regular,Avenir Next" font-size="34.0" fill="#404040" transform="matrix(1.00, 0.00, -0.00, -1.00, 493.4, 240.4)"> </text><text xml:space="preserve" font-family="ZapfDingbatsITC,Zapf Dingbats" font-size="20.4" fill="#919191" transform="matrix(1.00, 0.00, -0.00, -1.00, 81.0, 173.1)">❖</text><text xml:space="preserve" font-family="AvenirNext-Regular,Avenir Next" font-size="34.0" fill="#404040" transform="matrix(1.00, 0.00, -0.00, -1.00, 115.9, 170.4)">J</text><text xml:space="preserve" font-family="AvenirNext-Regular,Avenir Next" font-size="34.0" fill="#404040" transform="matrix(1.00, 0.00, -0.00, -1.00, 132.7, 170.4)">o</text><text xml:space="preserve" font-family="AvenirNext-Regular,Avenir Next" font-size="34.0" fill="#404040" transform="matrix(1.00, 0.00, -0.00, -1.00, 153.4, 170.4)">g</text><text xml:space="preserve" font-family="AvenirNext-Regular,Avenir Next" font-size="34.0" fill="#404040" transform="matrix(1.00, 0.00, -0.00, -1.00, 174.9, 170.4)">o</text><text xml:space="preserve" font-family="AvenirNext-Regular,Avenir Next" font-size="34.0" fill="#404040" transform="matrix(1.00, 0.00, -0.00, -1.00, 195.7, 170.4)">s</text></g></svg>