<?xml version="1.0" encoding="UTF-8" standalone="no"?><svg xmlns="http://www.w3.org/2000/svg" xmlns:xlink="http://www.w3.org/1999/xlink" clip-rule="evenodd" stroke-miterlimit="10" viewBox="0 0 1024 768"><desc>SVG generated by Keynote</desc><defs></defs><g transform="matrix(1.00, 0.00, -0.00, -1.00, 0.0, 768.0)"><g><clipPath id="clip0x6080066b4820"><path d="M 0.0 768.0 L 1024.0 768.0 L 1024.0 0.0 L 0.0 0.0 Z M 0.0 768.0 "></path></clipPath><g clip-path="url(#clip0x6080066b4820)"><image xlink:href="../../62A57402-F52E-4D18-8FC0-8772A6409873/assets/5A8C990C4A4597A5304AC9F14CDA7C87.jpeg" width="2048.00" height="1536.00" transform="matrix(0.50, 0.00, -0.00, -0.50, 0.0, 768.0)"></image></g></g><g opacity="0.30"><g><clipPath id="clip0x6000066b3140"><path d="M 39.0 595.0 L 986.0 595.0 L 986.0 599.0 L 39.0 599.0 Z M 39.0 595.0 "></path></clipPath><g clip-path="url(#clip0x6000066b3140)"><path d="M 0.0 0.5 L 944.7 0.5 L 944.7 0.5 L 0.0 0.5 Z M 0.0 0.0 " fill="none" stroke="#434343" stroke-width="1.00" transform="matrix(1.00, 0.00, 0.00, -1.00, 40.0, 597.0)"></path></g></g></g><g opacity="0.30"><g><clipPath id="clip0x6000066b33e0"><path d="M 39.0 716.0 L 986.0 716.0 L 986.0 720.0 L 39.0 720.0 Z M 39.0 716.0 "></path></clipPath><g clip-path="url(#clip0x6000066b33e0)"><path d="M 0.0 0.5 L 944.7 0.5 L 944.7 0.5 L 0.0 0.5 Z M 0.0 0.0 " fill="none" stroke="#434343" stroke-width="1.00" transform="matrix(1.00, 0.00, 0.00, -1.00, 40.0, 718.0)"></path></g></g></g><text xml:space="preserve" font-family="AvenirNext-Regular,Avenir Next" font-size="64.4" fill="#D93D2A" transform="matrix(1.00, 0.00, -0.00, -1.00, 273.8, 636.6)">P</text><text xml:space="preserve" font-family="AvenirNext-Regular,Avenir Next" font-size="64.4" fill="#D93D2A" transform="matrix(1.00, 0.00, -0.00, -1.00, 308.0, 636.6)">r</text><text xml:space="preserve" font-family="AvenirNext-Regular,Avenir Next" font-size="64.4" fill="#D93D2A" transform="matrix(1.00, 0.00, -0.00, -1.00, 330.1, 636.6)">ó</text><text xml:space="preserve" font-family="AvenirNext-Regular,Avenir Next" font-size="64.4" fill="#D93D2A" transform="matrix(1.00, 0.00, -0.00, -1.00, 369.0, 636.6)">x</text><text xml:space="preserve" font-family="AvenirNext-Regular,Avenir Next" font-size="64.4" fill="#D93D2A" transform="matrix(1.00, 0.00, -0.00, -1.00, 400.2, 636.6)">i</text><text xml:space="preserve" font-family="AvenirNext-Regular,Avenir Next" font-size="64.4" fill="#D93D2A" transform="matrix(1.00, 0.00, -0.00, -1.00, 416.3, 636.6)">m</text><text xml:space="preserve" font-family="AvenirNext-Regular,Avenir Next" font-size="64.4" fill="#D93D2A" transform="matrix(1.00, 0.00, -0.00, -1.00, 473.2, 636.6)">o</text><text xml:space="preserve" font-family="AvenirNext-Regular,Avenir Next" font-size="64.4" fill="#D93D2A" transform="matrix(1.00, 0.00, -0.00, -1.00, 512.5, 636.6)">s</text><text xml:space="preserve" font-family="AvenirNext-Regular,Avenir Next" font-size="64.4" fill="#D93D2A" transform="matrix(1.00, 0.00, -0.00, -1.00, 541.1, 636.6)"> </text><text xml:space="preserve" font-family="AvenirNext-Regular,Avenir Next" font-size="64.4" fill="#D93D2A" transform="matrix(1.00, 0.00, -0.00, -1.00, 557.2, 636.6)">P</text><text xml:space="preserve" font-family="AvenirNext-Regular,Avenir Next" font-size="64.4" fill="#D93D2A" transform="matrix(1.00, 0.00, -0.00, -1.00, 590.7, 636.6)">a</text><text xml:space="preserve" font-family="AvenirNext-Regular,Avenir Next" font-size="64.4" fill="#D93D2A" transform="matrix(1.00, 0.00, -0.00, -1.00, 625.1, 636.6)">s</text><text xml:space="preserve" font-family="AvenirNext-Regular,Avenir Next" font-size="64.4" fill="#D93D2A" transform="matrix(1.00, 0.00, -0.00, -1.00, 653.7, 636.6)">s</text><text xml:space="preserve" font-family="AvenirNext-Regular,Avenir Next" font-size="64.4" fill="#D93D2A" transform="matrix(1.00, 0.00, -0.00, -1.00, 682.3, 636.6)">o</text><text xml:space="preserve" font-family="AvenirNext-Regular,Avenir Next" font-size="64.4" fill="#D93D2A" transform="matrix(1.00, 0.00, -0.00, -1.00, 721.6, 636.6)">s</text><text xml:space="preserve" font-family="ZapfDingbatsITC,Zapf Dingbats" font-size="21.6" fill="#919191" transform="matrix(1.00, 0.00, -0.00, -1.00, 44.0, 349.3)">❖</text><text xml:space="preserve" font-family="AvenirNext-Regular,Avenir Next" font-size="36.0" fill="#404040" transform="matrix(1.00, 0.00, -0.00, -1.00, 81.0, 346.2)">A</text><text xml:space="preserve" font-family="AvenirNext-Regular,Avenir Next" font-size="36.0" fill="#404040" transform="matrix(1.00, 0.00, -0.00, -1.00, 106.2, 346.2)">r</text><text xml:space="preserve" font-family="AvenirNext-Regular,Avenir Next" font-size="36.0" fill="#404040" transform="matrix(1.00, 0.00, -0.00, -1.00, 118.7, 346.2)">t</text><text xml:space="preserve" font-family="AvenirNext-Regular,Avenir Next" font-size="36.0" fill="#404040" transform="matrix(1.00, 0.00, -0.00, -1.00, 130.1, 346.2)">i</text><text xml:space="preserve" font-family="AvenirNext-Regular,Avenir Next" font-size="36.0" fill="#404040" transform="matrix(1.00, 0.00, -0.00, -1.00, 139.1, 346.2)">g</text><text xml:space="preserve" font-family="AvenirNext-Regular,Avenir Next" font-size="36.0" fill="#404040" transform="matrix(1.00, 0.00, -0.00, -1.00, 161.9, 346.2)">o</text><text xml:space="preserve" font-family="AvenirNext-Regular,Avenir Next" font-size="36.0" fill="#404040" transform="matrix(1.00, 0.00, -0.00, -1.00, 183.9, 346.2)"> </text><text xml:space="preserve" font-family="AvenirNext-Regular,Avenir Next" font-size="36.0" fill="#404040" transform="matrix(1.00, 0.00, -0.00, -1.00, 192.9, 346.2)">d</text><text xml:space="preserve" font-family="AvenirNext-Regular,Avenir Next" font-size="36.0" fill="#404040" transform="matrix(1.00, 0.00, -0.00, -1.00, 215.8, 346.2)">e</text><text xml:space="preserve" font-family="AvenirNext-Regular,Avenir Next" font-size="36.0" fill="#404040" transform="matrix(1.00, 0.00, -0.00, -1.00, 236.4, 346.2)"> </text><text xml:space="preserve" font-family="AvenirNext-Regular,Avenir Next" font-size="36.0" fill="#404040" transform="matrix(1.00, 0.00, -0.00, -1.00, 245.4, 346.2)">j</text><text xml:space="preserve" font-family="AvenirNext-Regular,Avenir Next" font-size="36.0" fill="#404040" transform="matrix(1.00, 0.00, -0.00, -1.00, 254.4, 346.2)">o</text><text xml:space="preserve" font-family="AvenirNext-Regular,Avenir Next" font-size="36.0" fill="#404040" transform="matrix(1.00, 0.00, -0.00, -1.00, 276.4, 346.2)">u</text><text xml:space="preserve" font-family="AvenirNext-Regular,Avenir Next" font-size="36.0" fill="#404040" transform="matrix(1.00, 0.00, -0.00, -1.00, 297.4, 346.2)">r</text><text xml:space="preserve" font-family="AvenirNext-Regular,Avenir Next" font-size="36.0" fill="#404040" transform="matrix(1.00, 0.00, -0.00, -1.00, 310.3, 346.2)">n</text><text xml:space="preserve" font-family="AvenirNext-Regular,Avenir Next" font-size="36.0" fill="#404040" transform="matrix(1.00, 0.00, -0.00, -1.00, 331.2, 346.2)">a</text><text xml:space="preserve" font-family="AvenirNext-Regular,Avenir Next" font-size="36.0" fill="#404040" transform="matrix(1.00, 0.00, -0.00, -1.00, 350.5, 346.2)">l</text><text xml:space="preserve" font-family="AvenirNext-Regular,Avenir Next" font-size="36.0" fill="#404040" transform="matrix(1.00, 0.00, -0.00, -1.00, 359.5, 346.2)"> </text><text xml:space="preserve" font-family="AvenirNext-Regular,Avenir Next" font-size="36.0" fill="#404040" transform="matrix(1.00, 0.00, -0.00, -1.00, 368.5, 346.2)">3</text><text xml:space="preserve" font-family="AvenirNext-Regular,Avenir Next" font-size="36.0" fill="#404040" transform="matrix(1.00, 0.00, -0.00, -1.00, 389.4, 346.2)"> </text><text xml:space="preserve" font-family="ZapfDingbatsITC,Zapf Dingbats" font-size="21.6" fill="#919191" transform="matrix(1.00, 0.00, -0.00, -1.00, 81.0, 276.3)">❖</text><text xml:space="preserve" font-family="AvenirNext-Regular,Avenir Next" font-size="36.0" fill="#404040" transform="matrix(1.00, 0.00, -0.00, -1.00, 118.0, 273.2)">S</text><text xml:space="preserve" font-family="AvenirNext-Regular,Avenir Next" font-size="36.0" fill="#404040" transform="matrix(1.00, 0.00, -0.00, -1.00, 138.3, 273.2)">i</text><text xml:space="preserve" font-family="AvenirNext-Regular,Avenir Next" font-size="36.0" fill="#404040" transform="matrix(1.00, 0.00, -0.00, -1.00, 147.3, 273.2)">n</text><text xml:space="preserve" font-family="AvenirNext-Regular,Avenir Next" font-size="36.0" fill="#404040" transform="matrix(1.00, 0.00, -0.00, -1.00, 168.2, 273.2)">a</text><text xml:space="preserve" font-family="AvenirNext-Regular,Avenir Next" font-size="36.0" fill="#404040" transform="matrix(1.00, 0.00, -0.00, -1.00, 187.4, 273.2)">i</text><text xml:space="preserve" font-family="AvenirNext-Regular,Avenir Next" font-size="36.0" fill="#404040" transform="matrix(1.00, 0.00, -0.00, -1.00, 196.4, 273.2)">s</text><text xml:space="preserve" font-family="AvenirNext-Regular,Avenir Next" font-size="36.0" fill="#404040" transform="matrix(1.00, 0.00, -0.00, -1.00, 212.4, 273.2)"> </text><text xml:space="preserve" font-family="AvenirNext-Regular,Avenir Next" font-size="36.0" fill="#404040" transform="matrix(1.00, 0.00, -0.00, -1.00, 221.4, 273.2)">d</text><text xml:space="preserve" font-family="AvenirNext-Regular,Avenir Next" font-size="36.0" fill="#404040" transform="matrix(1.00, 0.00, -0.00, -1.00, 244.4, 273.2)">e</text><text xml:space="preserve" font-family="AvenirNext-Regular,Avenir Next" font-size="36.0" fill="#404040" transform="matrix(1.00, 0.00, -0.00, -1.00, 265.0, 273.2)"> </text><text xml:space="preserve" font-family="AvenirNext-Regular,Avenir Next" font-size="36.0" fill="#404040" transform="matrix(1.00, 0.00, -0.00, -1.00, 274.0, 273.2)">E</text><text xml:space="preserve" font-family="AvenirNext-Regular,Avenir Next" font-size="36.0" fill="#404040" transform="matrix(1.00, 0.00, -0.00, -1.00, 295.3, 273.2)">E</text><text xml:space="preserve" font-family="AvenirNext-Regular,Avenir Next" font-size="36.0" fill="#404040" transform="matrix(1.00, 0.00, -0.00, -1.00, 316.6, 273.2)">G</text><text xml:space="preserve" font-family="AvenirNext-Regular,Avenir Next" font-size="36.0" fill="#404040" transform="matrix(1.00, 0.00, -0.00, -1.00, 344.6, 273.2)"> </text><text xml:space="preserve" font-family="AvenirNext-Regular,Avenir Next" font-size="36.0" fill="#404040" transform="matrix(1.00, 0.00, -0.00, -1.00, 353.6, 273.2)">e</text><text xml:space="preserve" font-family="AvenirNext-Regular,Avenir Next" font-size="36.0" fill="#404040" transform="matrix(1.00, 0.00, -0.00, -1.00, 374.0, 273.2)">x</text><text xml:space="preserve" font-family="AvenirNext-Regular,Avenir Next" font-size="36.0" fill="#404040" transform="matrix(1.00, 0.00, -0.00, -1.00, 391.4, 273.2)">t</text><text xml:space="preserve" font-family="AvenirNext-Regular,Avenir Next" font-size="36.0" fill="#404040" transform="matrix(1.00, 0.00, -0.00, -1.00, 402.8, 273.2)">r</text><text xml:space="preserve" font-family="AvenirNext-Regular,Avenir Next" font-size="36.0" fill="#404040" transform="matrix(1.00, 0.00, -0.00, -1.00, 415.4, 273.2)">a</text><text xml:space="preserve" font-family="AvenirNext-Regular,Avenir Next" font-size="36.0" fill="#404040" transform="matrix(1.00, 0.00, -0.00, -1.00, 434.6, 273.2)">í</text><text xml:space="preserve" font-family="AvenirNext-Regular,Avenir Next" font-size="36.0" fill="#404040" transform="matrix(1.00, 0.00, -0.00, -1.00, 443.6, 273.2)">d</text><text xml:space="preserve" font-family="AvenirNext-Regular,Avenir Next" font-size="36.0" fill="#404040" transform="matrix(1.00, 0.00, -0.00, -1.00, 466.5, 273.2)">o</text><text xml:space="preserve" font-family="AvenirNext-Regular,Avenir Next" font-size="36.0" fill="#404040" transform="matrix(1.00, 0.00, -0.00, -1.00, 488.5, 273.2)">s</text><text xml:space="preserve" font-family="AvenirNext-Regular,Avenir Next" font-size="36.0" fill="#404040" transform="matrix(1.00, 0.00, -0.00, -1.00, 504.5, 273.2)"> </text><text xml:space="preserve" font-family="AvenirNext-Regular,Avenir Next" font-size="36.0" fill="#404040" transform="matrix(1.00, 0.00, -0.00, -1.00, 513.5, 273.2)">e</text><text xml:space="preserve" font-family="AvenirNext-Regular,Avenir Next" font-size="36.0" fill="#404040" transform="matrix(1.00, 0.00, -0.00, -1.00, 534.1, 273.2)">m</text><text xml:space="preserve" font-family="AvenirNext-Regular,Avenir Next" font-size="36.0" fill="#404040" transform="matrix(1.00, 0.00, -0.00, -1.00, 565.9, 273.2)"> </text><text xml:space="preserve" font-family="AvenirNext-Regular,Avenir Next" font-size="36.0" fill="#404040" transform="matrix(1.00, 0.00, -0.00, -1.00, 574.9, 273.2)">E</text><text xml:space="preserve" font-family="AvenirNext-Regular,Avenir Next" font-size="36.0" fill="#404040" transform="matrix(1.00, 0.00, -0.00, -1.00, 596.2, 273.2)">l</text><text xml:space="preserve" font-family="AvenirNext-Regular,Avenir Next" font-size="36.0" fill="#404040" transform="matrix(1.00, 0.00, -0.00, -1.00, 605.3, 273.2)"> </text><text xml:space="preserve" font-family="AvenirNext-Regular,Avenir Next" font-size="36.0" fill="#404040" transform="matrix(1.00, 0.00, -0.00, -1.00, 614.3, 273.2)">P</text><text xml:space="preserve" font-family="AvenirNext-Regular,Avenir Next" font-size="36.0" fill="#404040" transform="matrix(1.00, 0.00, -0.00, -1.00, 633.0, 273.2)">a</text><text xml:space="preserve" font-family="AvenirNext-Regular,Avenir Next" font-size="36.0" fill="#404040" transform="matrix(1.00, 0.00, -0.00, -1.00, 652.2, 273.2)">s</text><text xml:space="preserve" font-family="AvenirNext-Regular,Avenir Next" font-size="36.0" fill="#404040" transform="matrix(1.00, 0.00, -0.00, -1.00, 668.2, 273.2)">o</text></g></svg>