<?xml version="1.0" encoding="UTF-8" standalone="no"?><svg xmlns="http://www.w3.org/2000/svg" xmlns:xlink="http://www.w3.org/1999/xlink" clip-rule="evenodd" stroke-miterlimit="10" viewBox="0 0 813 67"><desc>SVG generated by Keynote</desc><defs></defs><g transform="matrix(1.00, 0.00, -0.00, -1.00, 0.0, 67.0)"><text xml:space="preserve" font-family="AvenirNext-Regular,Avenir Next" font-size="64.4" fill="#D93D2A" transform="matrix(1.00, 0.00, -0.00, -1.00, 1.2, 16.6)">A</text><text xml:space="preserve" font-family="AvenirNext-Regular,Avenir Next" font-size="64.4" fill="#D93D2A" transform="matrix(1.00, 0.00, -0.00, -1.00, 45.9, 16.6)">v</text><text xml:space="preserve" font-family="AvenirNext-Regular,Avenir Next" font-size="64.4" fill="#D93D2A" transform="matrix(1.00, 0.00, -0.00, -1.00, 77.3, 16.6)">a</text><text xml:space="preserve" font-family="AvenirNext-Regular,Avenir Next" font-size="64.4" fill="#D93D2A" transform="matrix(1.00, 0.00, -0.00, -1.00, 111.7, 16.6)">l</text><text xml:space="preserve" font-family="AvenirNext-Regular,Avenir Next" font-size="64.4" fill="#D93D2A" transform="matrix(1.00, 0.00, -0.00, -1.00, 127.9, 16.6)">i</text><text xml:space="preserve" font-family="AvenirNext-Regular,Avenir Next" font-size="64.4" fill="#D93D2A" transform="matrix(1.00, 0.00, -0.00, -1.00, 144.0, 16.6)">a</text><text xml:space="preserve" font-family="AvenirNext-Regular,Avenir Next" font-size="64.4" fill="#D93D2A" transform="matrix(1.00, 0.00, -0.00, -1.00, 178.4, 16.6)">ç</text><text xml:space="preserve" font-family="AvenirNext-Regular,Avenir Next" font-size="64.4" fill="#D93D2A" transform="matrix(1.00, 0.00, -0.00, -1.00, 210.6, 16.6)">ã</text><text xml:space="preserve" font-family="AvenirNext-Regular,Avenir Next" font-size="64.4" fill="#D93D2A" transform="matrix(1.00, 0.00, -0.00, -1.00, 245.0, 16.6)">o</text><text xml:space="preserve" font-family="AvenirNext-Regular,Avenir Next" font-size="64.4" fill="#D93D2A" transform="matrix(1.00, 0.00, -0.00, -1.00, 284.4, 16.6)"> </text><text xml:space="preserve" font-family="AvenirNext-Regular,Avenir Next" font-size="64.4" fill="#D93D2A" transform="matrix(1.00, 0.00, -0.00, -1.00, 300.5, 16.6)">M</text><text xml:space="preserve" font-family="AvenirNext-Regular,Avenir Next" font-size="64.4" fill="#D93D2A" transform="matrix(1.00, 0.00, -0.00, -1.00, 357.5, 16.6)">é</text><text xml:space="preserve" font-family="AvenirNext-Regular,Avenir Next" font-size="64.4" fill="#D93D2A" transform="matrix(1.00, 0.00, -0.00, -1.00, 394.3, 16.6)">t</text><text xml:space="preserve" font-family="AvenirNext-Regular,Avenir Next" font-size="64.4" fill="#D93D2A" transform="matrix(1.00, 0.00, -0.00, -1.00, 414.8, 16.6)">o</text><text xml:space="preserve" font-family="AvenirNext-Regular,Avenir Next" font-size="64.4" fill="#D93D2A" transform="matrix(1.00, 0.00, -0.00, -1.00, 454.1, 16.6)">d</text><text xml:space="preserve" font-family="AvenirNext-Regular,Avenir Next" font-size="64.4" fill="#D93D2A" transform="matrix(1.00, 0.00, -0.00, -1.00, 495.1, 16.6)">o</text><text xml:space="preserve" font-family="AvenirNext-Regular,Avenir Next" font-size="64.4" fill="#D93D2A" transform="matrix(1.00, 0.00, -0.00, -1.00, 534.5, 16.6)"> </text><text xml:space="preserve" font-family="AvenirNext-Regular,Avenir Next" font-size="64.4" fill="#D93D2A" transform="matrix(1.00, 0.00, -0.00, -1.00, 550.6, 16.6)">P</text><text xml:space="preserve" font-family="AvenirNext-Regular,Avenir Next" font-size="64.4" fill="#D93D2A" transform="matrix(1.00, 0.00, -0.00, -1.00, 584.8, 16.6)">r</text><text xml:space="preserve" font-family="AvenirNext-Regular,Avenir Next" font-size="64.4" fill="#D93D2A" transform="matrix(1.00, 0.00, -0.00, -1.00, 606.9, 16.6)">o</text><text xml:space="preserve" font-family="AvenirNext-Regular,Avenir Next" font-size="64.4" fill="#D93D2A" transform="matrix(1.00, 0.00, -0.00, -1.00, 646.2, 16.6)">p</text><text xml:space="preserve" font-family="AvenirNext-Regular,Avenir Next" font-size="64.4" fill="#D93D2A" transform="matrix(1.00, 0.00, -0.00, -1.00, 687.1, 16.6)">o</text><text xml:space="preserve" font-family="AvenirNext-Regular,Avenir Next" font-size="64.4" fill="#D93D2A" transform="matrix(1.00, 0.00, -0.00, -1.00, 726.5, 16.6)">s</text><text xml:space="preserve" font-family="AvenirNext-Regular,Avenir Next" font-size="64.4" fill="#D93D2A" transform="matrix(1.00, 0.00, -0.00, -1.00, 755.1, 16.6)">t</text><text xml:space="preserve" font-family="AvenirNext-Regular,Avenir Next" font-size="64.4" fill="#D93D2A" transform="matrix(1.00, 0.00, -0.00, -1.00, 775.5, 16.6)">o</text></g></svg>